<?xml version="1.0" encoding="UTF-8"?>
<!DOCTYPE svg PUBLIC "-//W3C//DTD SVG 1.1//EN" "http://www.w3.org/Graphics/SVG/1.1/DTD/svg11.dtd">
<!-- Creator: CorelDRAW -->
<svg xmlns="http://www.w3.org/2000/svg" xml:space="preserve" width="19.05mm" height="19.05mm" version="1.1" style="shape-rendering:geometricPrecision; text-rendering:geometricPrecision; image-rendering:optimizeQuality; fill-rule:evenodd; clip-rule:evenodd"
viewBox="0 0 1905 1905"
 xmlns:xlink="http://www.w3.org/1999/xlink"
 xmlns:xodm="http://www.corel.com/coreldraw/odm/2003">
 <defs>
  <style type="text/css">
   <![CDATA[
    .str0 {stroke:#FEFEFE;stroke-width:211.67;stroke-miterlimit:22.9256}
    .fil2 {fill:#480090}
    .fil1 {fill:#FEFEFE;fill-rule:nonzero}
    .fil0 {fill:#5ECBF1;fill-rule:nonzero}
   ]]>
  </style>
 </defs>
 <g id="Layer_x0020_1">
  <metadata id="CorelCorpID_0Corel-Layer"/>
  <path class="fil0" d="M927.62 498.74c-0.86,0 -2.5,0.12 -2.56,0.12 -221.52,19.52 -398.12,196.15 -417.53,417.93 -0.01,0.15 -0.14,2.18 -0.14,2.37 -0.01,0.14 -0.06,1.26 -0.06,1.75 0,14.32 11.6,25.92 25.92,25.92 13.9,0 25.25,-10.94 25.88,-24.68 0,0 -0.01,-0.01 -0.01,-0.01 16.88,-197.05 173.45,-354.14 370.13,-371.6l0 0c13.13,-0.83 23.63,-11.46 24.25,-24.65 0.02,-0.41 0.03,-0.81 0.03,-1.23 0,-14.32 -11.6,-25.92 -25.91,-25.92z"/>
  <path class="fil1 str0" d="M1642.07 1244.24c0,218.81 -179.02,397.83 -397.83,397.83l-583.48 0c-218.81,0 -397.83,-179.02 -397.83,-397.83l0 -583.48c0,-218.81 179.02,-397.83 397.83,-397.83l583.48 0c218.81,0 397.83,179.02 397.83,397.83l0 583.48z"/>
  <g id="_2186779511856">
   <path class="fil2" d="M958.07 1068.43c-3.65,0 -10.08,-1.97 -12.73,-3.71l49.24 0.57c-2.53,1.14 -9.71,3.14 -12.4,3.14l-24.11 0zm-64.89 -9.27c0,-7.8 7.07,-12.98 14.84,-12.98 15.38,0 19.24,27.81 -1.86,27.81 -7.73,0 -12.98,-7.14 -12.98,-14.83zm257.71 -11.13c0.84,-10.02 7.76,-18.05 16.69,-20.39l-16.69 20.39zm-396.76 0l-18.05 -21.75c8.8,4.59 15.56,9.21 18.05,21.75zm227.14 -44.49c19.69,0 39.01,3.91 55.45,8.54 18.78,5.28 40.4,16.21 45.57,17.41 -1.55,0.96 1.79,2.95 -6.05,0.78l-17.81 -6.58c-7.52,-2.5 -14.54,-4.84 -23.93,-7.49 -13.1,-3.69 -37.39,-10.81 -53.23,-10.81l0 -1.85zm-163.61 29.17c23.06,-15.58 75.89,-29.17 107.66,-29.17l0 1.85c-21.64,0 -61.82,12.69 -82.89,19.7 -6.63,2.2 -19.14,7.74 -24.77,7.62zm181.65 -85.24c17.9,-9.95 42.2,-15.32 42.2,-51.47 7.35,6.43 0.47,6.63 6.89,15.31 2.76,3.73 64.73,56.29 72.83,70.47 -14.18,-5.48 -64.75,-50.06 -77.87,-56.11 -10.79,7.11 -27.33,22.05 -44.05,21.8zm-176.94 -5.54c8.69,-7.53 14.86,-13.57 23.71,-20.72 25.64,-20.73 8.13,-19.51 18.56,-24.47 -3.54,9.86 5.67,25.3 10.41,30.37 7.09,7.57 14.23,14.58 25.84,17.1 -10.16,5.52 -34.47,-18.54 -39.22,-18.54 -5.06,0 -75.07,58.45 -85.29,61.18l45.99 -44.92zm169.08 -62.61c-12.6,8.43 -20.58,14.1 -43,11.73 -60.52,-6.38 -27.71,-42.03 11.01,-37.31 28.3,3.46 31.99,9.45 31.99,25.58zm48.2 -14.84c0.08,-11.17 2.19,-15.9 8.91,-20.76 14.69,-10.6 120.14,-65 139.41,-69.21 -6.02,7.55 -9.65,7.39 -18.55,12.15 -6.24,3.35 -12.67,7.07 -19,10.61 -18.41,10.28 -82,43.79 -95.17,53.14 -6.91,4.91 -10.36,10.57 -15.6,14.07zm-173.46 0.08c-10.56,-5.69 -7.08,-11.19 -36.02,-26.05l-77.89 -42.62c-7.96,-4.14 -32.83,-16.45 -37.08,-22.25 24.48,5.7 95.3,44.24 122.27,59.43 23.25,13.1 25.82,10.36 28.72,31.49zm-256.67 -122.71l-1.86 5.83c-4.75,-3.22 -2.95,-3.44 -9.27,-5.56l-5.32 4.11c3.13,12.22 16.6,17.84 28.64,22.92 -9.99,1.33 -17.08,-6.08 -25.17,-8.98 0,17.65 4.11,24.09 16.02,30.82 39.59,22.38 44.89,-6.01 100.9,38.1 16.69,13.14 33.39,28.48 49.45,43.26 13.99,12.87 32.53,35.73 46.43,45.49 20.3,-27.56 -7.35,-43.79 -28.51,-57.81 -11.87,-7.87 -55.86,-33.62 -61.93,-41.9 9.19,2.18 50.23,27.27 59.43,33.3 58.36,38.3 63.01,46.62 6.88,103.46 -10.34,10.47 -41.78,35.41 -46.53,46.79 21.62,0 33.91,11.19 41.1,26.28 3.5,7.35 5.45,16.37 4.54,26.15 -1.34,14.48 -3.62,16.5 -13.5,21.73 3.77,-17.38 2.23,-31.48 -9.11,-46.42 -4.61,-6.07 -12.8,-11.66 -21.51,-13.85 -20.55,-5.18 -34.3,11.62 -46.56,23.89 11.54,4.86 17.09,2.98 26.66,10.88 8.28,6.83 11.93,14.65 11.58,29.21 -6.8,1.59 -9.57,4.42 -16.68,7.42 -4.67,-20.05 -14.86,-31.52 -37.08,-31.52 -9.17,0 -11.58,4.01 -16.69,7.42 4.53,4.96 21.22,13.79 29.16,20.86 8.97,7.99 15.06,19.1 24.61,25.49 38.26,-20.25 128.84,-64.3 172.42,-66.75 -1.94,1.69 -0.5,0.97 -4.33,3.09 -18.8,10.39 -42.72,17.15 -63.18,23.96 -10.5,3.49 -13.44,5.88 -15.61,17.7 -3.65,19.81 -18.85,92.79 -18.85,110.99 0,6.76 1.85,6.73 1.85,12.98 0,8.74 -5.31,9.16 -7.01,20.81 -3.42,23.44 -4.4,54.63 -12.72,74.94 -2.64,-22.53 6.76,-55.55 6.76,-79.07 -14.38,0.32 -11.81,6.06 -13.48,19.88l-12.48 111.76c0,8.12 9.86,12.98 18.54,12.98 17.79,0 17.22,-15.64 19.18,-30.96 2.09,-16.39 3.54,-31 5.07,-46.78 1.48,-15.13 3.94,-29.07 5.64,-44.46 1.6,-14.38 3.95,-31.42 6.47,-45.43 10.33,-57.49 27.95,-105.36 57.62,-146.99 10.62,10.81 9.9,17.21 28.27,23.59 30.41,10.54 94.57,10.83 124.6,0.23 16.02,-5.66 21.79,-10.01 29.4,-24.39 13.49,15.06 26.57,43.95 35.21,64.9 23.68,57.45 32.83,149.44 39.07,214.99 1.94,20.43 1.9,35.3 22.13,35.3 27.7,0 14.27,-48.32 11.9,-65.66 -2.62,-19.22 -9.99,-60.46 -10.05,-77.1l-12.52 -2.04c2.85,6.87 6.96,60.2 6.96,72.49 -7.49,-11.81 -7.7,-63.56 -15.47,-79.14 -10.19,-20.45 3.37,2.09 -5.03,-48.67l-14.47 -80.16c-4.54,-25.16 -8.49,-20.13 -33.77,-29.22 -14.37,-5.16 -32.9,-13.71 -46.21,-16.81 2.89,-2.12 8.1,-1.78 11.83,-0.92 25.48,5.9 53.93,17.01 77.35,26.73 10.24,4.25 74.49,37.16 79.42,35.57 6.99,-2.25 18.15,-17.76 24.56,-23.92 6.04,-5.81 24.55,-16.66 27.47,-20.77 -12.92,-13.82 -43.3,-12.88 -51.91,24.1 -4.42,-2.34 -16.69,-6.81 -16.69,-12.98 0,-30.58 26.79,-26.91 38.94,-35.23 -16.81,-11.27 -21.2,-24.1 -40.79,-24.1 -14.11,0 -24.37,8.76 -30.49,17.72 -9.66,14.15 -8.45,20.47 -8.45,42.27 -24.18,-10.33 -14.73,-72.97 34.16,-72.97 -6.58,-14.39 -34.5,-34.62 -46.68,-46.81 -52.82,-52.89 -54.82,-64.23 9.9,-105.97 13.88,-8.95 47.03,-30.97 61.95,-34.47 -8.54,11.65 -75.12,46.36 -94.16,65.27 -13.64,13.56 -10.45,21.19 -2.25,36.7 8.42,-2.25 38.68,-35.85 46.81,-44.04 7.79,-7.85 16.22,-14.26 24.11,-22.25 7.81,-7.89 15.71,-14.4 24.78,-21.59 23.4,-18.57 33.85,-25.48 65.65,-27.1 12.91,-0.65 27.01,-6.68 35.26,-11.02 11.36,-5.98 16.61,-12.12 16.61,-29.74 -7.78,1.97 -9.46,5.9 -19.99,7.86 7.54,-7.57 19.15,-7.64 21.84,-22.69l-4.08 -3.34c-6.41,1.44 -3.51,1.58 -8.9,5.19 -1.46,-2.95 -1.9,3.41 0,-5.56 -8.21,3.95 -11.8,7.83 -23.04,10.36 -16.6,3.74 -38.62,1.6 -51.61,-9.88 -8,-7.08 -6.92,-13.01 -6.92,-26.68 -9.34,3.05 -14.84,12.52 -14.84,24.34 0,12.68 14.64,19.3 21.3,25.96 -4.84,-1.01 -8.46,-1.9 -12.4,-3.43 -21.26,-8.21 -5.1,-8.8 -40.13,5.65 -10.99,4.53 -18.82,7.76 -29.05,11.7 -63.29,24.38 -127.46,45.25 -201.35,40.08 -52.23,-3.65 -86.85,-10.41 -136.29,-26.89l-88.24 -34.28c-16.35,-7.16 -11.58,3.85 -29.26,5.32 5.88,-8.28 18.54,-12.42 18.54,-27.81 0,-8.95 -7.23,-17.54 -14.83,-20.4 0.18,20.78 -2.89,31.83 -28.37,36.6 -22.75,4.25 -38.2,-0.87 -51.35,-10.91z"/>
   <path class="fil2" d="M780.09 1211.19c-1.09,-8.28 -7.7,-14.55 -12.62,-20.75l-46.41 -59.21c-16.2,-20.27 -46.13,-58.13 -74.46,-64.66 0.42,-2.7 1.09,-3.57 1.24,-4.16 1.14,-4.34 1.59,0.12 0.61,-3.25 -13.45,1.12 -15.07,8.26 -24.1,13.02 1.04,-12.62 9.33,-16.34 22.25,-18.58 0,-15.6 -5.75,-34.44 -23.41,-32.58 -7.79,0.82 -14.67,5.72 -17.45,10.29 -2.92,4.8 -8.64,39.94 1.29,48.87 18.36,16.53 18.61,-9.22 34.84,24.4 22.13,45.84 25.67,59.03 64.17,82.4 11.92,7.24 22.85,14.77 35.28,22.2 11.07,6.62 29.22,21.84 38.77,2.01z"/>
   <path class="fil2" d="M1258.43 1053.6c13.3,0.74 19.03,5.37 21.21,18.54 -9.52,-4.96 -8.27,-10.93 -23.07,-12.98 -0.1,0.24 0.07,0.45 0.08,0.79l0.36 3.43c-0.51,3.14 3.81,-0.22 -3,4.09 -2.76,1.75 -9.28,3.96 -12.91,5.89 -9.83,5.21 -15.07,9.76 -22.08,16.85 -13.21,13.35 -23.16,25.41 -35.41,40.57l-50.06 64.86c-8.53,11.54 -11.99,12.55 -2.88,24.65 22.67,0.63 31.82,-10.49 59.11,-27.66 15.64,-9.84 34.37,-20.73 44.79,-34.91l26.95 -50.98c2.26,-4.53 4,-8.84 6.06,-12.5 4.05,-7.2 2.98,-5.78 13.12,-7.04 26.68,-3.29 22.22,-18.39 22.22,-41.02 0,-27.65 -43.65,-42.58 -44.49,7.42z"/>
   <path class="fil2" d="M620.64 649.42c10.15,4.93 19.93,5.37 20.07,20.07 -13.31,-9.24 3.12,-2.55 -21.92,-14.39l-0.84 3.83c-1.9,3.83 2.11,1.17 -2.87,3.46 -31.75,2.53 -66.73,37.55 -87.75,55l-68.22 57.98c-5.81,5.88 -4.07,10.06 -1.62,13.1 7.59,9.43 32.57,-6.15 48.82,-14.22 26.26,-13.05 88.27,-33.79 98.76,-44.04 9.41,-9.19 15.13,-28.81 26.04,-45.57 13.29,0.8 24.46,3.01 31.82,-7.76 5.6,-8.2 8.14,-64.86 -25.32,-55.15 -14.45,4.2 -12.64,14.18 -16.97,27.69z"/>
   <path class="fil2" d="M1239.89 645.71c0,21.81 -3.6,31.17 10.56,37.73 22.62,10.48 16.84,-14.84 34.56,20.97 18.33,37.02 14.9,29.55 57.81,46.05l95.45 41.72c9.67,0 17.96,-7.7 4.44,-19.19l-62.1 -52.97c-21.86,-17.36 -60.22,-57.63 -94.37,-57.63 1.53,-7.85 1.25,-5.08 -0.37,-7.33 -4.99,3.1 -6.54,1.54 -12.22,5.9 -4.35,3.34 -5.18,5.72 -9.62,8.81 0.23,-15.99 8.42,-15.68 20.35,-19.66 -2.65,-6.72 -1.16,-27.21 -20.46,-28.75 -16.26,-1.3 -24.03,10.44 -24.03,24.35z"/>
   <path class="fil2" d="M595.42 1049.89c-2.39,-46.49 51.89,-0.22 -77.21,-129.32 -18.95,-18.95 -27.27,-33.67 -45.25,-29.63 -12.28,2.76 -12.89,10.99 -7.31,20.9l56.9 95.2c4.66,7.78 9.76,17.27 14.61,24.35 15.34,22.39 25.01,0.8 58.26,18.5z"/>
   <path class="fil2" d="M1299.22 1020.22c0,4.71 3.94,5.65 6.74,11.79 2.57,5.63 2.53,10.25 2.53,17.88 9.31,-2.49 7.06,-7.67 27.75,-7.47 13.54,0.12 21.74,0.53 28.2,-7.06l67.82 -112.02c6.53,-10.58 9.8,-11.74 9.72,-27.34 -23.14,-15.49 -32.91,2.32 -53.31,22.71 -15.24,15.25 -89.45,84.54 -89.45,101.51z"/>
   <path class="fil2" d="M1234.33 649.62c0,-12.87 -0.94,-11.82 3.7,-20.6 -36.33,-14.77 -45,-24.72 -81.53,-48.23 -13,-8.35 -72.33,-48.18 -83.48,-48.18 -5.9,0 -10.54,1.7 -11.03,7.68 -0.61,7.46 16.37,17.55 28.27,27.05 14.85,11.85 27.83,22.31 42.49,33.47 51.87,39.5 27.79,19.69 74.65,36.52 4.17,1.49 9.11,3.33 13.21,5.38 6.21,3.12 6.93,4.95 13.72,6.91z"/>
   <path class="fil2" d="M667.16 629.19c4.25,8.16 3.54,8.95 3.54,20.23 5.49,-1.39 16.7,-10.61 51.21,-19.15 11.9,-2.95 16.07,-3.3 25.33,-10.06l59.15 -46.49c8.01,-6.33 34.59,-25.02 36.73,-33.69 -11.69,-17.47 -27.36,-1.28 -54.56,15.92 -14.15,8.95 -26.69,16.83 -40.02,24.82 -26.52,15.89 -49.55,37.61 -81.38,48.42z"/>
   <path class="fil2" d="M982.5 1118.49c-29.64,2.92 -28.91,2.81 -58.55,-0.53 5.19,-2.11 53.23,-1.53 54.45,-1.3 4.31,0.82 1.68,0.29 4.1,1.83zm18.71 -6.76c8.31,-2.06 15.87,-5.55 22.37,-9.37 9.7,-5.7 8.66,-9.36 8.66,-22.81 -5.77,1.53 -11.48,5.23 -16.78,7.36 -5.47,2.2 -12.62,4.23 -18.63,5.44 -27.68,5.61 -81.27,5.65 -107.33,-5.4 -5.59,-2.37 -10.36,-5.77 -16.75,-7.64 0.2,25.51 8.55,21.08 24.33,29.8 10.4,5.75 -6.08,15.56 28.5,21.51 38.46,6.62 95.8,-4.62 75.63,-18.89z"/>
   <path class="fil2" d="M1282.53 1155.57c-16.51,0 -21.15,-4.7 -33.37,-7.42 -2.89,4.31 -4.76,8.07 -7.75,12.64 -3.97,6.07 -7.26,7.05 -8.96,13.32 -0.06,15.31 52.29,37.39 86.42,14.08 10.35,-7.07 13.72,-12.43 13.72,-28.91 -6.16,1.89 -3.02,2.08 -9.27,3.7 1.01,-1.5 26.35,-23.43 9.07,-44.32 -2.46,-2.98 -1.37,-2.51 -5.36,-4.05 0,17.96 -0.22,23.05 -11.86,30.95 -6.17,4.19 -22.23,10.01 -32.64,10.01z"/>
   <path class="fil2" d="M583.56 1164.84c-8.12,-1.92 -5.95,-3.7 -12.98,-5.56 1.05,49.72 85.87,49 101.97,14.83 -23.64,-35.4 -11.78,-24.14 -41.57,-19.28 -11.15,1.83 -19.27,-0.31 -27.3,-2.69 -19.64,-5.84 -25.07,-11.85 -26.13,-36.91 -8.93,2.12 -11.74,18.87 -10.37,26.93 2.39,14.03 10.36,14.29 16.38,22.68z"/>
   <path class="fil2" d="M1291.8 736.56c-1.34,-5.37 -11.94,-23.49 -14.83,-27.81 -34.8,0 -35.39,-3.36 -55.25,-21.88 -0.86,11.12 -0.43,23.66 -0.47,34.96 -0.04,13.93 3.24,17.24 13.44,21.73 16.99,7.5 48.31,6.15 57.11,-7z"/>
   <path class="fil2" d="M613.23 736.56c6.4,9.55 18.75,11.34 35.28,11.21 18.28,-0.13 24.59,-5.6 35.04,-13.19l0.12 -48c-33.78,38.2 -50.31,11.21 -60.18,28.66l-10.26 21.32z"/>
   <path class="fil2" d="M1269.55 1109.22c-19.16,30.91 -19.19,34.73 -4.79,38.15 14.53,3.46 32.78,1.05 44.96,-5.38 16.83,-8.9 11.75,-23.19 11.75,-57 -13.91,9.81 -16.63,24.23 -51.92,24.23z"/>
   <path class="fil2" d="M650.31 1142.59c-0.97,-6.66 -6.44,-15.69 -9.56,-21.92 -12.37,-24.71 -22.22,0.62 -50.23,-29.54 -8.15,-8.76 -3.21,-5.85 -8.77,-7.83 5.58,22.85 -6.98,45.44 9.94,56.72 15.93,10.63 39.7,11.89 58.62,2.57z"/>
   <path class="fil2" d="M1124.94 1194.5c16.06,-14.02 1.41,-49.81 -3.38,-91.16 -1.5,-12.9 -1.64,-11.8 -13.31,-14.52 0,14.38 5.49,37.23 8.11,53.01 2.38,14.27 7.91,38.66 8.58,52.67z"/>
   <path class="fil2" d="M772.67 1179.67c0,6.82 3.75,10.38 7.42,12.98l16.68 -103.83c-15.75,2.82 -11.94,1.79 -17.31,40.23l-6.79 50.62z"/>
   <path class="fil2" d="M631.77 703.18c18.17,0 27.21,-1.57 38.27,-9.93 9.72,-7.35 17.58,-24.48 0.66,-29 0,42.77 -39.48,14.7 -38.93,38.93z"/>
   <path class="fil2" d="M1273.26 703.18c-1.49,-17.94 -9.75,-7.26 -24.84,-14.08 -5.52,-2.5 -7.92,-3.82 -10.99,-9.44 -3.58,-6.57 -1.9,-10.1 -4.96,-15.13 -17.11,9.75 -6.86,38.65 40.79,38.65z"/>
   <path class="fil2" d="M587.27 1073.99c0,18.61 36.71,34.21 42.64,27.27 6.84,-7.99 -23.54,-6.26 -31.04,-22.18 -3.13,-6.65 -1.51,-10.08 -4.26,-16.14 -3.1,2.16 -7.34,5.74 -7.34,11.05z"/>
   <path class="fil2" d="M1273.26 1101.88c7.79,3.51 20.58,-2.09 27.43,-6.03 4.42,-2.54 6.72,-4.67 10.21,-8.34 2.09,-2.2 2.49,-2.4 4.07,-5.2 5.22,-9.19 1.32,-16.21 -6.48,-19.44 0,14.46 -1.9,20.15 -11.46,25.61 -16.5,9.44 -18.01,-0.17 -23.77,13.4z"/>
  </g>
 </g>
</svg>
