<?xml version="1.0" encoding="UTF-8"?>
<svg xmlns="http://www.w3.org/2000/svg" viewBox="0 0 100 100" width="100%" height="100%">
    <!-- White background container -->
    <circle cx="50" cy="50" r="48" fill="#FFFFFF" stroke="#DDDDDD" stroke-width="2"/>
    
    <g transform="translate(15, 15) scale(0.7)">
        <path fill="#FF0000" fill-rule="evenodd" d="M 30 10 h 40 a 10 10 0 0 1 10 10 v 60 a 10 10 0 0 1 -10 10 h -40 a 10 10 0 0 1 -10 -10 v -60 a 10 10 0 0 1 10 -10 Z M 26 15 v 60 h 48 v -60 h -14 l -4 6 h -12 l -4 -6 h -14 Z"/>
        <path fill="#FF0000" stroke="#FF0000" stroke-width="4" stroke-linejoin="round" d="M 50 35 L 38 57 L 50 52 L 62 57 Z"/>
    </g>
</svg>
