<?xml version="1.0" encoding="UTF-8"?>
<!DOCTYPE svg PUBLIC "-//W3C//DTD SVG 1.1//EN" "http://www.w3.org/Graphics/SVG/1.1/DTD/svg11.dtd">
<!-- Creator: CorelDRAW -->
<svg xmlns="http://www.w3.org/2000/svg" xml:space="preserve" width="19.05mm" height="19.05mm" version="1.1" style="shape-rendering:geometricPrecision; text-rendering:geometricPrecision; image-rendering:optimizeQuality; fill-rule:evenodd; clip-rule:evenodd"
viewBox="0 0 1905 1905"
 xmlns:xlink="http://www.w3.org/1999/xlink"
 xmlns:xodm="http://www.corel.com/coreldraw/odm/2003">
 <defs>
  <style type="text/css">
   <![CDATA[
    .fil2 {fill:#480090}
    .fil1 {fill:#FEFEFE;fill-rule:nonzero}
    .fil0 {fill:#480090;fill-rule:nonzero}
   ]]>
  </style>
 </defs>
 <g id="Layer_x0020_1">
  <metadata id="CorelCorpID_0Corel-Layer"/>
  <g>
   <path id="path6" class="fil0" d="M926.04 112.08l0 1300.32 -866.88 433.44 866.88 -1733.76 0 0zm52.92 0l866.88 1733.76 -866.88 -433.44 0 -1300.32 0 0zm-26.46 -112.08l-952.5 1905 952.5 -476.25 952.5 476.25 -952.5 -1905z"/>
  </g>
  <polygon id="polygon10" class="fil1" points="952.5,56.05 952.5,56.04 36.04,1871.02 952.91,1408.94 1875.42,1875.42 "/>
  <g id="_2188419335744">
   <path class="fil2" d="M956.29 1134.37c-2.64,0 -7.3,-1.42 -9.21,-2.68l35.62 0.41c-1.83,0.83 -7.02,2.27 -8.97,2.27l-17.44 0zm-46.94 -6.7c0,-5.64 5.11,-9.39 10.73,-9.39 11.13,0 13.92,20.12 -1.34,20.12 -5.59,0 -9.39,-5.17 -9.39,-10.73zm186.43 -8.05c0.6,-7.25 5.61,-13.06 12.07,-14.75l-12.07 14.75zm-287.02 0l-13.06 -15.74c6.37,3.32 11.26,6.67 13.06,15.74zm164.31 -32.19c14.25,0 28.22,2.83 40.12,6.18 13.58,3.82 29.22,11.73 32.97,12.6 -1.13,0.69 1.29,2.13 -4.38,0.56l-12.89 -4.76c-5.44,-1.81 -10.52,-3.5 -17.31,-5.42 -9.48,-2.67 -27.05,-7.82 -38.51,-7.82l0 -1.34zm-118.36 21.1c16.69,-11.27 54.9,-21.1 77.89,-21.1l0 1.34c-15.66,0 -44.72,9.18 -59.97,14.25 -4.79,1.6 -13.84,5.6 -17.92,5.51zm131.41 -61.66c12.95,-7.19 30.53,-11.08 30.53,-37.23 5.32,4.65 0.34,4.8 4.99,11.08 1.99,2.69 46.82,40.72 52.68,50.97 -10.25,-3.97 -46.84,-36.21 -56.33,-40.59 -7.81,5.15 -19.77,15.95 -31.87,15.77zm-127.99 -4.01c6.28,-5.45 10.74,-9.81 17.14,-14.98 18.55,-15 5.88,-14.12 13.43,-17.71 -2.56,7.13 4.1,18.3 7.53,21.97 5.13,5.48 10.3,10.55 18.69,12.37 -7.35,3.99 -24.93,-13.41 -28.37,-13.41 -3.65,0 -54.3,42.28 -61.7,44.26l33.28 -32.5zm122.3 -45.29c-9.11,6.1 -14.88,10.2 -31.1,8.49 -43.78,-4.62 -20.04,-30.41 7.96,-26.99 20.48,2.5 23.14,6.83 23.14,18.5zm34.88 -10.73c0.05,-8.09 1.58,-11.51 6.44,-15.02 10.63,-7.67 86.91,-47.02 100.86,-50.07 -4.36,5.46 -6.99,5.34 -13.43,8.79 -4.51,2.42 -9.16,5.11 -13.74,7.67 -13.32,7.44 -59.32,31.68 -68.85,38.45 -5,3.55 -7.5,7.64 -11.28,10.18zm-125.49 0.06c-7.64,-4.12 -5.12,-8.1 -26.05,-18.85l-56.35 -30.84c-5.76,-2.99 -23.75,-11.89 -26.83,-16.09 17.71,4.12 68.94,32 88.46,43 16.82,9.47 18.67,7.49 20.77,22.78zm-185.68 -88.78l-1.34 4.22c-3.44,-2.33 -2.14,-2.49 -6.71,-4.02l-3.85 2.97c2.27,8.84 12.01,12.91 20.72,16.58 -7.22,0.96 -12.35,-4.39 -18.21,-6.5 0,12.77 2.98,17.43 11.59,22.3 28.64,16.19 32.48,-4.35 73,27.57 12.07,9.5 24.15,20.59 35.77,31.29 10.12,9.31 23.53,25.84 33.59,32.91 14.68,-19.94 -5.32,-31.68 -20.63,-41.82 -8.59,-5.7 -40.41,-24.32 -44.8,-30.31 6.65,1.58 36.34,19.72 43,24.09 42.21,27.7 45.57,33.72 4.97,74.84 -7.48,7.57 -30.23,25.62 -33.66,33.85 15.64,0 24.53,8.09 29.73,19.01 2.54,5.32 3.94,11.84 3.29,18.91 -0.97,10.48 -2.62,11.95 -9.77,15.73 2.73,-12.58 1.61,-22.78 -6.59,-33.58 -3.34,-4.4 -9.26,-8.44 -15.56,-10.03 -14.87,-3.74 -24.82,8.41 -33.68,17.29 8.35,3.51 12.36,2.16 19.28,7.87 5.99,4.94 8.64,10.6 8.38,21.13 -4.92,1.15 -6.92,3.2 -12.07,5.37 -3.38,-14.5 -10.75,-22.81 -26.82,-22.81 -6.63,0 -8.38,2.91 -12.07,5.37 3.27,3.59 15.34,9.98 21.09,15.1 6.49,5.78 10.9,13.81 17.8,18.43 27.68,-14.64 93.21,-46.51 124.74,-48.28 -1.41,1.22 -0.37,0.7 -3.14,2.23 -13.6,7.52 -30.9,12.41 -45.7,17.33 -7.6,2.53 -9.72,4.26 -11.3,12.81 -2.63,14.33 -13.63,67.12 -13.63,80.29 0,4.89 1.34,4.87 1.34,9.39 0,6.32 -3.85,6.62 -5.08,15.06 -2.47,16.95 -3.17,39.51 -9.2,54.21 -1.91,-16.3 4.89,-40.19 4.89,-57.2 -10.4,0.23 -8.54,4.38 -9.74,14.38l-9.04 80.85c0,5.87 7.13,9.39 13.42,9.39 12.87,0 12.46,-11.32 13.87,-22.4 1.51,-11.86 2.56,-22.43 3.67,-33.84 1.07,-10.95 2.85,-21.03 4.08,-32.16 1.15,-10.41 2.86,-22.74 4.68,-32.87 7.47,-41.59 20.22,-76.22 41.69,-106.33 7.67,7.82 7.15,12.45 20.44,17.06 22,7.63 68.42,7.84 90.14,0.17 11.59,-4.09 15.76,-7.24 21.27,-17.64 9.76,10.89 19.22,31.79 25.47,46.95 17.13,41.55 23.75,108.1 28.26,155.52 1.41,14.78 1.38,25.54 16.01,25.54 20.04,0 10.33,-34.96 8.61,-47.5 -1.9,-13.91 -7.23,-43.74 -7.27,-55.78l-9.05 -1.47c2.06,4.97 5.03,43.55 5.03,52.44 -5.42,-8.55 -5.57,-45.99 -11.19,-57.26 -7.38,-14.79 2.44,1.52 -3.64,-35.21l-10.47 -57.98c-3.28,-18.21 -6.14,-14.56 -24.43,-21.14 -10.39,-3.73 -23.8,-9.92 -33.43,-12.16 2.1,-1.54 5.86,-1.29 8.56,-0.67 18.44,4.28 39.01,12.31 55.96,19.34 7.4,3.08 53.89,26.88 57.45,25.74 5.06,-1.64 13.13,-12.85 17.77,-17.31 4.37,-4.2 17.76,-12.05 19.87,-15.03 -9.35,-10 -31.32,-9.31 -37.55,17.44 -3.2,-1.7 -12.07,-4.93 -12.07,-9.39 0,-22.12 19.37,-19.47 28.16,-25.49 -12.16,-8.15 -15.34,-17.43 -29.51,-17.43 -10.2,0 -17.63,6.33 -22.05,12.81 -6.99,10.24 -6.11,14.81 -6.11,30.58 -17.49,-7.47 -10.66,-52.78 24.71,-52.78 -4.76,-10.41 -24.96,-25.04 -33.77,-33.86 -38.21,-38.26 -39.66,-46.47 7.16,-76.67 10.04,-6.47 34.02,-22.4 44.82,-24.94 -6.18,8.44 -54.35,33.55 -68.12,47.23 -9.87,9.81 -7.56,15.32 -1.63,26.54 6.09,-1.62 27.98,-25.93 33.86,-31.85 5.64,-5.68 11.74,-10.32 17.45,-16.1 5.65,-5.71 11.36,-10.42 17.92,-15.62 16.93,-13.43 24.49,-18.43 47.49,-19.6 9.35,-0.48 19.54,-4.83 25.52,-7.98 8.21,-4.32 12.01,-8.76 12.01,-21.51 -5.63,1.43 -6.84,4.27 -14.46,5.69 5.45,-5.48 13.85,-5.53 15.8,-16.42l-2.95 -2.42c-4.64,1.05 -2.55,1.15 -6.44,3.76 -1.06,-2.13 -1.38,2.47 0,-4.02 -5.94,2.85 -8.54,5.66 -16.67,7.49 -12.01,2.71 -27.94,1.16 -37.34,-7.15 -5.79,-5.11 -5.01,-9.41 -5.01,-19.3 -6.75,2.21 -10.73,9.06 -10.73,17.62 0,9.16 10.6,13.95 15.41,18.77 -3.5,-0.73 -6.12,-1.38 -8.97,-2.48 -15.38,-5.94 -3.69,-6.36 -29.03,4.09 -7.95,3.27 -13.61,5.61 -21.01,8.46 -45.79,17.64 -92.21,32.73 -145.66,29 -37.79,-2.65 -62.84,-7.54 -98.6,-19.45l-63.84 -24.81c-11.82,-5.17 -8.37,2.79 -21.16,3.85 4.26,-5.99 13.41,-8.98 13.41,-20.12 0,-6.47 -5.23,-12.68 -10.73,-14.75 0.14,15.03 -2.09,23.03 -20.52,26.47 -16.46,3.08 -27.63,-0.62 -37.15,-7.89z"/>
   <path class="fil2" d="M827.53 1237.65c-0.78,-5.99 -5.56,-10.53 -9.12,-15.01l-33.58 -42.84c-11.71,-14.66 -33.37,-42.05 -53.86,-46.77 0.3,-1.95 0.78,-2.58 0.9,-3.01 0.82,-3.14 1.15,0.09 0.44,-2.35 -9.73,0.81 -10.9,5.97 -17.44,9.42 0.75,-9.13 6.75,-11.82 16.1,-13.45 0,-11.28 -4.16,-24.91 -16.94,-23.56 -5.63,0.59 -10.61,4.14 -12.62,7.45 -2.12,3.47 -6.25,28.88 0.93,35.35 13.28,11.95 13.46,-6.67 25.21,17.65 16.01,33.16 18.56,42.7 46.42,59.61 8.62,5.23 16.53,10.68 25.52,16.06 8,4.78 21.14,15.8 28.04,1.45z"/>
   <path class="fil2" d="M1173.57 1123.64c9.62,0.54 13.77,3.89 15.35,13.42 -6.89,-3.59 -5.99,-7.91 -16.69,-9.39 -0.08,0.17 0.05,0.33 0.06,0.57l0.26 2.49c-0.37,2.26 2.75,-0.17 -2.17,2.95 -2,1.27 -6.72,2.87 -9.34,4.26 -7.12,3.77 -10.9,7.06 -15.97,12.19 -9.56,9.66 -16.76,18.38 -25.62,29.35l-36.21 46.92c-6.17,8.35 -8.68,9.08 -2.09,17.83 16.4,0.46 23.02,-7.59 42.76,-20.01 11.32,-7.12 24.86,-15 32.41,-25.25l19.49 -36.88c1.63,-3.27 2.89,-6.4 4.38,-9.04 2.93,-5.21 2.16,-4.19 9.49,-5.09 19.31,-2.39 16.08,-13.31 16.08,-29.68 0,-20 -31.58,-30.8 -32.19,5.36z"/>
   <path class="fil2" d="M712.19 831.26c7.34,3.57 14.42,3.88 14.52,14.51 -9.63,-6.68 2.26,-1.84 -15.86,-10.4l-0.61 2.76c-1.37,2.78 1.53,0.85 -2.08,2.51 -22.96,1.83 -48.26,27.16 -63.47,39.79l-49.36 41.94c-4.19,4.26 -2.94,7.28 -1.17,9.48 5.5,6.82 23.57,-4.45 35.32,-10.29 18.99,-9.44 63.86,-24.45 71.44,-31.86 6.81,-6.65 10.95,-20.84 18.84,-32.96 9.61,0.58 17.7,2.17 23.02,-5.62 4.05,-5.93 5.89,-46.92 -18.32,-39.89 -10.45,3.03 -9.14,10.25 -12.27,20.03z"/>
   <path class="fil2" d="M1160.16 828.57c0,15.78 -2.6,22.55 7.64,27.3 16.37,7.58 12.18,-10.73 25,15.17 13.26,26.78 10.78,21.38 41.83,33.31l69.04 30.18c7,0 12.99,-5.57 3.22,-13.88l-44.93 -38.32c-15.81,-12.56 -43.56,-41.69 -68.27,-41.69 1.11,-5.68 0.9,-3.67 -0.27,-5.3 -3.61,2.24 -4.73,1.11 -8.84,4.26 -3.14,2.42 -3.75,4.14 -6.95,6.38 0.16,-11.57 6.09,-11.34 14.72,-14.22 -1.92,-4.87 -0.84,-19.69 -14.8,-20.8 -11.77,-0.94 -17.39,7.55 -17.39,17.61z"/>
   <path class="fil2" d="M693.94 1120.96c-1.72,-33.63 37.54,-0.15 -55.85,-93.55 -13.71,-13.7 -19.73,-24.36 -32.74,-21.43 -8.88,1.99 -9.32,7.95 -5.28,15.12l41.16 68.87c3.37,5.63 7.06,12.49 10.56,17.61 11.1,16.2 18.1,0.58 42.15,13.38z"/>
   <path class="fil2" d="M1203.08 1099.5c0,3.41 2.85,4.08 4.88,8.53 1.86,4.07 1.83,7.41 1.83,12.93 6.73,-1.8 5.11,-5.55 20.07,-5.4 9.8,0.09 15.73,0.38 20.4,-5.11l49.06 -81.04c4.73,-7.65 7.1,-8.49 7.03,-19.77 -16.73,-11.21 -23.8,1.67 -38.56,16.43 -11.02,11.03 -64.71,61.16 -64.71,73.43z"/>
   <path class="fil2" d="M1156.14 831.4c0,-9.31 -0.68,-8.55 2.68,-14.9 -26.29,-10.68 -32.56,-17.89 -58.99,-34.89 -9.4,-6.04 -52.32,-34.85 -60.38,-34.85 -4.27,0 -7.63,1.22 -7.98,5.55 -0.44,5.4 11.84,12.7 20.44,19.57 10.75,8.58 20.14,16.14 30.75,24.21 37.52,28.58 20.1,14.25 54,26.42 3.01,1.08 6.59,2.41 9.55,3.89 4.5,2.26 5.02,3.59 9.93,5z"/>
   <path class="fil2" d="M745.84 816.62c3.08,5.91 2.56,6.48 2.56,14.64 3.98,-1.01 12.08,-7.68 37.05,-13.86 8.6,-2.13 11.63,-2.39 18.32,-7.27l42.79 -33.64c5.8,-4.58 25.02,-18.1 26.58,-24.37 -8.47,-12.64 -19.8,-0.92 -39.47,11.52 -10.24,6.47 -19.31,12.18 -28.96,17.96 -19.18,11.49 -35.84,27.2 -58.87,35.02z"/>
   <path class="fil2" d="M973.96 1170.59c-21.44,2.11 -20.91,2.03 -42.36,-0.39 3.76,-1.52 38.52,-1.1 39.4,-0.94 3.12,0.6 1.21,0.22 2.96,1.33zm13.54 -4.89c6.01,-1.49 11.48,-4.02 16.18,-6.78 7.02,-4.12 6.26,-6.77 6.26,-16.5 -4.17,1.1 -8.3,3.79 -12.13,5.33 -3.96,1.59 -9.14,3.05 -13.48,3.93 -20.02,4.06 -58.79,4.08 -77.65,-3.91 -4.04,-1.71 -7.49,-4.17 -12.12,-5.53 0.15,18.46 6.19,15.26 17.61,21.57 7.52,4.16 -4.4,11.25 20.61,15.56 27.83,4.79 69.31,-3.35 54.72,-13.67z"/>
   <path class="fil2" d="M1191.01 1197.41c-11.95,0 -15.3,-3.39 -24.14,-5.36 -2.09,3.11 -3.44,5.83 -5.61,9.14 -2.87,4.39 -5.25,5.1 -6.48,9.63 -0.04,11.08 37.83,27.05 62.51,10.19 7.5,-5.11 9.93,-8.99 9.93,-20.92 -4.45,1.38 -2.18,1.51 -6.7,2.69 0.73,-1.09 19.06,-16.96 6.56,-32.07 -1.78,-2.15 -0.99,-1.82 -3.88,-2.93 0,12.99 -0.16,16.67 -8.58,22.4 -4.46,3.03 -16.08,7.23 -23.61,7.23z"/>
   <path class="fil2" d="M685.36 1204.12c-5.87,-1.39 -4.3,-2.68 -9.38,-4.03 0.75,35.97 62.11,35.46 73.76,10.73 -17.1,-25.6 -8.52,-17.46 -30.08,-13.94 -8.06,1.32 -13.93,-0.23 -19.74,-1.95 -14.21,-4.22 -18.14,-8.57 -18.9,-26.7 -6.46,1.53 -8.5,13.65 -7.51,19.48 1.73,10.16 7.5,10.34 11.85,16.41z"/>
   <path class="fil2" d="M1197.71 894.29c-0.97,-3.88 -8.63,-16.99 -10.73,-20.12 -25.17,0 -25.6,-2.42 -39.97,-15.82 -0.61,8.05 -0.31,17.12 -0.33,25.29 -0.03,10.08 2.34,12.47 9.72,15.72 12.29,5.42 34.94,4.45 41.31,-5.07z"/>
   <path class="fil2" d="M706.82 894.29c4.63,6.92 13.57,8.21 25.53,8.12 13.22,-0.1 17.79,-4.05 25.35,-9.55l0.09 -34.72c-24.44,27.63 -36.4,8.11 -43.54,20.73l-7.43 15.42z"/>
   <path class="fil2" d="M1181.62 1163.88c-13.86,22.36 -13.89,25.13 -3.47,27.6 10.52,2.5 23.72,0.76 32.53,-3.89 12.17,-6.44 8.49,-16.77 8.49,-41.23 -10.05,7.09 -12.02,17.52 -37.55,17.52z"/>
   <path class="fil2" d="M733.65 1188.02c-0.7,-4.81 -4.66,-11.35 -6.91,-15.85 -8.95,-17.88 -16.08,0.45 -36.34,-21.37 -5.9,-6.34 -2.32,-4.24 -6.35,-5.67 4.04,16.53 -5.04,32.87 7.19,41.03 11.53,7.69 28.73,8.61 42.41,1.86z"/>
   <path class="fil2" d="M1077 1225.58c11.62,-10.14 1.03,-36.03 -2.44,-65.95 -1.08,-9.33 -1.18,-8.54 -9.63,-10.5 0,10.4 3.97,26.93 5.87,38.35 1.72,10.32 5.72,27.96 6.2,38.1z"/>
   <path class="fil2" d="M822.17 1214.85c0,4.93 2.71,7.51 5.36,9.39l12.08 -75.11c-11.4,2.04 -8.64,1.29 -12.53,29.1l-4.91 36.62z"/>
   <path class="fil2" d="M720.24 870.15c13.14,0 19.68,-1.14 27.68,-7.19 7.04,-5.31 12.73,-17.71 0.48,-20.97 0,30.94 -28.56,10.63 -28.16,28.16z"/>
   <path class="fil2" d="M1184.3 870.15c-1.08,-12.98 -7.05,-5.26 -17.96,-10.19 -4,-1.8 -5.74,-2.76 -7.96,-6.83 -2.59,-4.75 -1.37,-7.3 -3.58,-10.94 -12.38,7.05 -4.97,27.96 29.5,27.96z"/>
   <path class="fil2" d="M688.05 1138.4c0,13.46 26.55,24.75 30.84,19.73 4.95,-5.78 -17.02,-4.53 -22.45,-16.05 -2.26,-4.81 -1.09,-7.29 -3.09,-11.67 -2.24,1.56 -5.3,4.15 -5.3,7.99z"/>
   <path class="fil2" d="M1184.3 1158.57c5.64,2.54 14.89,-1.51 19.85,-4.36 3.2,-1.84 4.86,-3.38 7.38,-6.03 1.51,-1.59 1.8,-1.74 2.95,-3.76 3.77,-6.65 0.95,-11.73 -4.69,-14.07 0,10.46 -1.38,14.58 -8.29,18.53 -11.94,6.83 -13.03,-0.12 -17.2,9.69z"/>
  </g>
 </g>
</svg>
