<?xml version="1.0" encoding="UTF-8"?>
<!DOCTYPE svg PUBLIC "-//W3C//DTD SVG 1.1//EN" "http://www.w3.org/Graphics/SVG/1.1/DTD/svg11.dtd">
<!-- Creator: CorelDRAW -->
<svg xmlns="http://www.w3.org/2000/svg" xml:space="preserve" width="19.05mm" height="19.05mm" version="1.1" style="shape-rendering:geometricPrecision; text-rendering:geometricPrecision; image-rendering:optimizeQuality; fill-rule:evenodd; clip-rule:evenodd"
viewBox="0 0 1905 1905"
 xmlns:xlink="http://www.w3.org/1999/xlink"
 xmlns:xodm="http://www.corel.com/coreldraw/odm/2003">
 <defs>
  <style type="text/css">
   <![CDATA[
    .fil0 {fill:#2B2A29}
    .fil1 {fill:#480090}
   ]]>
  </style>
 </defs>
 <g id="Layer_x0020_1">
  <metadata id="CorelCorpID_0Corel-Layer"/>
  <path class="fil0" d="M324.04 0l1256.92 0c178.23,0 324.04,145.81 324.04,324.04l0 1256.92c0,178.23 -145.81,324.04 -324.04,324.04l-1256.92 0c-178.23,0 -324.04,-145.81 -324.04,-324.04l0 -1256.92c0,-178.23 145.81,-324.04 324.04,-324.04zm41.71 63.22l1173.5 0c166.4,0 302.53,136.13 302.53,302.53l0 1173.5c0,166.4 -136.13,302.53 -302.53,302.53l-1173.5 0c-166.4,0 -302.53,-136.13 -302.53,-302.53l0 -1173.5c0,-166.4 136.13,-302.53 302.53,-302.53z"/>
  <g id="_2186915968928">
   <path class="fil1" d="M960.13 1111.11c-5,0 -13.81,-2.68 -17.42,-5.07l67.37 0.78c-3.46,1.56 -13.29,4.29 -16.98,4.29l-32.97 0zm-88.79 -12.68c0,-10.67 9.67,-17.76 20.3,-17.76 21.04,0 26.33,38.05 -2.54,38.05 -10.58,0 -17.76,-9.77 -17.76,-20.29zm352.6 -15.22c1.15,-13.71 10.61,-24.7 22.83,-27.9l-22.83 27.9zm-542.85 0l-24.69 -29.77c12.04,6.29 21.29,12.61 24.69,29.77zm310.78 -60.88c26.94,0 53.37,5.36 75.86,11.68 25.7,7.23 55.28,22.18 62.36,23.83 -2.13,1.31 2.44,4.04 -8.28,1.06l-24.38 -8.99c-10.29,-3.43 -19.89,-6.63 -32.73,-10.25 -17.94,-5.05 -51.17,-14.8 -72.83,-14.8l0 -2.53zm-223.86 39.91c31.55,-21.31 103.83,-39.91 147.3,-39.91l0 2.53c-29.61,0 -84.58,17.37 -113.41,26.95 -9.07,3.02 -26.18,10.6 -33.89,10.43zm248.54 -116.63c24.48,-13.6 57.73,-20.95 57.73,-70.41 10.06,8.79 0.65,9.07 9.43,20.95 3.77,5.1 88.57,77.02 99.65,96.41 -19.4,-7.5 -88.59,-68.49 -106.54,-76.77 -14.77,9.73 -37.39,30.17 -60.27,29.82zm-242.09 -7.57c11.89,-10.31 20.33,-18.56 32.43,-28.35 35.08,-28.37 11.12,-26.69 25.39,-33.48 -4.83,13.49 7.77,34.61 14.26,41.55 9.69,10.36 19.47,19.95 35.35,23.39 -13.9,7.55 -47.17,-25.36 -53.67,-25.36 -6.91,0 -102.7,79.97 -116.69,83.71l62.93 -61.46zm231.33 -85.67c-17.24,11.55 -28.16,19.3 -58.83,16.06 -82.81,-8.74 -37.91,-57.51 15.06,-51.05 38.72,4.72 43.77,12.92 43.77,34.99zm65.95 -20.29c0.1,-15.29 2.99,-21.76 12.19,-28.41 20.09,-14.51 164.37,-88.94 190.75,-94.7 -8.24,10.33 -13.21,10.11 -25.39,16.63 -8.54,4.58 -17.33,9.67 -25.99,14.51 -25.2,14.07 -112.2,59.91 -130.21,72.71 -9.46,6.72 -14.19,14.46 -21.35,19.26zm-237.33 0.1c-14.45,-7.78 -9.68,-15.3 -49.28,-35.64l-106.57 -58.32c-10.89,-5.66 -44.92,-22.5 -50.74,-30.44 33.49,7.8 130.39,60.53 167.3,81.32 31.81,17.92 35.32,14.18 39.29,43.08zm-351.18 -167.89l-2.54 7.97c-6.5,-4.41 -4.04,-4.7 -12.68,-7.61l-7.28 5.63c4.28,16.72 22.7,24.41 39.19,31.35 -13.68,1.82 -23.37,-8.3 -34.45,-12.28 0,24.15 5.63,32.96 21.92,42.17 54.17,30.62 61.43,-8.22 138.06,52.13 22.83,17.98 45.68,38.96 67.66,59.19 19.14,17.61 44.51,48.88 63.52,62.24 27.77,-37.71 -10.07,-59.91 -39.01,-79.1 -16.24,-10.77 -76.43,-46 -84.73,-57.32 12.57,2.98 68.73,37.3 81.32,45.56 79.83,52.39 86.2,63.77 9.4,141.54 -14.15,14.33 -57.17,48.46 -63.65,64.03 29.56,0 46.38,15.31 56.22,35.96 4.8,10.05 7.45,22.39 6.22,35.77 -1.83,19.81 -4.96,22.58 -18.48,29.74 5.16,-23.78 3.05,-43.08 -12.46,-63.51 -6.31,-8.31 -17.52,-15.96 -29.42,-18.96 -28.13,-7.08 -46.94,15.9 -63.71,32.69 15.79,6.64 23.38,4.08 36.47,14.89 11.32,9.35 16.33,20.04 15.85,39.96 -9.3,2.17 -13.1,6.05 -22.83,10.15 -6.39,-27.42 -20.33,-43.12 -50.73,-43.12 -12.54,0 -15.84,5.48 -22.84,10.14 6.2,6.8 29.03,18.88 39.9,28.56 12.27,10.92 20.61,26.12 33.67,34.86 52.35,-27.7 176.28,-87.97 235.91,-91.32 -2.65,2.3 -0.69,1.32 -5.92,4.22 -25.73,14.22 -58.45,23.47 -86.44,32.78 -14.37,4.78 -18.39,8.05 -21.37,24.23 -4.99,27.1 -25.79,126.95 -25.79,151.85 0,9.25 2.54,9.21 2.54,17.76 0,11.96 -7.27,12.53 -9.6,28.48 -4.67,32.06 -6.01,74.74 -17.4,102.53 -3.61,-30.83 9.24,-76.01 9.24,-108.18 -19.67,0.44 -16.15,8.29 -18.43,27.2l-17.08 152.9c0,11.11 13.49,17.76 25.37,17.76 24.34,0 23.56,-21.4 26.24,-42.36 2.86,-22.42 4.84,-42.41 6.94,-64 2.02,-20.71 5.38,-39.78 7.72,-60.83 2.18,-19.68 5.4,-43 8.84,-62.15 14.13,-78.67 38.25,-144.17 78.85,-201.12 14.52,14.79 13.53,23.55 38.67,32.27 41.61,14.43 129.39,14.83 170.48,0.31 21.91,-7.73 29.81,-13.68 40.23,-33.36 18.45,20.61 36.35,60.13 48.17,88.8 32.4,78.6 44.92,204.46 53.45,294.15 2.66,27.95 2.61,48.29 30.28,48.29 37.9,0 19.53,-66.1 16.29,-89.83 -3.59,-26.3 -13.68,-82.73 -13.75,-105.49l-17.13 -2.79c3.9,9.4 9.52,82.37 9.52,99.18 -10.25,-16.16 -10.54,-86.97 -21.17,-108.29 -13.95,-27.97 4.62,2.87 -6.88,-66.59l-19.79 -109.67c-6.22,-34.43 -11.62,-27.54 -46.21,-39.97 -19.66,-7.07 -45.01,-18.76 -63.23,-23.01 3.96,-2.9 11.09,-2.44 16.18,-1.26 34.87,8.08 73.79,23.27 105.85,36.58 13.99,5.82 101.91,50.84 108.65,48.67 9.57,-3.08 24.83,-24.3 33.6,-32.74 8.27,-7.94 33.6,-22.79 37.59,-28.42 -17.68,-18.9 -59.24,-17.61 -71.02,32.98 -6.05,-3.2 -22.84,-9.31 -22.84,-17.76 0,-41.83 36.65,-36.81 53.28,-48.19 -23,-15.43 -29.01,-32.98 -55.81,-32.98 -19.31,0 -33.35,11.98 -41.72,24.24 -13.21,19.36 -11.55,28 -11.55,57.83 -33.09,-14.13 -20.16,-99.83 46.73,-99.83 -9.01,-19.69 -47.2,-47.36 -63.86,-64.04 -72.28,-72.37 -75.01,-87.89 13.54,-145 18.99,-12.24 64.34,-42.38 84.76,-47.16 -11.69,15.95 -102.79,63.43 -128.83,89.31 -18.67,18.55 -14.31,28.98 -3.08,50.2 11.51,-3.07 52.92,-49.04 64.04,-60.25 10.66,-10.73 22.19,-19.51 32.99,-30.43 10.69,-10.81 21.5,-19.71 33.9,-29.55 32.03,-25.41 46.32,-34.87 89.82,-37.08 17.68,-0.89 36.96,-9.14 48.26,-15.08 15.54,-8.18 22.71,-16.58 22.71,-40.69 -10.64,2.7 -12.93,8.08 -27.34,10.76 10.32,-10.36 26.2,-10.46 29.88,-31.05l-5.58 -4.57c-8.77,1.97 -4.81,2.17 -12.18,7.1 -2,-4.03 -2.6,4.67 0,-7.61 -11.23,5.41 -16.15,10.72 -31.52,14.18 -22.71,5.12 -52.84,2.19 -70.62,-13.52 -10.95,-9.68 -9.47,-17.8 -9.47,-36.51 -12.78,4.18 -20.29,17.13 -20.29,33.32 0,17.33 20.03,26.39 29.14,35.51 -6.62,-1.38 -11.58,-2.61 -16.98,-4.69 -29.08,-11.23 -6.97,-12.04 -54.9,7.72 -15.04,6.2 -25.75,10.63 -39.74,16.02 -86.6,33.36 -174.4,61.9 -275.49,54.83 -71.46,-5 -118.84,-14.24 -186.47,-36.78l-120.74 -46.92c-22.37,-9.78 -15.85,5.27 -40.03,7.28 8.05,-11.32 25.37,-16.98 25.37,-38.05 0,-12.24 -9.89,-23.98 -20.29,-27.9 0.25,28.43 -3.96,43.55 -38.82,50.07 -31.13,5.82 -52.27,-1.19 -70.26,-14.92z"/>
   <path class="fil1" d="M716.6 1306.44c-1.49,-11.33 -10.53,-19.91 -17.26,-28.39l-63.49 -81.01c-22.17,-27.73 -63.13,-79.54 -101.89,-88.46 0.58,-3.7 1.49,-4.89 1.7,-5.7 1.56,-5.94 2.18,0.17 0.84,-4.45 -18.4,1.53 -20.62,11.3 -32.98,17.82 1.42,-17.27 12.76,-22.36 30.44,-25.43 0,-21.34 -7.86,-47.12 -32.02,-44.57 -10.66,1.12 -20.08,7.83 -23.89,14.09 -3.99,6.56 -11.81,54.63 1.78,66.86 25.11,22.6 25.45,-12.62 47.66,33.38 30.29,62.72 35.12,80.76 87.8,112.74 16.31,9.9 31.26,20.2 48.28,30.38 15.13,9.04 39.98,29.88 53.03,2.74z"/>
   <path class="fil1" d="M1371.07 1090.82c18.2,1.02 26.04,7.36 29.02,25.37 -13.02,-6.79 -11.31,-14.96 -31.55,-17.76 -0.15,0.33 0.09,0.62 0.1,1.09l0.49 4.69c-0.69,4.29 5.22,-0.31 -4.1,5.6 -3.77,2.39 -12.7,5.41 -17.67,8.05 -13.45,7.13 -20.61,13.35 -30.2,23.05 -18.08,18.27 -31.69,34.77 -48.45,55.51l-68.49 88.75c-11.67,15.79 -16.41,17.17 -3.95,33.72 31.03,0.86 43.54,-14.35 80.88,-37.85 21.4,-13.46 47.02,-28.36 61.29,-47.76l36.86 -69.74c3.09,-6.2 5.48,-12.1 8.3,-17.11 5.53,-9.85 4.08,-7.91 17.95,-9.63 36.51,-4.51 30.4,-25.17 30.4,-56.13 0,-37.82 -59.73,-58.25 -60.88,10.15z"/>
   <path class="fil1" d="M498.45 537.82c13.88,6.75 27.27,7.35 27.46,27.46 -18.21,-12.64 4.27,-3.48 -30,-19.68l-1.14 5.23c-2.6,5.24 2.88,1.61 -3.93,4.75 -43.44,3.45 -91.29,51.37 -120.06,75.24l-93.34 79.33c-7.94,8.05 -5.57,13.77 -2.22,17.92 10.39,12.91 44.57,-8.41 66.79,-19.45 35.93,-17.85 120.79,-46.24 135.13,-60.26 12.87,-12.58 20.71,-39.42 35.63,-62.34 18.18,1.09 33.47,4.1 43.53,-10.62 7.67,-11.22 11.14,-88.75 -34.64,-75.46 -19.77,5.74 -17.29,19.4 -23.21,37.88z"/>
   <path class="fil1" d="M1345.71 532.74c0,29.85 -4.92,42.65 14.45,51.63 30.95,14.33 23.04,-20.3 47.29,28.69 25.07,50.65 20.39,40.43 79.09,63.01l130.59 57.07c13.24,0 24.57,-10.52 6.08,-26.25l-84.96 -72.47c-29.91,-23.75 -82.4,-78.84 -129.13,-78.84 2.09,-10.75 1.71,-6.96 -0.5,-10.04 -6.83,4.24 -8.95,2.1 -16.72,8.07 -5.95,4.57 -7.09,7.83 -13.16,12.05 0.31,-21.87 11.52,-21.45 27.85,-26.89 -3.63,-9.2 -1.59,-37.24 -28,-39.34 -22.25,-1.78 -32.88,14.29 -32.88,33.31z"/>
   <path class="fil1" d="M463.94 1085.75c-3.26,-63.61 71,-0.3 -105.64,-176.94 -25.93,-25.92 -37.31,-46.06 -61.92,-40.54 -16.79,3.77 -17.62,15.04 -9.99,28.6l77.85 130.26c6.37,10.64 13.35,23.62 19.98,33.3 20.99,30.64 34.23,1.1 79.72,25.32z"/>
   <path class="fil1" d="M1426.88 1045.16c0,6.44 5.39,7.72 9.23,16.13 3.52,7.7 3.45,14.02 3.45,24.46 12.74,-3.41 9.67,-10.49 37.98,-10.23 18.52,0.18 29.75,0.73 38.57,-9.65l92.8 -153.27c8.94,-14.47 13.41,-16.06 13.3,-37.4 -31.66,-21.2 -45.03,3.17 -72.93,31.07 -20.86,20.86 -122.4,115.67 -122.4,138.89z"/>
   <path class="fil1" d="M1338.1 538.1c0,-17.62 -1.29,-16.17 5.07,-28.19 -49.72,-20.2 -61.58,-33.83 -111.56,-65.98 -17.78,-11.44 -98.96,-65.92 -114.21,-65.92 -8.07,0 -14.42,2.31 -15.09,10.5 -0.83,10.21 22.39,24.01 38.67,37.01 20.32,16.22 38.09,30.52 58.14,45.79 70.97,54.04 38.03,26.94 102.14,49.97 5.7,2.05 12.46,4.55 18.06,7.37 8.51,4.27 9.5,6.77 18.78,9.45z"/>
   <path class="fil1" d="M562.09 510.14c5.82,11.17 4.85,12.25 4.85,27.68 7.51,-1.9 22.85,-14.51 70.07,-26.2 16.27,-4.03 21.99,-4.52 34.65,-13.76l80.93 -63.61c10.97,-8.67 47.32,-34.24 50.26,-46.1 -16,-23.9 -37.43,-1.74 -74.65,21.78 -19.37,12.25 -36.52,23.03 -54.76,33.97 -36.28,21.73 -67.79,51.45 -111.35,66.24z"/>
   <path class="fil1" d="M993.55 1179.6c-40.55,4 -39.56,3.85 -80.12,-0.72 7.11,-2.88 72.84,-2.1 74.51,-1.78 5.9,1.13 2.3,0.41 5.61,2.5zm25.59 -9.24c11.38,-2.82 21.72,-7.59 30.61,-12.82 13.27,-7.8 11.85,-12.81 11.85,-31.21 -7.9,2.09 -15.71,7.16 -22.96,10.07 -7.49,3.01 -17.27,5.78 -25.49,7.45 -37.86,7.68 -111.19,7.72 -146.85,-7.4 -7.65,-3.24 -14.17,-7.89 -22.92,-10.45 0.28,34.9 11.7,28.85 33.29,40.78 14.23,7.87 -8.31,21.29 39,29.43 52.62,9.06 131.07,-6.32 103.47,-25.85z"/>
   <path class="fil1" d="M1404.05 1230.34c-22.59,0 -28.94,-6.43 -45.66,-10.15 -3.95,5.9 -6.5,11.04 -10.6,17.3 -5.43,8.3 -9.93,9.64 -12.26,18.21 -0.08,20.96 71.55,51.16 118.23,19.28 14.18,-9.68 18.78,-17.02 18.78,-39.57 -8.43,2.6 -4.13,2.85 -12.68,5.07 1.38,-2.06 36.05,-32.06 12.41,-60.64 -3.37,-4.07 -1.87,-3.44 -7.34,-5.54 0,24.57 -0.29,31.53 -16.23,42.35 -8.44,5.73 -30.41,13.69 -44.65,13.69z"/>
   <path class="fil1" d="M447.71 1243.02c-11.11,-2.62 -8.14,-5.06 -17.75,-7.61 1.42,68.03 117.48,67.06 139.52,20.29 -32.36,-48.43 -16.13,-33.02 -56.89,-26.36 -15.25,2.49 -26.36,-0.44 -37.34,-3.7 -26.88,-7.97 -34.31,-16.2 -35.76,-50.5 -12.22,2.91 -16.07,25.83 -14.19,36.85 3.27,19.21 14.18,19.55 22.41,31.03z"/>
   <path class="fil1" d="M1416.73 657.04c-1.83,-7.34 -16.33,-32.13 -20.29,-38.05 -47.61,0 -48.42,-4.59 -75.6,-29.93 -1.17,15.22 -0.58,32.38 -0.63,47.83 -0.06,19.06 4.43,23.59 18.38,29.74 23.26,10.25 66.1,8.4 78.14,-9.59z"/>
   <path class="fil1" d="M488.3 657.04c8.76,13.08 25.66,15.52 48.28,15.35 25.01,-0.18 33.65,-7.66 47.95,-18.05l0.16 -65.68c-46.22,52.27 -68.84,15.34 -82.35,39.22l-14.04 29.16z"/>
   <path class="fil1" d="M1386.29 1166.92c-26.22,42.29 -26.26,47.52 -6.55,52.21 19.88,4.72 44.85,1.44 61.51,-7.37 23.03,-12.17 16.07,-31.72 16.07,-77.99 -19.02,13.43 -22.75,33.15 -71.03,33.15z"/>
   <path class="fil1" d="M539.03 1212.58c-1.32,-9.11 -8.8,-21.46 -13.07,-29.98 -16.92,-33.81 -30.4,0.84 -68.73,-40.42 -11.14,-11.99 -4.39,-8.01 -11.99,-10.71 7.64,31.25 -9.55,62.16 13.59,77.59 21.81,14.55 54.33,16.27 80.2,3.52z"/>
   <path class="fil1" d="M1188.43 1283.61c21.97,-19.18 1.94,-68.15 -4.63,-124.73 -2.04,-17.64 -2.23,-16.14 -18.2,-19.86 0,19.67 7.51,50.94 11.1,72.53 3.25,19.52 10.81,52.89 11.73,72.06z"/>
   <path class="fil1" d="M706.46 1263.31c0,9.34 5.12,14.21 10.14,17.76l22.83 -142.05c-21.54,3.85 -16.34,2.45 -23.69,55.03l-9.28 69.26z"/>
   <path class="fil1" d="M513.67 611.38c24.86,0 37.23,-2.16 52.37,-13.59 13.3,-10.05 24.06,-33.49 0.9,-39.68 0,58.52 -54.02,20.11 -53.27,53.27z"/>
   <path class="fil1" d="M1391.37 611.38c-2.05,-24.55 -13.34,-9.94 -33.98,-19.27 -7.56,-3.41 -10.85,-5.22 -15.05,-12.92 -4.89,-8.98 -2.6,-13.81 -6.78,-20.69 -23.41,13.34 -9.38,52.88 55.81,52.88z"/>
   <path class="fil1" d="M452.79 1118.72c0,25.47 50.22,46.81 58.34,37.32 9.36,-10.93 -32.2,-8.57 -42.47,-30.36 -4.28,-9.09 -2.07,-13.78 -5.83,-22.07 -4.24,2.95 -10.04,7.85 -10.04,15.11z"/>
   <path class="fil1" d="M1391.37 1156.88c10.65,4.81 28.15,-2.86 37.53,-8.25 6.05,-3.48 9.19,-6.39 13.96,-11.4 2.86,-3.01 3.41,-3.29 5.58,-7.12 7.14,-12.58 1.81,-22.18 -8.88,-26.61 0,19.79 -2.59,27.57 -15.67,35.05 -22.57,12.91 -24.64,-0.23 -32.52,18.33z"/>
  </g>
 </g>
</svg>
