<svg id="Layer_2" data-name="Layer 2" xmlns="http://www.w3.org/2000/svg" viewBox="0 0 903.4 1030.09"><defs><style>.cls-1{fill:none;stroke:#020202;stroke-miterlimit:10;stroke-width:23px;}</style></defs><title>Accelerometer</title><polyline class="cls-1" points="882.29 264.89 446.2 510.71 446.2 1014.53"/><line class="cls-1" x1="23.12" y1="284.36" x2="446.2" y2="510.71"/><path class="cls-1" d="M502.67,507.81V160.37H437.85a9.3,9.3,0,0,1-7-15.39L528,32.74a10,10,0,0,1,15.05-.05L641,144.45a9.74,9.74,0,0,1-7.75,16.14l-60-2.65,2.36,351.24" transform="translate(-95.16 -17.79)"/><path class="cls-1" d="M541.35,524.17,888.6,708l32.16-55.52a9.6,9.6,0,0,1,17.39,1.68L986.53,794.5a9.45,9.45,0,0,1-7.1,12.35L833.19,835.64a9.79,9.79,0,0,1-10.14-14.89l32.28-50.45-314-176.8" transform="translate(-95.16 -17.79)"/><path class="cls-1" d="M533.26,524.17,200.38,727.48l-34.82-53.73a9.67,9.67,0,0,0-17.4,2.57L107.05,818.19a10,10,0,0,0,8.14,12.63l147.73,21.49A9.44,9.44,0,0,0,272,837.49L236.72,788,541.35,593.5" transform="translate(-95.16 -17.79)"/><path class="cls-1" d="M169,432,117.24,306.89a9.72,9.72,0,0,1,7.34-13.29l127.55-21.88" transform="translate(-95.16 -17.79)"/><path class="cls-1" d="M843.35,256.58l133.48,13.78a10.42,10.42,0,0,1,8.74,13.89L944,400" transform="translate(-95.16 -17.79)"/><path class="cls-1" d="M626,932.53l-76.47,99.87a10.16,10.16,0,0,1-15.58.66L447.46,938" transform="translate(-95.16 -17.79)"/></svg>