<svg id="Layer_2" data-name="Layer 2" xmlns="http://www.w3.org/2000/svg" viewBox="0 0 388.21 442.92"><defs><style>.cls-1{fill:none;stroke:#020202;stroke-miterlimit:10;stroke-width:8px;}</style></defs><title>Accelerometer</title><polyline class="cls-1" points="380.06 113.43 191.73 219.59 191.73 437.16"/><line class="cls-1" x1="9.02" y1="121.84" x2="191.73" y2="219.59"/><path class="cls-1" d="M233.27,263.3v-150h-28a4,4,0,0,1-3-6.65l42-48.47a4.31,4.31,0,0,1,6.5,0L293,106.38a4.2,4.2,0,0,1-3.35,7l-25.9-1.15,1,151.69" transform="translate(-58.25 -52.65)"/><path class="cls-1" d="M250,270.36l150,79.39,13.89-24a4.15,4.15,0,0,1,7.51.73l20.89,60.61a4.08,4.08,0,0,1-3.07,5.33L376,404.87a4.23,4.23,0,0,1-4.38-6.43l13.94-21.79L250,300.31" transform="translate(-58.25 -52.65)"/><path class="cls-1" d="M246.48,270.36l-143.75,87.8-15-23.2a4.18,4.18,0,0,0-7.52,1.11L62.42,397.34a4.3,4.3,0,0,0,3.52,5.45l63.8,9.28a4.07,4.07,0,0,0,3.9-6.4l-15.22-21.36,131.56-84" transform="translate(-58.25 -52.65)"/><path class="cls-1" d="M89.15,230.55l-22.33-54A4.2,4.2,0,0,1,70,170.79l55.09-9.45" transform="translate(-58.25 -52.65)"/><path class="cls-1" d="M380.4,154.8,438,160.75a4.51,4.51,0,0,1,3.78,6l-18,50" transform="translate(-58.25 -52.65)"/><path class="cls-1" d="M286.55,446.72l-33,43.12a4.39,4.39,0,0,1-6.73.29l-37.36-41.05" transform="translate(-58.25 -52.65)"/></svg>