<svg id="Layer_1" enable-background="new 0 0 24 24" height="24" viewBox="0 0 24 24" width="24" xmlns="http://www.w3.org/2000/svg"><g><g><g><path d="m4.9 5.2-.7-.7c1.9-1.9 4.4-2.9 7.1-2.9s5.2 1 7.1 2.9l-.6.6c-1.7-1.7-4-2.7-6.4-2.7-2.5.1-4.9 1-6.5 2.8z"/></g><g><path d="m8.7 21.3c-4.3-1.2-7.4-5.1-7.4-9.6 0-.8.1-1.7.4-2.5l.8.2c-.2.8-.3 1.6-.3 2.3 0 4.1 2.8 7.7 6.8 8.8z"/></g><g><path d="m13.9 21.3-.2-.9c4-1.1 6.7-4.7 6.7-8.8 0-.7-.1-1.5-.3-2.3l.9-.2c.2.9.3 1.7.3 2.5 0 4.5-3 8.5-7.4 9.7z"/></g></g><g><path d="m6.4 5.7h-2.7v-2.7h.9v1.8h1.8z"/></g><g><path d="m7.3 22.4-.4-.8 1.5-.9-.9-1.5.8-.5 1.4 2.3z"/></g><g><path d="m19.5 10.4-.8-.5 1.6-2.3 2.2 1.6-.5.7-1.5-1z"/></g><g><path d="m7.8 15.4h7v-.8c0-1.4-.9-2.6-2.3-2.9l-1-.2.8-.6c.3-.2.5-.6.5-1v-1.2c0-.7-.6-1.2-1.2-1.2h-.6c-.7 0-1.2.5-1.2 1.2v1.3c0 .4.2.7.5 1l.8.6-.9.2c-1.3.3-2.3 1.5-2.3 2.9v.7z"/></g></g></svg>