<svg id="Layer_2" data-name="Layer 2" xmlns="http://www.w3.org/2000/svg" viewBox="0 0 723.66 709.3"><defs><style>.cls-1{fill:none;stroke:#231f20;stroke-miterlimit:10;stroke-width:19px;}</style></defs><title>all_parameter</title><path class="cls-1" d="M360,508.49V724.94H747.71V343.17H515.18c.22,3.24,0-3.29,0,0M504.72,410a36.24,36.24,0,0,1-15.37,69.07s-15-1.17-25.43-10.43A36.24,36.24,0,0,1,504.72,410m93.89,164.67a36.25,36.25,0,1,1,36.26-36.24A36.24,36.24,0,0,1,598.61,574.68Z" transform="translate(-33.55 -25.14)"/><circle class="cls-1" cx="467.35" cy="612.06" r="36.25"/><line class="cls-1" x1="653.22" y1="417.7" x2="492.04" y2="417.7"/><line class="cls-1" x1="419.55" y1="417.7" x2="382.67" y2="417.7"/><line class="cls-1" x1="653.22" y1="513.3" x2="601.32" y2="513.3"/><line class="cls-1" x1="528.81" y1="513.3" x2="382.67" y2="513.3"/><line class="cls-1" x1="653.22" y1="612.06" x2="503.6" y2="612.06"/><line class="cls-1" x1="431.11" y1="612.06" x2="382.67" y2="612.06"/><polyline class="cls-1" points="326.45 483.35 326.45 318.04 481.63 318.04"/><path class="cls-1" d="M515.18,343.17H360V508.49A155.5,155.5,0,1,1,515.18,343.17Z" transform="translate(-33.55 -25.14)"/><path class="cls-1" d="M360,667.85H327.09l-25.22-54.29s-45.18-7.7-88.26-34.32l-49.73,20.32-52.53-52.19,20.31-52.18S109.59,462.62,95.59,408L43.05,387V314.12l53.59-22.76S105,243,132.36,205.2L110.3,154.77l55.33-53.94,48.33,21s46.23-30.47,88.26-35.2l20-52h73.55l23.11,51.48s33.63,4.73,87.74,35.73l49.2-21.72L609.37,153l-21,51.83s24.52,30.12,36.43,85.81l52.53,22.41v28.37" transform="translate(-33.55 -25.14)"/></svg>