<svg id="Layer_2" data-name="Layer 2" xmlns="http://www.w3.org/2000/svg" viewBox="0 0 358.47 351.29"><defs><style>.cls-1{fill:none;stroke:#231f20;stroke-miterlimit:10;stroke-width:6px;}</style></defs><title>all_parameter</title><path class="cls-1" d="M264.65,396.22V504.49H458.58v-191H342.27c.11,1.62,0-1.65,0,0M337,347a18.13,18.13,0,0,1-7.69,34.55s-7.51-.59-12.72-5.22A18.13,18.13,0,0,1,337,347m47,82.37a18.13,18.13,0,1,1,18.14-18.13A18.13,18.13,0,0,1,384,429.33Z" transform="translate(-103.12 -156.2)"/><circle class="cls-1" cx="232.02" cy="304.4" r="18.13"/><line class="cls-1" x1="324.99" y1="207.18" x2="244.37" y2="207.18"/><line class="cls-1" x1="208.11" y1="207.18" x2="189.66" y2="207.18"/><line class="cls-1" x1="324.99" y1="255" x2="299.03" y2="255"/><line class="cls-1" x1="262.76" y1="255" x2="189.66" y2="255"/><line class="cls-1" x1="324.99" y1="304.4" x2="250.15" y2="304.4"/><line class="cls-1" x1="213.89" y1="304.4" x2="189.66" y2="304.4"/><path class="cls-1" d="M264.65,396.22V313.53h77.62" transform="translate(-103.12 -156.2)"/><path class="cls-1" d="M342.27,313.53H264.65v82.69a77.78,77.78,0,1,1,77.62-82.69Z" transform="translate(-103.12 -156.2)"/><path class="cls-1" d="M264.66,475.93H248.19l-12.61-27.15a138.68,138.68,0,0,1-44.15-17.17l-24.87,10.16-26.28-26.1,10.16-26.11s-11-16.29-18.05-43.62l-26.27-10.51V299l26.8-11.38s4.2-24.18,17.87-43.1l-11-25.22,27.68-27,24.18,10.51s23.12-15.24,44.14-17.61l10-26h36.79L294.09,185s16.82,2.37,43.88,17.87L362.58,192l26.81,26.45-10.51,25.93s12.26,15.06,18.22,42.92l26.27,11.21v14.19" transform="translate(-103.12 -156.2)"/></svg>