<svg id="Ñëîé_1" enable-background="new 0 0 5000 5000" height="512" viewBox="0 0 5000 5000" width="512" xmlns="http://www.w3.org/2000/svg"><g><g><path d="m1412.652 1315.749v-143.197-79.421h-65.883-65.885v280.685c0 27.675 22.514 50.189 50.19 50.189h31.389c27.675 0 50.189-22.514 50.189-50.189v-57.963c0-.034 0-.069 0-.104z"/></g><g><path d="m3586.74 1315.846v57.97c0 27.675 22.514 50.189 50.189 50.189h31.387c27.675 0 50.189-22.514 50.189-50.189v-280.685h-65.883-65.883v79.421 143.204c.001.03.001.06.001.09z"/></g><g><path d="m2015.201 1340.616c26.347 2.795 51.898 10.271 75.481 21.792.583.281 1.166.56 1.726.87 21.697 10.829 41.698 25.082 59.006 42.391l48.366 48.365c25.833 25.833 60.178 40.058 96.709 40.058h16.001 374.412 15.999c36.531 0 70.876-14.225 96.71-40.058l48.365-48.366c17.222-17.222 37.11-31.417 58.681-42.226.924-.522 1.878-.998 2.859-1.44 23.357-11.297 48.631-18.623 74.675-21.386l532.021-56.426v-76.374h-410.738c-1.958 0-3.913-.164-5.843-.488-2.931-.492-296.529-49.208-599.937-49.208-309.018 0-596.951 48.697-599.822 49.189-1.966.337-3.961.507-5.956.507h-410.736v76.374z"/></g><g><path d="m1382.033 940.265c0-19.476-15.788-35.264-35.264-35.264s-35.264 15.788-35.264 35.264v112.873h70.527v-112.873z"/></g><g><path d="m3687.887 940.265c0-19.476-15.788-35.264-35.264-35.264s-35.263 15.788-35.263 35.264v112.873h70.527z"/></g><g><path d="m1207.125 886.682h-332.15c-29.546 0-53.583 24.038-53.583 53.583s24.036 53.582 53.583 53.582h332.15c29.546 0 53.583-24.038 53.583-53.582 0-29.545-24.036-53.583-53.583-53.583z"/></g><g><path d="m1818.562 886.682h-332.15c-29.546 0-53.583 24.038-53.583 53.583s24.036 53.582 53.583 53.582h332.15c29.546 0 53.583-24.038 53.583-53.582 0-29.545-24.037-53.583-53.583-53.583z"/></g><g><path d="m4124.417 886.682h-332.152c-29.546 0-53.583 24.038-53.583 53.583s24.036 53.582 53.583 53.582h332.152c29.546 0 53.583-24.038 53.583-53.582 0-29.545-24.036-53.583-53.583-53.583z"/></g><g><path d="m3512.981 886.682h-332.152c-29.546 0-53.583 24.038-53.583 53.583s24.036 53.582 53.583 53.582h332.152c29.546 0 53.583-24.038 53.583-53.582-.001-29.545-24.037-53.583-53.583-53.583z"/></g><g><path d="m2015.201 1340.616c26.347 2.795 51.898 10.271 75.481 21.792.578.283 1.151.582 1.726.87 21.697 10.829 41.698 25.082 59.006 42.391l48.366 48.365c25.833 25.833 60.178 40.058 96.709 40.058h16.001 374.412 15.999c36.531 0 70.876-14.225 96.71-40.058l48.365-48.366c17.222-17.222 37.11-31.417 58.681-42.226.954-.479 1.898-.976 2.859-1.44 23.357-11.297 48.631-18.623 74.675-21.386l532.021-56.426v-76.374h-410.738c-1.958 0-3.913-.164-5.843-.488-2.931-.492-296.529-49.208-599.937-49.208-309.018 0-596.951 48.697-599.822 49.189-1.966.337-3.961.507-5.956.507h-410.736v76.374z"/></g><g><path d="m1331.074 1424.005h31.389c27.675 0 50.189-22.514 50.189-50.189v-57.963-.104-143.197-79.421h-65.883-65.885v280.685c.001 27.675 22.515 50.189 50.19 50.189z"/></g><g><path d="m3404.747 1783.251c167.904 200.953 263.962 453.924 271.791 715.805l208.065.005c-7.836-307.118-119.393-605.065-315.416-842.358z"/></g><g><path d="m2034.306 3566.948c-3.769 8.973-11.078 15.989-20.198 19.386-9.122 3.401-19.237 2.877-27.958-1.44-192.912-95.502-355.891-242.211-471.317-424.264-118.649-187.138-181.364-403.714-181.364-626.312 0-274.742 96.591-540.777 272.315-751.069l-164.439-126.547c-203.817 246.694-315.862 557.712-315.856 877.622 0 526.631 307.631 1014.93 783.725 1243.998 16.924 8.143 24.495 28.118 17.223 45.432l-51.655 122.974 499.423-120.392-289.876-378.485z"/></g><g><path d="m3586.74 1315.846v57.97c0 27.675 22.514 50.189 50.189 50.189h31.387c27.675 0 50.189-22.514 50.189-50.189v-280.685h-65.883-65.883v79.421 143.204.09z"/></g><g><path d="m2347.754 1645.594c0 33.276 27.072 60.348 60.348 60.348h183.189c33.276 0 60.348-27.071 60.348-60.348v-80.976h-303.885z"/></g><g><ellipse cx="3287.009" cy="3294.664" rx="116.464" ry="116.463" transform="matrix(.43 -.903 .903 .43 -1100.533 4846.669)"/></g><g><path d="m2956.4 2769.085-.135.09-471.403 316.172v45.075c0 20.584 22.969 32.835 40.064 21.37l38.887-26.082c14.23-9.544 32.153-12.664 48.393-7.199 22.578 7.598 37.135 28.383 37.135 51.466v947.315h1275.335v-945.949c0-17.129 7.382-33.748 20.955-44.197 18.882-14.536 44.271-15.056 63.449-2.189l40.01 26.835c17.095 11.466 40.064-.786 40.064-21.37v-45.076l-802.145-538.001zm725.423 490.316c0 113.343-78.323 311.079-151.621 458.337-40.97 82.31-84.423 157.301-122.353 211.158-63.722 90.48-98.051 102.084-120.841 102.084-35.287 0-73.346-31.453-123.4-101.98-38.011-53.556-81.408-128.628-122.196-211.387-72.137-146.365-149.219-343.598-149.219-458.212 0-217.701 177.114-394.815 394.815-394.815 217.702 0 394.815 177.114 394.815 394.815z"/></g><g><path d="m2034.754 1406.612-8.671-2.373-133.368 453.454c-3.348 11.384-2.063 23.389 3.618 33.806 5.681 10.418 15.081 17.998 26.462 21.345 4.092 1.205 8.316 1.816 12.551 1.816 19.561 0 37.079-13.118 42.601-31.897l128.111-435.583-4.282-3.858c-19.14-17.252-42.316-29.945-67.022-36.71z"/></g><g><path d="m3106.676 1857.693-133.369-453.454-8.67 2.373c-24.706 6.765-47.883 19.46-67.024 36.711l-4.281 3.86 128.112 435.58c5.523 18.781 23.042 31.897 42.601 31.897 4.239 0 8.462-.611 12.55-1.816 11.384-3.347 20.782-10.928 26.463-21.345 5.683-10.417 6.968-22.424 3.618-33.806z"/></g><g><path d="m2759.162 2473.638v353.845l151.357-101.515v-252.33z"/></g><g><path d="m2962.721 3259.401c0 81.804 53.416 244.715 136.084 415.036 86.805 178.846 161.629 273.922 187.721 285.357 25.833-12.833 100.324-109.398 187.479-287.547 83.402-170.477 137.291-332.528 137.291-412.846 0-178.813-145.474-324.288-324.288-324.288-178.813 0-324.287 145.474-324.287 324.288zm511.278 35.263c0 103.107-83.883 186.99-186.99 186.99s-186.99-83.883-186.99-186.99 83.883-186.992 186.99-186.992 186.99 83.885 186.99 186.992z"/></g></g></svg>