<svg id="Layer_2" data-name="Layer 2" xmlns="http://www.w3.org/2000/svg" viewBox="0 0 428.72 462.61"><defs><style>.cls-1{fill:none;stroke:#231f20;stroke-miterlimit:10;stroke-width:9px;}</style></defs><title>basic_marking</title><path class="cls-1" d="M279.81,165.94H530.5a22.4,22.4,0,0,1,22.4,22.4V565.17a26.11,26.11,0,0,1-26.12,26.12H158.08a24.9,24.9,0,0,1-24.9-24.89V411" transform="translate(-128.68 -133.18)"/><circle class="cls-1" cx="330.56" cy="127.83" r="41.55"/><circle class="cls-1" cx="202.39" cy="364.45" r="41.55"/><polyline class="cls-1" points="4.5 251.16 4.5 4.5 151.13 4.5 105.41 60.47 151.13 114.86 6.69 114.69"/><line class="cls-1" x1="310.91" y1="164.45" x2="289.01" y2="207.04"/><line class="cls-1" x1="278.56" y1="224.38" x2="249.4" y2="278.77"/><line class="cls-1" x1="237.57" y1="297.69" x2="220.54" y2="327.07"/><line class="cls-1" x1="168.63" y1="340.24" x2="135.88" y2="312.38"/><line class="cls-1" x1="117.75" y1="297.69" x2="71.24" y2="257.49"/><line class="cls-1" x1="50.74" y1="245.44" x2="4.5" y2="207.04"/></svg>