<svg id="Layer_2" data-name="Layer 2" xmlns="http://www.w3.org/2000/svg" viewBox="0 0 1318.41 1422.94"><defs><style>.cls-1{fill:none;stroke:#231f20;stroke-miterlimit:10;stroke-width:24px;}</style></defs><title>basic_marking</title><path class="cls-1" d="M736.11,125.77h773.13a69.08,69.08,0,0,1,69.08,69.09V1357a80.54,80.54,0,0,1-80.54,80.54H360.68a76.77,76.77,0,0,1-76.77-76.76V881.56" transform="translate(-271.91 -26.61)"/><circle class="cls-1" cx="1017.56" cy="392.35" r="128.14"/><circle class="cls-1" cx="622.29" cy="1122.09" r="128.14"/><polyline class="cls-1" points="12 772.71 12 12 464.2 12 323.19 184.61 464.2 352.37 18.75 351.81"/><line class="cls-1" x1="956.98" y1="505.28" x2="889.42" y2="636.62"/><line class="cls-1" x1="857.22" y1="690.11" x2="767.26" y2="857.86"/><line class="cls-1" x1="730.79" y1="916.21" x2="678.28" y2="1006.81"/><line class="cls-1" x1="518.19" y1="1047.42" x2="417.17" y2="961.51"/><line class="cls-1" x1="361.25" y1="916.21" x2="217.81" y2="792.22"/><line class="cls-1" x1="154.6" y1="755.05" x2="12" y2="636.62"/></svg>