<svg id="Layer_2" data-name="Layer 2" xmlns="http://www.w3.org/2000/svg" viewBox="0 0 1163.2 1141.67"><defs><style>.cls-1{fill:none;stroke:#231f20;stroke-miterlimit:10;stroke-width:17px;}</style></defs><title>boundary_marking</title><rect class="cls-1" x="8.5" y="8.5" width="1146.2" height="1124.67"/><polyline class="cls-1" points="20.27 8.5 283.66 272.99 459.25 272.99 459.25 537.49 692.61 799.68 1027.62 799.68 1027.62 1027.37 1154.7 1133.17"/><line class="cls-1" x1="516.89" y1="128.93" x2="651.79" y2="128.93"/><line class="cls-1" x1="960.69" y1="128.93" x2="1096.72" y2="128.93"/><line class="cls-1" x1="584.34" y1="114.34" x2="584.34" y2="162.37"/><line class="cls-1" x1="1028.7" y1="114.76" x2="1028.7" y2="161.52"/><rect class="cls-1" x="561.95" y="162.37" width="46.76" height="96.92"/><rect class="cls-1" x="1004.9" y="162.37" width="49.31" height="96.92"/><path class="cls-1" d="M761.82,267.29H653.43v-40h89v20.56A19.46,19.46,0,0,0,761.82,267.29Z" transform="translate(-44.71 -29.24)"/><path class="cls-1" d="M1049.61,227.32v40H939.51a19.47,19.47,0,0,0,19.41-19.41V227.32Z" transform="translate(-44.71 -29.24)"/><path class="cls-1" d="M782.13,295.73C675.58,354.67,684.6,464,684.6,464H639a14.53,14.53,0,0,1-14.52-14.53h0a16.22,16.22,0,0,1,16.22-16.22h16.65C658,325.58,769.05,269.18,769.05,269.18l29.75,60.37H903.38L934,269.18S1047.91,321,1045.64,433.27l19.93-.32a15.54,15.54,0,0,1,15.78,15.53h0A15.54,15.54,0,0,1,1065.82,464h-54.19s25.21-97.14-91.55-167.42" transform="translate(-44.71 -29.24)"/><rect class="cls-1" x="765.14" y="337.51" width="79.49" height="51.86" rx="6.17"/><circle class="cls-1" cx="804.89" cy="363.44" r="12.97"/><path class="cls-1" d="M958.92,209.47v38.41a19.47,19.47,0,0,1-19.41,19.41H761.82a19.46,19.46,0,0,1-19.41-19.41V213.16a40.36,40.36,0,0,1,40.24-40.25H922.36A36.67,36.67,0,0,1,958.92,209.47Z" transform="translate(-44.71 -29.24)"/><rect class="cls-1" x="786.06" y="300.3" width="37.67" height="37.21"/><path class="cls-1" d="M357.7,1022.47s70.75-77.84,114.69-189.64c13.54-34.46,12-73.34-5.85-105.75a120.08,120.08,0,0,0-43.78-45.42c-35.65-21.47-79.91-22-117.32-3.81-25.65,12.5-53.13,33.93-65.48,70.31-8.89,26.21-7.42,54.81,2.8,80.53C259,869.55,303.5,950.53,357.7,1022.47Z" transform="translate(-44.71 -29.24)"/><circle class="cls-1" cx="318.03" cy="744.79" r="54.48"/></svg>