<svg id="Layer_1" enable-background="new 0 0 100 100" viewBox="0 0 100 100" xmlns="http://www.w3.org/2000/svg"><path d="m53.7500038 74.3000031v4.3000031c0 4.5999985-3.7000008 8.3000031-8.2999992 8.3000031s-8.4000015-3.7000122-8.4000015-8.3000107v-4.3000031c-9.6999989 1.5999985-16.5999985 6.0999985-16.5999985 11.3000031 0 6.5999983 11.1000004 11.9000014 24.8999977 11.9000014 13.7000008 0 24.8999977-5.4000015 24.8999977-11.9000015.1000061-5.199997-6.8999977-9.5999985-16.4999962-11.2999954z"/><path d="m77.5500031 21.5-28.7999993-11.8999996v-3.8000002c0-1.8000004-1.5-3.3000002-3.2999992-3.3000002s-3.4000015 1.4999998-3.4000015 3.3000002v72.8000031c0 1.8000031 1.5 3.3000031 3.2999992 3.3000031s3.2999992-1.5 3.2999992-3.3000031v-39l28.7999954-11.8999996c1.1999969-.5 2.0999985-1.7000008 2.0999985-3.1000004.0000077-1.3000041-.7999954-2.6000033-1.9999923-3.1000033z"/></svg>