<svg id="Layer_2" data-name="Layer 2" xmlns="http://www.w3.org/2000/svg" viewBox="0 0 453.77 445.36"><defs><style>.cls-1,.cls-2{fill:none;stroke:#231f20;stroke-miterlimit:10;}.cls-1{stroke-width:6px;}.cls-2{stroke-width:4px;}</style></defs><title>boundary_marking</title><rect class="cls-1" x="3" y="3" width="447.77" height="439.36"/><polyline class="cls-1" points="7.6 3 110.49 106.33 179.09 106.33 179.09 209.65 270.25 312.08 401.12 312.08 401.12 401.03 450.77 442.36"/><line class="cls-2" x1="201.6" y1="50.05" x2="254.3" y2="50.05"/><line class="cls-2" x1="374.98" y1="50.05" x2="428.12" y2="50.05"/><line class="cls-2" x1="227.95" y1="44.35" x2="227.95" y2="63.11"/><line class="cls-2" x1="401.55" y1="44.51" x2="401.55" y2="62.78"/><rect class="cls-2" x="219.21" y="63.11" width="18.27" height="37.86"/><rect class="cls-2" x="392.25" y="63.11" width="19.26" height="37.86"/><path class="cls-2" d="M343.57,187.3H301.23V171.68H336v8A7.6,7.6,0,0,0,343.57,187.3Z" transform="translate(-63.75 -94.62)"/><path class="cls-2" d="M456,171.68V187.3H413a7.6,7.6,0,0,0,7.58-7.59v-8Z" transform="translate(-63.75 -94.62)"/><path class="cls-2" d="M351.51,198.41c-41.63,23-38.1,65.74-38.1,65.74h-17.8a5.68,5.68,0,0,1-5.68-5.67h0a6.34,6.34,0,0,1,6.34-6.34h6.51C303,210.07,346.4,188,346.4,188L358,211.62h40.85l12-23.58s44.5,20.26,43.62,64.1l7.78-.13a6.08,6.08,0,0,1,6.17,6.07h0a6.07,6.07,0,0,1-6.07,6.07H441.16s9.85-37.95-35.76-65.4" transform="translate(-63.75 -94.62)"/><rect class="cls-2" x="298.59" y="131.53" width="31.05" height="20.26" rx="6.17"/><circle class="cls-2" cx="314.11" cy="141.66" r="5.06"/><path class="cls-2" d="M420.57,164.71v15A7.6,7.6,0,0,1,413,187.3H343.57a7.6,7.6,0,0,1-7.58-7.59V166.15a15.77,15.77,0,0,1,15.72-15.72h54.58A14.33,14.33,0,0,1,420.57,164.71Z" transform="translate(-63.75 -94.62)"/><rect class="cls-2" x="306.76" y="116.99" width="14.72" height="14.54"/><path class="cls-1" d="M185.7,482.31s27.64-30.41,44.81-74.08a48.68,48.68,0,0,0-2.29-41.31,46.87,46.87,0,0,0-17.1-17.75c-13.93-8.38-31.22-8.6-45.83-1.48-10,4.88-20.76,13.25-25.58,27.46a45.61,45.61,0,0,0,1.09,31.46C147.14,422.57,164.53,454.21,185.7,482.31Z" transform="translate(-63.75 -94.62)"/><circle class="cls-1" cx="123.92" cy="290.64" r="21.28"/></svg>