<svg id="Layer_1" enable-background="new 0 0 64 64" viewBox="0 0 64 64" xmlns="http://www.w3.org/2000/svg"><g><path d="m32.4 31.9h-3.7c-1 0-1.9-.6-2.3-1.5l-1.4-3.1c-.1-.2-.3-.3-.5-.3h-9.5c-.2 0-.4.1-.5.3l-1.5 3.1c-.4.9-1.3 1.5-2.3 1.5h-3.7c-1.1 0-2 .9-2 2v20.1c0 1.1.9 2 2 2h25.4c1.1 0 2-.9 2-2v-20.2c-.1-1.1-.9-1.9-2-1.9zm-12.7 20.2c-5 0-9-4-9-9s4-9 9-9 9 4 9 9-4.1 9-9 9zm9-16c-.9 0-1.6-.7-1.6-1.6s.7-1.6 1.6-1.6 1.6.7 1.6 1.6-.8 1.6-1.6 1.6z"/><circle cx="19.7" cy="43.1" r="7"/><path d="m56.3 9.9h-1.5c-.4 0-.7.1-1.1.2l-7.4 3.2v-1.3c0-2.2-1.8-4-4-4h-30c-2.2 0-4 1.8-4 4v17.8h2c.3 0 .7 0 .9-.3 0 0 1.4-3.1 1.4-3.1.5-.8 1.4-1.4 2.4-1.4h9.4c1 0 1.9.6 2.3 1.5l1.4 3.1c.1.2.3.3.5.3h3.7c2.2 0 4 1.8 4 4v4.3 2h6.1c2.2 0 4-1.8 4-4v-1.3l7.3 3.2c.3.1.7.2 1.1.2h1.5c1.5 0 2.7-1.2 2.7-2.7v-23c0-1.5-1.2-2.7-2.7-2.7zm-21 7.2c0-1.6 1.3-2.9 2.9-2.9s2.9 1.3 2.9 2.9-1.3 2.9-2.9 2.9-2.9-1.3-2.9-2.9z"/></g></svg>