<svg id="Layer_1" enable-background="new 0 0 38 38" height="512" viewBox="0 0 38 38" width="512" xmlns="http://www.w3.org/2000/svg"><g id="_x33_0"><path d="m14.1287127 8.465517c-.9958858.6526747-2.7861967 1.8393078-3.9585161 1.7971115l-.5721026-.4014806c.111598-.4489574 1.7278395-1.0556879 3.2453165-1.6534624.8138533-.3181314.4544525-.2625709 1.2262936-.0128078.1449489.0538644.1757335.1949777.0590086.2706393z" fill="#4c5c75"/><path d="m13.8324013 8.1076441c-.2103701.0795288-.5028372.1860065-.6298265.2360191-1.5174694.5977583-3.1337194 1.2044888-3.2453165 1.6534462l.3758402.2642355c-.0551567.0025673-.1103134.0025673-.1629019.0012836l-.5721026-.4014806c.1292229-.5198631 2.3850784-1.3035593 3.7494297-1.8535604.1566496-.0626445.2832498.0398168.4848776.1000566z" fill="#7f8eb2" opacity=".4"/><path d="m14.0697041 8.1948776-.0371971-.0141239c-.0102634.0243797-.0307837.0487595-.0602922.0667048-.9967413.6530952-2.7861872 1.8393078-3.9585161 1.7971115l-.067503-.0473661v.1082306l.2240009.1571941c1.1634207.0418758 2.9218521-1.1177111 3.9585161-1.7971115.1167249-.0756617.0859403-.216775-.0590086-.2706395z" fill="#31445b"/><path d="m14.1287127 8.465517c-.0744009.0487595-.1500854.0974884-.2244787.1462488-.1037207-.0395594-.8066645-.307662-.7029438-.2681026l-.3578796-.1359777c.1706057-.0666885.3386431-.1333933.5041132-.200098.1566496-.0626445.2832499.0398169.4848776.1000566l.2001057.0731096.0371971.0141239c.1449488.0538645.1757334.1949778.0590085.2706394z" fill="#e9e7fc"/><path d="m13.8324013 8.1076441c-.2103701.0795288-.5028372.1860065-.6298265.2360191h-.0012846l-.3578796-.1359777c.1706057-.0666885.3386431-.1333933.5041132-.200098.1566495-.0626445.2832497.0398168.4848775.1000566z" fill="#f8f9fe"/><path d="m14.1287127 8.465517c-.0744009.0487595-.1500854.0974884-.2244787.1462488l-.3104277-.1180172c.3682785-.2393751.4137316-.253685.4387007-.312995l.0371971.0141239c.1449489.0538646.1757335.1949779.0590086.2706395z" fill="#d0cef2"/><path d="m23.8712883 8.465517c.9958839.6526747 2.7861958 1.8393078 3.9585152 1.7971115l.5721016-.4014807c-.129221-.5198631-2.3850765-1.3035593-3.7494297-1.8535604-.1670685-.0668111-.2842789.0455885-.7221794.1872902-.144949.0538645-.1757336.1949778-.0590077.2706394z" fill="#4c5c75"/><path d="m24.1675987 8.1076441c.210371.0795288.5028381.1860065.6298275.2360191 1.5174675.5977583 3.1337185 1.2044888 3.2453156 1.6534462l-.3758411.2642355c.0551567.0025673.1103134.0025673.1629028.0012836l.5721016-.4014807c-.129221-.5198631-2.3850765-1.3035593-3.7494297-1.8535604-.1566487-.0626444-.2832489.0398169-.4848767.1000567z" fill="#7f8eb2" opacity=".4"/><path d="m23.9302959 8.1948776.0371971-.0141239c.0102634.0243797.0307846.0487595.0602913.0667048.9967422.6530952 2.7861881 1.8393078 3.9585171 1.7971115l.067503-.0473661v.1082306l-.2240009.1571941c-1.1634216.0418758-2.9218521-1.1177111-3.9585152-1.7971115-.1167259-.0756617-.0859413-.216775.0590076-.2706395z" fill="#31445b"/><path d="m23.8712883 8.465517c.0743999.0487595.1500854.0974884.2244778.1462488.1037369-.0395174 1.1645508-.4436226 1.0608234-.4040804-.1706047-.0666885-.338644-.1333933-.5041142-.200098-.1566486-.0626445-.2832489.0398169-.4848766.1000566l-.2001057.0731096-.0371971.0141239c-.1449489.0538646-.1757335.1949779-.0590076.2706395z" fill="#e9e7fc"/><path d="m23.8712883 8.465517c.0743999.0487595.1500854.0974884.2244778.1462488l.3104267-.1180172c-.3682785-.2393751-.4137306-.253685-.4386997-.312995l-.0371971.0141239c-.144949.0538646-.1757336.1949779-.0590077.2706395z" fill="#d0cef2"/><path d="m27.3880749 9.4476395c-.3660583-.1349382-.7425137-.304554-1.1269855-.5122137.5953616.2236127.8983421.3954496 1.1269855.5122137z" fill="#fff"/><path d="m25.6229477 25.8114471-3.092371-1.3582516.3692284-1.6110516s.9615612-.1354656 1.0154095-.1138878c.0538464.0215778 1.400034.6215916 1.400034.6215916s1.0461807.6082897 1.2308006.7387714.5130672.3283062.5219231.4832458c.0088577.1549416-.1060333.77034-.2562847 1.0011158-.1502515.2307741-1.1887399.2384664-1.1887399.2384664z" fill="#31445b"/><path d="m22.9002571 21.7342129v1.1082993l3.9110622 1.9843864.7427006-.7388554c-.1010971-.0590496-4.7402668-2.7686901-4.447237-2.597538z" fill="#4c5c75"/><path d="m22.9002571 21.7342129v.8132648l.9451466.7745819.6313381-1.0311279-1.3699589-.8004265z" fill="#111d33" opacity=".5"/><path d="m27.9938641 25.4525509c0 .2655201.2714443 1.265625 2.0359116.8638077 1.0971584-.249855 1.9697475-.1938496 2.0363407-.8638077.0263901-.2654934-.9115372-.4823093-2.036787-.4823093-1.1239205-.0000001-2.0354653.2155075-2.0354653.4823093z" fill="#4c5c75"/><path d="m27.9938641 25.4485035-.0004292 1.5494976c0 1.0215073 4.0726814 1.0215073 4.0726814 0l-.0014305-1.5625153c0 .8665181-4.0708217.8795376-4.0708217.0130177z" fill="#31445b"/><path d="m31.2328358 25.9733734c.4873753-.1070404.8318424-.2862053.8318424-.5378971l.0014343 1.5625172c0 .2969303-.3451271.5069256-.8332767.6312218z" fill="#1d2943"/><path d="m29.5927238 26.0792389c.4078999.0241451.840189.012167 1.2274361-.0361557v1.6666317c-.3872948.0554142-.8195667.0678482-1.2274361.0378456z" fill="#1d2943"/><path d="m27.9938622 25.4485035c0 .2741165.4071732.4600754.9639835.5588799v1.6530857c-.5570545-.1185818-.9644146-.3393478-.9644146-.6624756z" fill="#1d2943"/><path d="m28.3234291 24.0784149v1.1293221c0 .7394028 3.412693.7394028 3.412693 0v-1.1248341c-.8128147.1277218-2.5707245.223196-3.412693-.004488z" fill="#b0b8cf"/><path d="m29.8231983 24.2157192c.2461109-.0003757.4954624-.0077038.7352085-.0201988v1.5418491c-.2369747.0225487-.4889793.0293446-.7352085.0207005z" fill="#9ea9c9"/><path d="m29.2717896 24.2032242v1.5067749c-.5369263-.0783234-.9483585-.245554-.9483585-.5022583v-1.1293297c.2510585.0678806.5838775.1067123.9483585.1248131z" fill="#9ea9c9"/><path d="m31.3735352 24.1304913c.1339722-.0149059.2566166-.030941.3625851-.0475864v1.124836c0 .1492558-.1405659.267868-.3625851.3568707z" fill="#9ea9c9"/><path d="m28.3237896 24.0890827c0 .192194.7638264.3481846 1.7056122.3481846.9428997 0 1.7067204-.1559906 1.7067204-.3481846 0-.193121-.7638206-.3491116-1.7067204-.3491116-.9417858.0000001-1.7056122.1559907-1.7056122.3491116z" fill="#e3e7f0"/><path d="m31.118412 23.1953259-.0375443.61413c-.0005646.0092545-.006382.0171566-.0171032.021841-.1697578.074173-1.4729023.6323051-1.4729023.6323051-.0732059.0295181-.1634674-.019762-.1467342-.0801125l.0391884-.6135616s.8757401-.4533653.8867016-.4611645c.0109596-.0078011.613802-.1101322.613802-.1101322z" fill="#31445b"/><path d="m34.9285088 21.4588318c-.9958839.6526756-2.7861977 1.8393097-3.9585171 1.7971134l-.5721016-.4014816c.1115971-.4489574 1.7278385-1.055687 3.2453175-1.6534615.8138542-.3181324.4544525-.2625713 1.2262917-.0128078.1449508.0538635.1757354.1949768.0590095.2706375z" fill="#4c5c75"/><path d="m34.6321983 21.1009598c-.2103729.0795288-.5028381.1860065-.6298294.2360191-1.5174675.5977592-3.1337166 1.2044888-3.2453156 1.6534462l.3758411.2642365c-.0551567.0025673-.1103134.0025673-.1629028.0012836l-.5721016-.4014816c.1292229-.5198631 2.3850765-1.3035583 3.7494297-1.8535595.1566506-.062645.283249.0398159.4848786.1000557z" fill="#7f8eb2" opacity=".4"/><path d="m34.8694992 21.1881943-.0371971-.0141239c-.0102615.0243797-.0307846.0487595-.0602913.0667038-.9967422.6530952-2.7861881 1.8393078-3.9585152 1.7971115l-.0675049-.0473671v.1082325l.2240009.1571941c1.1634235.0418758 2.921854-1.117712 3.9585171-1.7971134.116726-.0756607.0859414-.216774-.0590095-.2706375z" fill="#31445b"/><g><path d="m29.8129635 23.8177986-.3732796 1.1775417c-.0513058.1962624-.2334518.3566036-.4874382.4271603l-2.4577141.6926632c-1.007513.2630234-1.0755234.355875-1.2532349.2847633l-.9248543-.3732643c-.1539211-.0615692-.1770096-.2167892-.0436077-.2924671.1016769-.0580444 3.5104523-2.0040188 3.3030396-1.8856125.1167259-.0667057.2565479-.1064777.4053402-.1193008.4271545-.0346375.7083073-.0815868.9892273-.2893906z" fill="#4c5c75"/><path d="m29.8129635 23.8177986-.0333519.1077442-.5313168-.3641128c-.6873341.5084381-1.0602989.2901058-1.4479408.511631-.1016769.0580444-3.5104523 2.0040188-3.3030415 1.8856125-.0487442.0282173-.0769691.0654221-.0846653.1064777l-.0962048-.0384884c-.1539211-.0615692-.1770096-.2167892-.0436077-.2924671.1016769-.0580444 3.5104523-2.0040188 3.3030396-1.8856125.1167259-.0667057.2565479-.1064777.4053402-.1193008.4271545-.0346375.7083073-.0815868.9892273-.2893906z" fill="#7f8eb2" opacity=".4"/><path d="m29.8129635 23.8177986-.3732796 1.1775417c-.0513058.1962624-.2334518.3566036-.4874382.4271603l-2.4577141.6926632c-1.007513.2630234-1.0755234.355875-1.2532349.2847633l-.9248543-.3732643c-.116724-.0461922-.157774-.1475182-.1128731-.2257614.6615696.2470036.7624149.3583412.9415226.3091259.1012993-.0285759 3.7355728-1.0538273 3.5057144-.9889812.2539787-.0705566.4361248-.2308998.4874382-.427145l.327095-1.0338764z" fill="#31445b"/><path d="m26.4945316 26.1151638c-1.007513.2630234-1.0755234.355875-1.2532349.2847633-.1029263-.0415821-.9315758-.376358-.8286495-.3347759l-.0962048-.0384884c-.1539211-.0615692-.1770096-.2167892-.0436077-.2924671l.483593-.2757912c.1038303.0392685 1.2570076.4754028 1.1531773.4361324.1038628.0391846.6887722.2598572.5849266.2206269z" fill="#dedffb"/><path d="m26.4945316 26.1151638c-1.007513.2630234-1.0755234.355875-1.2532349.2847633l-.4053402-.1629105 1.0736485-.3424797c.1038647.039177.6887913.2598038.5849266.2206269z" fill="#d0cef2"/></g><g><path d="m29.8129635 23.8177986-.3732796 1.1775417c-.0513058.1962624-.2334518.3566036-.4874382.4271603l-2.4577141.6926632c-1.007513.2630234-1.0755234.355875-1.2532349.2847633l-.9248543-.3732643c-.1539211-.0615692-.1770096-.2167892-.0436077-.2924671.1016769-.0580444 3.5104523-2.0040188 3.3030396-1.8856125.1167259-.0667057.2565479-.1064777.4053402-.1193008.4271545-.0346375.6971798-.0776405.9780998-.2854424z" fill="#4c5c75"/><path d="m29.8129635 23.8177986-.0333519.1077442-.5313168-.3641128c-.6873341.5084381-1.0602989.2901058-1.4479408.511631-.1016769.0580444-3.5104523 2.0040188-3.3030415 1.8856125-.0487442.0282173-.0769691.0654221-.0846653.1064777l-.0962048-.0384884c-.1539211-.0615692-.1770096-.2167892-.0436077-.2924671.1016769-.0580444 3.5104523-2.0040188 3.3030396-1.8856125.1167259-.0667057.2565479-.1064777.4053402-.1193008.4271545-.0346375.6971798-.0776405.9780998-.2854424z" fill="#7f8eb2" opacity=".4"/><path d="m29.8129635 23.8177986-.3732796 1.1775417c-.0513058.1962624-.2334518.3566036-.4874382.4271603l-2.4577141.6926632c-1.007513.2630234-1.0755234.355875-1.2532349.2847633l-.9248543-.3732643c-.116724-.0461922-.157774-.1475182-.1128731-.2257614.6615696.2470036.7624149.3583412.9415226.3091259.1012993-.0285759 3.7355728-1.0538273 3.5057144-.9889812.2539787-.0705566.4361248-.2308998.4874382-.427145l.327095-1.0338764z" fill="#31445b"/><path d="m34.9285088 21.4588318c-.9958839.6526756-2.7861977 1.8393097-3.9585171 1.7971134l-.5721016-.4014816c.1115971-.4489574 1.7278385-1.055687 3.2453175-1.6534615.8138542-.3181324.4544525-.2625713 1.2262917-.0128078.1449508.0538635.1757354.1949768.0590095.2706375z" fill="#4c5c75"/><path d="m34.6321983 21.1009598c-.2103729.0795288-.5028381.1860065-.6298294.2360191-1.5174675.5977592-3.1337166 1.2044888-3.2453156 1.6534462l.3758411.2642365c-.0551567.0025673-.1103134.0025673-.1629028.0012836l-.5721016-.4014816c.1292229-.5198631 2.3850765-1.3035583 3.7494297-1.8535595.1566506-.062645.283249.0398159.4848786.1000557z" fill="#7f8eb2" opacity=".4"/><path d="m34.8694992 21.1881943-.0371971-.0141239c-.0102615.0243797-.0307846.0487595-.0602913.0667038-.9967422.6530952-2.7861881 1.8393078-3.9585152 1.7971115l-.0675049-.0473671v.1082325l.2240009.1571941c1.1634235.0418758 2.921854-1.117712 3.9585171-1.7971134.116726-.0756607.0859414-.216774-.0590095-.2706375z" fill="#31445b"/><path d="m26.4945316 26.1151638c-1.007513.2630234-1.0755234.355875-1.2532349.2847633-.1029263-.0415821-.9315758-.376358-.8286495-.3347759l-.0962048-.0384884c-.1539211-.0615692-.1770096-.2167892-.0436077-.2924671l.483593-.2757912c.1038303.0392685 1.2570076.4754028 1.1531773.4361324.1038628.0391846.6887722.2598572.5849266.2206269z" fill="#dedffb"/><path d="m26.4945316 26.1151638c-1.007513.2630234-1.0755234.355875-1.2532349.2847633l-.4053402-.1629105 1.0736485-.3424797c.1038647.039177.6887913.2598038.5849266.2206269z" fill="#d0cef2"/><path d="m34.9285088 21.4588318c-.0744019.0487614-.1500854.0974903-.2244797.1462498-.1037216-.0395584-.8066635-.3076611-.7029419-.2681026l-.3578796-.1359768c.1706047-.0666885.3386421-.1333942.5041122-.200098.1566505-.062645.2832489.0398159.4848785.1000557l.2001038.0731106.0371971.0141239c.1449509.0538634.1757355.1949767.0590096.2706374z" fill="#e9e7fc"/><path d="m34.6321983 21.1009598c-.2103729.0795288-.5028381.1860065-.6298294.2360191h-.0012817l-.3578796-.1359768c.1706047-.0666885.3386421-.1333942.5041122-.200098.1566505-.062645.2832489.0398159.4848785.1000557z" fill="#e9e7fc"/><path d="m34.9285088 21.4588318c-.0744019.0487614-.1500854.0974903-.2244797.1462498l-.3104248-.1180172c.3682785-.2393742.4137306-.253685.4386978-.312994l.0371971.0141239c.1449509.0538635.1757355.1949768.0590096.2706375z" fill="#d0cef2"/></g><path d="m28.9519424 23.5632668.723465.2975883c.0294991.0128231.0654202.0128231.0936375 0l1.3096733-.6105843c.0564404-.0269318.0525894-.0885162-.0076962-.1141644l-.6605453-.2843513c-.0082417-.0035477-.0175667-.0036125-.025856-.0001831l-1.4378052.5949612c-.0602932.0256653-.0577259.0910702.0051269.1167336z" fill="#4c5c75"/><g><g><path d="m30.4192848 23.2583714c.2490158 0 .2460709-.2408886 0-.2408886-.2460823 0-.2489929.2408886 0 .2408886z" fill="#111d33"/><path d="m30.2717648 23.1383343c0 .1078892.2950268.1079636.2950268 0 0-.045435-.0654202-.0823517-.1475182-.0823517-.0820961 0-.1475086.0369167-.1475086.0823517z" fill="#fff"/><path d="m30.2718315 23.1379738c0 .0064049.0012836.012825.0038509.0192451.0333061-.0847988.2538929-.0851383.2873306 0 .0025692-.0064201.0038452-.0128403.0038452-.0192451 0-.0448914-.0654125-.0820961-.1475105-.0820961-.082096 0-.1475162.0372047-.1475162.0820961z" fill="#dedffb"/></g><g><path d="m29.5102406 23.7020359c.2490139 0 .2460709-.2408886 0-.2408886-.2460843 0-.248993.2408886 0 .2408886z" fill="#111d33"/><path d="m29.3627186 23.5819988c0 .1078873.2950268.1079636.2950268 0 0-.045435-.0654202-.0823517-.1475163-.0823517-.082098 0-.1475105.0369168-.1475105.0823517z" fill="#fff"/><path d="m29.3627853 23.5816383c0 .0064049.0012836.012825.0038509.0192451.0333061-.0847988.2538929-.0851383.2873325 0 .0025673-.0064201.0038433-.0128403.0038433-.0192451 0-.0448933-.0654125-.0820961-.1475086-.0820961-.0820979 0-.1475181.0372029-.1475181.0820961z" fill="#dedffb"/></g><g><path d="m29.9694157 23.527813c.3533993 0 .3492203-.3418655 0-.3418655-.3492375-.0000001-.3533669.3418655 0 .3418655z" fill="#111d33"/><path d="m29.7600555 23.3574562c0 .0634594.0928326.1158504.2093449.1158504.1165104 0 .2093544-.0523911.2093544-.1158504 0-.0644798-.092844-.1168709-.2093544-.1168709-.1165123 0-.2093449.0523911-.2093449.1168709z" fill="#fff"/><path d="m29.7601509 23.3569469c0 .0090885.0018215.0181999.0054665.0273113.0473843-.1206474.3603191-.1208267.4077759 0 .0036449-.0091114.005455-.0182228.005455-.0273113 0-.0637112-.0928326-.1165123-.209343-.1165123s-.2093544.0528012-.2093544.1165123z" fill="#dedffb"/></g></g><path d="m22.0254307 13.0551434c.0021458.1006708.034214 1.6053152.0320683 1.5046444 0 0 .5015545.3501844.5733871.3668756.0718327.015377 1.1390686-.0718403 1.7124462-.3668756.5733871-.2950191 1.2339897-.486145 1.266058-.5169296.0320683-.0320683.6606121-.3117113.6606121-.3117113s.9966869-.1667614 1.0197754-.2385864c.0243721-.071825-.368145-1.0364437-.368145-1.0364437-.1009312.0123481-5.22192.6388768-4.8962021.5990266z" fill="#4c5c75"/><path d="m22.0254307 13.0551434.0282249 1.3276424 1.4809914-.2418222.4708824-1.3283873z" fill="#111d33" opacity=".5"/><path d="m27.3458748 12.8657618-4.5633965 1.5189685v1.6166468l5.2083073-1.8874149-.1433468-.995472" fill="#31445b"/><path d="m26.8847656 12.4213524c0 .2655191.2421436 1.265624 1.8161392.8638058.9787216-.2498541 1.7571144-.1938486 1.8165207-.8638058.0235405-.2654953-.813139-.4823093-1.8169193-.4823093-1.0025959-.0000001-1.8157406.2155055-1.8157406.4823093z" fill="#4c5c75"/><path d="m26.8847656 12.417304-.0003815 1.5494986c0 1.0215054 3.6330414 1.0215054 3.6330414 0l-.0012779-1.5625162c0 .866519-3.631382.8795366-3.631382.0130176z" fill="#1d2943"/><g fill="#31445b"><path d="m29.9753819 12.8842154c.3250523-.1093893.5407619-.2691984.5407619-.479929l.001276 1.5625181c0 .2486858-.2162418.4363356-.542038.56392v-1.6465091z"/><path d="m28.1672707 13.0365086c.3611679.0341825.7531605.0312071 1.1116505-.008831v1.66887c-.35853.0455971-.7505054.0474443-1.1116505.0056057z"/><path d="m26.8847637 12.4173136c0 .2260914.2474957.3919916.6128292.4986572v1.6413422c-.3655605-.1272869-.6132126-.3239403-.6132126-.5905085z"/></g><path d="m27.1787548 11.0472155v1.1293221c0 .7394028 3.0442982.7394028 3.0442982 0v-1.1248341c-.7250729.1277227-2.2932186.223196-3.0442982-.004488z" fill="#b0b8cf"/><path d="m29.4184208 11.1473255c.3118305-.0245209.5942287-.0585623.8046303-.0956259v1.124835c0 .2491722-.3462143.4139919-.8046303.4952278z" fill="#9ea9c9"/><path d="m28.2820301 11.1818676c.2449837.0055752.4989147.0013313.7452927-.0101624v1.5474081c-.2457905.0175686-.5029793.01439-.7452927-.0082054z" fill="#9ea9c9"/><path d="m27.7286015 11.1478424v1.465765c-.3254204-.0916796-.5498447-.2368803-.5498447-.4370728v-1.1293287c.1534442.046505.3424262.0786829.5498447.1006365z" fill="#9ea9c9"/><path d="m27.1790752 11.0578842c0 .1921921.6813736.3481836 1.5214958.3481836.841114 0 1.5224819-.1559916 1.5224819-.3481836 0-.1931219-.6813679-.3491135-1.5224819-.3491135-.8401222.0000001-1.5214958.1559916-1.5214958.3491135z" fill="#e3e7f0"/><path d="m27.6640148 10.1714725.0375423.61413c.0005665.0092535.0063839.0171566.0171032.0218401.1697578.0741739 1.4729042.6323061 1.4729042.6323061.073204.0295181.1634674-.019763.1467323-.0801134l-.0391884-.6135607s-.8757401-.4533653-.8866997-.4611654c-.0109615-.0078011-.613802-.1101322-.613802-.1101322z" fill="#31445b"/><path d="m29.8304825 10.5394135-.7234631.2975874c-.029501.0128241-.0654221.0128241-.0936375 0l-1.3096752-.6105833c-.0564404-.0269318-.0525875-.0885162.0076962-.1141653l.6605473-.2843504c.0082397-.0035477.0175648-.0036135.025856-.0001831l1.4378052.5949612c.0602912.0256642.0577239.0910691-.0051289.1167335z" fill="#4c5c75"/><g><g><path d="m28.1871109 10.0770683c0-.1607924.3719177-.1608419.3719177 0 0 .1596299-.3719177.1596718-.3719177 0z" fill="#111d33"/><path d="m28.5205917 10.0770359c0 .1078892-.2950287.1079636-.2950287 0 0-.1089544.2950287-.1089201.2950287 0z" fill="#fff"/><path d="m28.520525 10.0766764c0 .0064049-.0012836.0128241-.0038528.0192442-.0333061-.0847979-.253891-.0851374-.2873306 0-.0025692-.0064201-.0038452-.0128393-.0038452-.0192442-.0000001-.1085282.2950286-.1085043.2950286 0z" fill="#dedffb"/></g><g><path d="m29.2821159 10.6407375c-.2490158 0-.2460709-.2408886 0-.2408886.2460823 0 .248993.2408886 0 .2408886z" fill="#111d33"/><path d="m29.429636 10.5207005c0 .1078882-.2950268.1079636-.2950268 0 0-.1089554.2950268-.1089201.2950268 0z" fill="#fff"/><path d="m29.4295692 10.52034c0 .0064049-.0012836.012825-.0038509.0192442-.0333061-.0847979-.2538929-.0851374-.2873306 0-.0025692-.0064192-.0038452-.0128393-.0038452-.0192442 0-.1085282.2950267-.1085043.2950267 0z" fill="#dedffb"/></g><g><path d="m28.8229389 10.4665146c-.3533974 0-.3492203-.3418655 0-.3418655.3492394-.0000001.3533669.3418655 0 .3418655z" fill="#111d33"/><path d="m29.032299 10.2961588c0 .0634594-.0928326.1158504-.209343.1158504-.1165123 0-.2093563-.0523911-.2093563-.1158504 0-.0644808.092844-.1168718.2093563-.1168718.1165105 0 .209343.052391.209343.1168718z" fill="#fff"/><path d="m29.0322056 10.2956486c0 .0090885-.0018234.0181999-.0054665.0273104-.0473862-.1206465-.360321-.1208267-.4077778 0-.0036449-.0091105-.005455-.0182219-.005455-.0273104 0-.0637112.0928326-.1165113.209343-.1165113.1165123-.0000001.2093563.0528001.2093563.1165113z" fill="#dedffb"/></g></g><path d="m33.6713791 12.6061859.7157669.4656496.0962067-.0384884c.153923-.0615692.1770096-.2167902.0436096-.2924671l-.483593-.2757912z" fill="#e9e7fc"/><path d="m28.9868317 10.824482.3732796 1.1775417c.0513058.1962624.2334518.3566036.4874382.4271603l2.4577141.6926641 1.0480003.296319c.1852379.0508156.2734795-.0607662 1.1300888-.38482.153923-.0615692.1770096-.2167902.0436096-.2924671l-.483593-.2757912c-2.9252853-1.6322088-2.8168602-1.693965-3.2247887-1.7291231-.4271526-.0346365-.6862679-.0962057-.967186-.3040075z" fill="#4c5c75"/><path d="m34.5270004 12.7408504-.4836426-.2757568c-2.9252644-1.6322422-2.8169174-1.6940174-3.2248516-1.729126-.427002-.034668-.6862793-.0963135-.967041-.3040771l-.3061523.1390381v.0013428l.0061035-.0041504c.679987.5027533 1.0675812.293932 1.447998.5115967.1016769.0580454 3.5103893 2.0040274 3.3029766 1.8856201.0488281.0281982.0771484.0654297.0847168.1064453l.0961914-.0384521c.1540528-.0616456.177002-.216797.0437012-.2924806z" fill="#7f8eb2" opacity=".4"/><path d="m28.9868317 10.824482.3732796 1.1775417c.0513058.1962624.2334518.3566036.4874382.4271603l2.4577141.6926641 1.0480003.296319c.1852379.0508156.2734795-.0607662 1.1300888-.38482.1167259-.0461922.1577759-.1475182.1128731-.2257624-.6615677.2470045-.7624168.3583412-.9415207.3091269-.1013031-.0285769-3.7355728-1.0538263-3.5057163-.9889822-.2539787-.0705566-.4361248-.2308989-.4874363-.427145l-.3270969-1.0338755z" fill="#31445b"/><path d="m32.3052635 13.1218481c1.007515.2630224 1.0755234.3558741 1.2532349.2847633.1028404-.0415192 1.0529747-.4251413.9248543-.3732643.153923-.0615692.1770096-.2167902.0436096-.2924671l-.483593-.2757912c-.1038322.0392685-1.2570076.4754019-1.1531792.4361324-.1038627.0391846-.6887703.2598563-.5849266.2206269z" fill="#dedffb"/><path d="m32.3052635 13.1218481 1.0480003.296319c.1696892.0465498.2691956-.053978.6105766-.1744652l-1.0736504-.3424807c-.1038626.039177-.6887892.2598038-.5849265.2206269z" fill="#d0cef2"/><path d="m34.9285088 21.4588318c-.0744019.0487614-.1500854.0974903-.2244797.1462498-.1037216-.0395584-.8066635-.3076611-.7029419-.2681026l-.3578796-.1359768c.1706047-.0666885.3386421-.1333942.5041122-.200098.1566505-.062645.2832489.0398159.4848785.1000557l.2001038.0731106.0371971.0141239c.1449509.0538634.1757355.1949767.0590096.2706374z" fill="#e9e7fc"/><path d="m34.6321983 21.1009598c-.2103729.0795288-.5028381.1860065-.6298294.2360191h-.0012817l-.3578796-.1359768c.1706047-.0666885.3386421-.1333942.5041122-.200098.1566505-.062645.2832489.0398159.4848785.1000557z" fill="#e9e7fc"/><path d="m34.9285088 21.4588318c-.0744019.0487614-.1500854.0974903-.2244797.1462498l-.3104248-.1180172c.3682785-.2393742.4137306-.253685.4386978-.312994l.0371971.0141239c.1449509.0538635.1757355.1949768.0590096.2706375z" fill="#d0cef2"/><path d="m12.3770514 25.8114471 3.0923729-1.3582516-.3692284-1.6110516s-.9615622-.1354656-1.0154095-.1138878c-.0538483.0215778-1.4000349.6215916-1.4000349.6215916s-1.0461798.6082897-1.2307997.7387714-.5130672.3283062-.521925.4832458c-.0088577.1549416.1060333.77034.2562857 1.0011158.1502514.2307741 1.1887389.2384664 1.1887389.2384664z" fill="#31445b"/><path d="m15.0997429 21.7342129v1.1082993l-3.9110632 1.9843864-.7426996-.7388554c.1010962-.0590496 4.7402668-2.7686901 4.447237-2.597538z" fill="#4c5c75"/><path d="m15.0997429 21.7342129v.8132648l-1.0821934.8468876-.4942913-1.1034336 1.3699589-.8004265z" fill="#111d33" opacity=".5"/><path d="m10.0061359 25.4525509c0 .2655201-.2714453 1.265625-2.0359116.8638077-1.0971594-.249855-1.9697466-.1938496-2.0363407-.8638077-.0263901-.2654934.9115376-.4823093 2.0367866-.4823093 1.1239209-.0000001 2.0354657.2155075 2.0354657.4823093z" fill="#4c5c75"/><path d="m10.0061359 25.4485035.0004292 1.5494976c0 1.0215073-4.0726814 1.0215073-4.0726814 0l.0014319-1.5625153c0 .8665181 4.0708203.8795376 4.0708203.0130177z" fill="#31445b"/><path d="m6.7671638 25.9733734c-.4873748-.1070404-.8318434-.2862053-.8318434-.5378971l-.0014324 1.5625172c0 .2969303.3451262.5069256.8332758.6312218z" fill="#1d2943"/><path d="m8.4072771 26.0792389c-.4079008.0241451-.8401895.012167-1.2274365-.0361557v1.6666317c.3872943.0554142.8195672.0678482 1.2274365.0378456z" fill="#1d2943"/><path d="m10.0061378 25.4485035c0 .2741165-.4071722.4600754-.9639845.5588799v1.6530857c.5570545-.1185818.9644156-.3393478.9644156-.6624756z" fill="#1d2943"/><path d="m9.6765709 24.0784149-.000001 1.1293221c0 .7394028-3.4126916.7394028-3.4126916 0v-1.1248341c.8128133.1277218 2.5707231.223196 3.4126926-.004488z" fill="#b0b8cf"/><path d="m8.1768017 24.2157192c-.2461109-.0003757-.4954624-.0077038-.735208-.0201988v1.5418491c.2369738.0225487.4889798.0293446.735208.0207005z" fill="#9ea9c9"/><path d="m8.7282114 24.2032242v1.5067749c.5369253-.0783234.9483576-.245554.9483576-.5022583v-1.1293297c-.2510586.0678806-.5838776.1067123-.9483576.1248131z" fill="#9ea9c9"/><path d="m6.6264658 24.1304913c-.1339731-.0149059-.2566175-.030941-.3625855-.0475864v1.124836c0 .1492558.1405654.267868.3625855.3568707z" fill="#9ea9c9"/><path d="m9.6762114 24.0890827c0 .192194-.7638273.3481846-1.7056136.3481846-.9428992 0-1.7067194-.1559906-1.7067194-.3481846 0-.193121.7638202-.3491116 1.7067194-.3491116.9417862.0000001 1.7056136.1559907 1.7056136.3491116z" fill="#e3e7f0"/><path d="m6.8815889 23.1953259.0375423.61413c.000566.0092545.0063834.0171566.0171037.021841.1697578.074173 1.4729028.6323051 1.4729028.6323051.0732059.0295181.1634674-.019762.1467333-.0801125l-.0391884-.6135615s-.8757396-.4533653-.8867002-.4611645c-.01096-.0078011-.6138024-.1101322-.6138024-.1101322z" fill="#31445b"/><path d="m3.0714917 21.4588318c.9958854.6526756 2.7861967 1.8393097 3.9585156 1.7971134l.5721025-.4014816c-.1292224-.5198631-2.385078-1.3035583-3.7494297-1.8535595-.1670682-.0668125-.2842798.0455875-.7221799.1872902-.1449496.0538635-.1757339.1949768-.0590085.2706375z" fill="#4c5c75"/><path d="m3.3678031 21.1009598c.2103703.0795288.5028374.1860065.6298268.2360191 1.5174692.5977592 3.1337187 1.2044888 3.2453158 1.6534462l-.3758402.2642365c.0551567.0025673.1103134.0025673.1629019.0012836l.5721025-.4014816c-.1292224-.5198631-2.385078-1.3035583-3.7494297-1.8535595-.1566493-.062645-.2832498.0398159-.4848771.1000557z" fill="#7f8eb2" opacity=".4"/><path d="m3.1305003 21.1881943.0371964-.0141239c.0102642.0243797.0307844.0487595.0602927.0667038.9967415.6530952 2.7861874 1.8393078 3.9585159 1.7971115l.067503-.0473671v.1082325l-.2240009.1571941c-1.1634207.0418758-2.9218516-1.117712-3.9585156-1.7971134-.1167255-.0756607-.0859412-.216774.0590085-.2706375z" fill="#31445b"/><g><path d="m8.1870365 23.8177986.3732796 1.1775417c.0513048.1962624.2334509.3566036.4874372.4271603l2.457716.6926632c1.0075111.2630234 1.0755215.355875 1.2532339.2847633l.9248543-.3732643c.1539211-.0615692.1770096-.2167892.0436077-.2924671-.101676-.0580444-3.5104513-2.0040188-3.3030405-1.8856125-.116725-.0667057-.256546-.1064777-.4053402-.1193008-.4271526-.0346375-.7083063-.0815868-.9892254-.2893906z" fill="#4c5c75"/><path d="m8.1870365 23.8177986.0333519.1077442.5313158-.3641128c.6873341.5084381 1.0602989.2901058 1.4479427.511631 3.4983902 2.0193672 3.3659296 1.8759232 3.3877048 1.9920902l.0962057-.0384884c.1539211-.0615692.1770096-.2167892.0436077-.2924671-.101676-.0580444-3.5104513-2.0040188-3.3030405-1.8856125-.116725-.0667057-.256546-.1064777-.4053402-.1193008-.4271526-.0346375-.7083063-.0815868-.9892254-.2893906z" fill="#7f8eb2" opacity=".4"/><path d="m8.1870365 23.8177986.3732796 1.1775417c.0513048.1962624.2334509.3566036.4874372.4271603l2.457716.6926632c1.0075111.2630234 1.0755215.355875 1.2532339.2847633l.9248543-.3732643c.116725-.0461922.157773-.1475182.1128731-.2257614-.6615696.2470036-.7624159.3583412-.9415226.3091259-.1013002-.0285759-3.7355728-1.0538273-3.5057144-.9889812-.2539797-.0705566-.4361258-.2308998-.4874382-.427145l-.327095-1.0338764z" fill="#31445b"/><path d="m11.5054693 26.1151638c1.0075111.2630234 1.0755215.355875 1.2532339.2847633.1029263-.0415821.9315748-.376358.8286486-.3347759l.0962057-.0384884c.1539211-.0615692.1770096-.2167892.0436077-.2924671l-.483593-.2757912c-.1038313.0392685-1.2570076.4754028-1.1531763.4361324-.1038627.0391846-.6887731.2598572-.5849266.2206269z" fill="#dedffb"/><path d="m11.5054693 26.1151638c1.0075111.2630234 1.0755215.355875 1.2532339.2847633l.4053402-.1629105-1.0736475-.3424797c-.1038665.039177-.6887922.2598038-.5849266.2206269z" fill="#d0cef2"/></g><g><path d="m8.1870365 23.8177986.3732796 1.1775417c.0513048.1962624.2334509.3566036.4874372.4271603l2.457716.6926632c1.0075111.2630234 1.0755215.355875 1.2532339.2847633l.9248543-.3732643c.1539211-.0615692.1770096-.2167892.0436077-.2924671-.101676-.0580444-3.5104513-2.0040188-3.3030405-1.8856125-.116725-.0667057-.256546-.1064777-.4053402-.1193008-.4271526-.0346375-.6885004-.0770283-.9694195-.2848301z" fill="#4c5c75"/><path d="m8.1870365 23.8177986.0333519.1077442.5313158-.3641128c.6873341.5084381 1.0602989.2901058 1.4479427.511631 3.4983902 2.0193672 3.3659296 1.8759232 3.3877048 1.9920902l.0962057-.0384884c.1539211-.0615692.1770096-.2167892.0436077-.2924671-.101676-.0580444-3.5104513-2.0040188-3.3030405-1.8856125-.116725-.0667057-.256546-.1064777-.4053402-.1193008-.4271526-.0346375-.6885004-.0770283-.9694195-.2848301z" fill="#7f8eb2" opacity=".4"/><path d="m8.1870365 23.8177986.3732796 1.1775417c.0513048.1962624.2334509.3566036.4874372.4271603l2.457716.6926632c1.0075111.2630234 1.0755215.355875 1.2532339.2847633l.9248543-.3732643c.116725-.0461922.157773-.1475182.1128731-.2257614-.6615696.2470036-.7624159.3583412-.9415226.3091259-.1013002-.0285759-3.7355728-1.0538273-3.5057144-.9889812-.2539797-.0705566-.4361258-.2308998-.4874382-.427145l-.327095-1.0338764z" fill="#31445b"/><path d="m3.0714917 21.4588318c.9958854.6526756 2.7861967 1.8393097 3.9585156 1.7971134l.5721025-.4014816c-.1292224-.5198631-2.385078-1.3035583-3.7494297-1.8535595-.1670682-.0668125-.2842798.0455875-.7221799.1872902-.1449496.0538635-.1757339.1949768-.0590085.2706375z" fill="#4c5c75"/><path d="m3.3678031 21.1009598c.2103703.0795288.5028374.1860065.6298268.2360191 1.5174692.5977592 3.1337187 1.2044888 3.2453158 1.6534462l-.3758402.2642365c.0551567.0025673.1103134.0025673.1629019.0012836l.5721025-.4014816c-.1292224-.5198631-2.385078-1.3035583-3.7494297-1.8535595-.1566493-.062645-.2832498.0398159-.4848771.1000557z" fill="#7f8eb2" opacity=".4"/><path d="m3.1305003 21.1881943.0371964-.0141239c.0102642.0243797.0307844.0487595.0602927.0667038.9967415.6530952 2.7861874 1.8393078 3.9585159 1.7971115l.067503-.0473671v.1082325l-.2240009.1571941c-1.1634207.0418758-2.9218516-1.117712-3.9585156-1.7971134-.1167255-.0756607-.0859412-.216774.0590085-.2706375z" fill="#31445b"/><path d="m11.5054693 26.1151638c1.0075111.2630234 1.0755215.355875 1.2532339.2847633.1029263-.0415821.9315748-.376358.8286486-.3347759l.0962057-.0384884c.1539211-.0615692.1770096-.2167892.0436077-.2924671l-.483593-.2757912c-.1038313.0392685-1.2570076.4754028-1.1531763.4361324-.1038627.0391846-.6887731.2598572-.5849266.2206269z" fill="#dedffb"/><path d="m11.5054693 26.1151638c1.0075111.2630234 1.0755215.355875 1.2532339.2847633l.4053402-.1629105-1.0736475-.3424797c-.1038665.039177-.6887922.2598038-.5849266.2206269z" fill="#d0cef2"/><path d="m3.0714917 21.4588318c.0744009.0487614.1500854.0974903.2244785.1462498.1037369-.0395164 1.164551-.4436226 1.0608237-.4040794-.1706057-.0666885-.3386436-.1333942-.5041137-.200098-.1566494-.062645-.2832499.0398159-.4848771.1000557l-.2001064.0731106-.0371964.0141239c-.1449497.0538634-.175734.1949767-.0590086.2706374z" fill="#e9e7fc"/><path d="m3.3678031 21.1009598c.2103703.0795288.5028374.1860065.6298268.2360191h.0012841l.3578799-.1359768c-.1706057-.0666885-.3386436-.1333942-.5041137-.200098-.1566493-.062645-.2832498.0398159-.4848771.1000557z" fill="#e9e7fc"/><path d="m3.0714917 21.4588318c.0744009.0487614.1500854.0974903.2244785.1462498l.3104274-.1180172c-.3682785-.2393742-.4137313-.253685-.4387009-.312994l-.0371964.0141239c-.1449497.0538635-.175734.1949768-.0590086.2706375z" fill="#d0cef2"/></g><path d="m9.0480566 23.5632668-.723464.2975883c-.0295.0128231-.0654202.0128231-.0936365 0l-1.3096747-.6105843c-.0564404-.0269318-.0525885-.0885162.0076962-.1141644l.6605463-.2843513c.0082407-.0035477.0175657-.0036125.025856-.0001831l1.4378057.5949612c.0602921.0256653.0577239.0910702-.005129.1167336z" fill="#4c5c75"/><g><g><path d="m7.5807142 23.2583714c-.2490144 0-.2460704-.2408886 0-.2408886.2460838 0 .2489929.2408886 0 .2408886z" fill="#111d33"/><path d="m7.7282357 23.1383343c0 .1078892-.2950273.1079636-.2950273 0 0-.045435.0654206-.0823517.1475177-.0823517.0820966 0 .1475096.0369167.1475096.0823517z" fill="#fff"/><path d="m7.7281694 23.1379738c0 .0064049-.0012841.012825-.0038519.0192451-.0333061-.0847988-.2538924-.0851383-.2873316 0-.0025678-.0064201-.0038438-.0128403-.0038438-.0192451 0-.0448914.0654125-.0820961.1475096-.0820961s.1475177.0372047.1475177.0820961z" fill="#dedffb"/></g><g><path d="m8.4897604 23.7020359c-.2490149 0-.2460709-.2408886 0-.2408886.2460833 0 .2489929.2408886 0 .2408886z" fill="#111d33"/><path d="m8.6372814 23.5819988c0 .1078873-.2950277.1079636-.2950277 0 0-.1089554.2950277-.108921.2950277 0z" fill="#fff"/><path d="m8.6372147 23.5816383c0 .0064049-.0012836.012825-.0038519.0192451-.0333052-.0847988-.2538919-.0851383-.2873306 0-.0025682-.0064201-.0038443-.0128403-.0038443-.0192451 0-.0448933.0654125-.0820961.1475096-.0820961s.1475172.0372029.1475172.0820961z" fill="#dedffb"/></g><g><path d="m7.7666731 23.357502c0-.2281933.5278206-.2282639.5278206 0 0 .2265453-.5278206.2266044-.5278206 0z" fill="#111d33"/><path d="m8.2399445 23.3574562c0 .0634594-.0928335.1158504-.2093439.1158504-.1165113 0-.2093554-.0523911-.2093554-.1158504 0-.0644798.092844-.1168709.2093554-.1168709.1165103 0 .2093439.0523911.2093439.1168709z" fill="#fff"/><path d="m8.23985 23.3569469c0 .0090885-.0018225.0181999-.0054665.0273113-.0473862-.1206474-.360321-.1208267-.4077773 0-.0036445-.0091114-.0054555-.0182228-.0054555-.0273113 0-.0637112.092833-.1165123.2093439-.1165123.1165114 0 .2093554.0528012.2093554.1165123z" fill="#dedffb"/></g></g><path d="m15.9745684 13.0551434c-.0021448.1006708-.0342131 1.6053152-.0320683 1.5046444 0 0-.5015535.3501844-.5733862.3668756-.0718327.015377-1.1390686-.0718403-1.7124472-.3668756-.5733862-.2950191-1.2339888-.486145-1.266058-.5169296-.0320683-.0320683-.6606112-.3117113-.6606112-.3117113s-.9966869-.1667614-1.0197754-.2385864c-.0243721-.071825.368145-1.0364437.368145-1.0364437.1009323.0123481 5.2219201.6388768 4.8962013.5990266z" fill="#4c5c75"/><path d="m15.9745684 13.0551434-.028224 1.3276424-1.6293373-.2780151-.3225365-1.2921944z" fill="#111d33" opacity=".5"/><path d="m10.6541243 12.8657618 4.5633974 1.5189685v1.6166468l-5.2083073-1.8874149.1433477-.995472" fill="#31445b"/><path d="m11.1152344 12.4213524c0 .2655191-.2421436 1.265624-1.8161383.8638058-.9787226-.2498541-1.7571154-.1938486-1.8165207-.8638058-.0235415-.2654953.813138-.4823093 1.8169184-.4823093 1.0025949-.0000001 1.8157406.2155055 1.8157406.4823093z" fill="#4c5c75"/><path d="m11.1152344 12.417304.0003824 1.5494986c0 1.0215054-3.6330414 1.0215054-3.6330414 0l.0012774-1.5625162c.0000001.866519 3.6313816.8795366 3.6313816.0130176z" fill="#1d2943"/><path d="m8.0246172 12.8842154c-.3250518-.1093893-.5407615-.2691984-.5407615-.479929l-.001276 1.5625181c0 .2486858.2162418.4363356.5420375.56392z" fill="#31445b"/><path d="m9.8327293 13.0365086c-.3611679.0341825-.7531595.0312071-1.1116505-.008831v1.66887c.35853.0455971.7505054.0474443 1.1116505.0056057z" fill="#31445b"/><path d="m11.1152363 12.4173136c0 .2260914-.2474957.3919916-.6128292.4986572v1.6413422c.3655605-.1272869.6132135-.3239403.6132135-.5905085z" fill="#31445b"/><path d="m10.8212452 11.0472155-.000001 1.1293221c0 .7394028-3.0442967.7394028-3.0442967 0v-1.1248341c.7250714.1277227 2.2932181.223196 3.0442977-.004488z" fill="#b0b8cf"/><path d="m8.5815783 11.1473255c-.3118286-.0245209-.5942273-.0585623-.8046293-.0956259v1.124835c0 .2491722.3462143.4139919.8046293.4952278z" fill="#9ea9c9"/><path d="m9.7179689 11.1818676c-.2449827.0055752-.4989147.0013313-.7452917-.0101624v1.5474081c.2457895.0175686.5029783.01439.7452917-.0082054z" fill="#9ea9c9"/><path d="m10.2713985 11.1478424v1.465765c.3254204-.0916796.5498447-.2368803.5498447-.4370728v-1.1293287c-.1534442.046505-.3424253.0786829-.5498447.1006365z" fill="#9ea9c9"/><path d="m10.8209238 11.0578842c0 .1921921-.6813726.3481836-1.5214949.3481836-.841114 0-1.5224814-.1559916-1.5224814-.3481836 0-.1931219.6813674-.3491135 1.5224814-.3491135.8401223.0000001 1.5214949.1559916 1.5214949.3491135z" fill="#e3e7f0"/><path d="m10.3359852 10.1714725-.0375423.61413c-.0005655.0092535-.0063829.0171566-.0171032.0218401-.1697578.0741739-1.4729033.6323061-1.4729033.6323061-.073205.0295181-.1634674-.019763-.1467333-.0801134l.0391884-.6135607s.8757401-.4533653.8866997-.4611654c.0109606-.0078011.6138029-.1101322.6138029-.1101322z" fill="#31445b"/><path d="m8.1695175 10.5394135.723464.2975874c.0295.0128241.0654202.0128241.0936365 0l1.3096743-.6105833c.0564413-.0269318.0525894-.0885162-.0076952-.1141653l-.6605463-.2843505c-.0082407-.0035477-.0175657-.0036135-.025856-.0001831l-1.4378052.5949612c-.0602932.0256643-.0577249.0910692.0051279.1167336z" fill="#4c5c75"/><g><g><path d="m9.8128891 10.0770683c0-.1607924-.3719177-.1608419-.3719177 0 0 .1596299.3719177.1596718.3719177 0z" fill="#111d33"/><path d="m9.4794092 10.0770359c0 .1078892.2950268.1079636.2950268 0 0-.1089544-.2950268-.1089201-.2950268 0z" fill="#fff"/><path d="m9.479476 10.0766764c0 .0064049.0012836.0128241.0038519.0192442.0333052-.0847979.2538919-.0851374.2873306 0 .0025682-.0064201.0038443-.0128393.0038443-.0192442 0-.1085282-.2950268-.1085043-.2950268 0z" fill="#dedffb"/></g><g><path d="m8.9038439 10.5207319c0-.1607914-.3719177-.1608419-.3719177 0 0 .1596308.3719177.1596718.3719177 0z" fill="#111d33"/><path d="m8.570363 10.5207005c0 .1078882.2950277.1079636.2950277 0 .0000001-.1089554-.2950277-.1089201-.2950277 0z" fill="#fff"/><path d="m8.5704298 10.52034c0 .0064049.0012846.012825.0038519.0192442.0333061-.0847979.2538919-.0851374.2873316 0 .0025682-.0064192.0038443-.0128393.0038443-.0192442-.0000001-.1085282-.2950278-.1085043-.2950278 0z" fill="#dedffb"/></g><g><path d="m9.4409714 10.2962036c0-.2281933-.5278206-.2282639-.5278206 0 0 .2265453.5278206.2266045.5278206 0z" fill="#111d33"/><path d="m8.967701 10.2961588c0 .0634594.0928326.1158504.2093439.1158504.1165104 0 .2093544-.0523911.2093544-.1158504 0-.0644808-.092844-.1168718-.2093544-.1168718-.1165114 0-.2093439.052391-.2093439.1168718z" fill="#fff"/><path d="m8.9677954 10.2956486c0 .0090885.0018215.0181999.0054665.0273104.0473852-.1206465.3603201-.1208267.4077768 0 .003644-.0091105.005455-.0182219.005455-.0273104 0-.0637112-.0928326-.1165113-.2093439-.1165113-.1165104-.0000001-.2093544.0528001-.2093544.1165113z" fill="#dedffb"/></g></g><path d="m4.32862 12.6061859-.7157679.4656496-.096205-.0384884c-.1539218-.0615692-.1770101-.2167902-.0436087-.2924671l.4835935-.2757912z" fill="#e9e7fc"/><path d="m9.0131674 10.824482-.3732796 1.1775417c-.0513048.1962624-.2334509.3566036-.4874372.4271603-.1013002.0285778-3.7355723 1.0538273-3.5057149.9889832-.1852388.0508156-.273478-.0607662-1.1300886-.38482-.1539218-.0615693-.1770101-.2167903-.0436087-.2924672l.4835935-.2757912c2.9252846-1.6322088 2.8168581-1.693965 3.224788-1.7291231.4271526-.0346365.6862674-.0962057.9671865-.3040075z" fill="#4c5c75"/><path d="m8.453516 10.5703182-.3049316-.1384277c-.2808838.2077637-.5400391.2694092-.9671631.3040771-.4087162.0352049-.3025417.0985994-3.2247314 1.729126l-.4836426.2757568c-.1334229.0756836-.1103516.230835.0435791.2924805l.0963135.0384521c.0207405-.1124001.1521878-.1290407.5681152-.3822021 2.9284415-1.6339493 2.8173604-1.694026 3.2248535-1.729126.427124-.034668.7617188-.1845703 1.0426025-.392334z" fill="#7f8eb2" opacity=".4"/><path d="m9.0131674 10.824482-.3732796 1.1775417c-.0513048.1962624-.2334509.3566036-.4874372.4271603-.1013002.0285778-3.7355723 1.0538273-3.5057149.9889832-.1852388.0508156-.273478-.0607662-1.1300886-.38482-.1167254-.0461922-.1577737-.1475182-.1128733-.2257624.6615691.2470045.7624154.3583412.9415226.3091269.1013002-.0285769 3.7355723-1.0538263 3.5057144-.9889822.2539792-.0705566.4361253-.2308989.4874377-.427145l.327096-1.0338755z" fill="#31445b"/><path d="m5.6947351 13.1218481c-1.0075116.2630224-1.0755219.3558741-1.2532339.2847633-.102941-.0415468-1.0277951-.4148111-.924854-.3732643-.1539219-.0615692-.1770102-.2167902-.0436088-.2924671l.4835935-.2757912c.1038311.0392685 1.2570078.4754019 1.1531765.4361324l.0076962.0025682c.1038461.0392295.6810765.2572881.5772305.2180587z" fill="#dedffb"/><path d="m5.6947351 13.1218481-1.0479994.296319c-.1696882.0465498-.2691941-.053978-.6105747-.1744652l1.0736475-.3424807s.0025601.0012846.0076962.0025682c.103846.0392295.6810764.2572881.5772304.2180587z" fill="#d0cef2"/><path d="m3.0714917 21.4588318c.0744009.0487614.1500854.0974903.2244785.1462498.1037369-.0395164 1.164551-.4436226 1.0608237-.4040794-.1706057-.0666885-.3386436-.1333942-.5041137-.200098-.1566494-.062645-.2832499.0398159-.4848771.1000557l-.2001064.0731106-.0371964.0141239c-.1449497.0538634-.175734.1949767-.0590086.2706374z" fill="#e9e7fc"/><path d="m3.3678031 21.1009598c.2103703.0795288.5028374.1860065.6298268.2360191h.0012841l.3578799-.1359768c-.1706057-.0666885-.3386436-.1333942-.5041137-.200098-.1566493-.062645-.2832498.0398159-.4848771.1000557z" fill="#e9e7fc"/><path d="m3.0714917 21.4588318c.0744009.0487614.1500854.0974903.2244785.1462498l.3104274-.1180172c-.3682785-.2393742-.4137313-.253685-.4387009-.312994l-.0371964.0141239c-.1449497.0538635-.175734.1949768-.0590086.2706375z" fill="#d0cef2"/><g><path d="m16.1777229 27.2408562v.4758892l-.5531359.026947c-.2060719 0-.3857975-.1167316-.4338284-.2834949-.2069578-.7075081-.5560923-1.9657173-1.0597906-2.429491-.094511-.0872154-.1394491-.2052326-.1363478-.3232498l.0720243-1.8974724.1975689.1208878.8940039.8248043s.7220144 1.140337.7220144 1.2378273c.0000002.1045569.2839224 2.1473101.2974912 2.2473525z" fill="#4c5c75"/><path d="m16.1777229 27.2408562v.4758892l-.5531359.026947c-.2060719 0-.3857975-.1167316-.4338284-.2834949-.0836735-.286047-.1673374-.5682411-.2556543-.8376122.381155-.098774.84132-.214222 1.1186676-.2834949.0650731.4797401.123951.9017658.123951.9017658z" fill="#31445b"/><path d="m23.8828583 24.7074566c.0046539.1180172-.0402851.2360344-.1347961.3232498-.6242867.5760155-.9845562 2.3028336-1.0861263 2.4949131-.0712757.1308403-.2293091.2180729-.4074917.2180729l-.5546875-.026947v-.4758892c.0140705-.1025925.2990417-2.1537132.2990417-2.2473526 0-.0974903.7220135-1.2378273.7220135-1.2378273l.8940048-.8248043h.2200108z" fill="#4c5c75"/><path d="m22.6619358 26.7867622v.7388573c-.0712757.1308403-.2293091.2180729-.4074917.2180729l-.5546875-.026947v-.4758892s.0278988-.1962624.0650826-.4733219c.405941-.003851.8970966.0192279.8970966.0192279z" fill="#31445b"/><path d="m20.9607029 26.8714428c-.0110645 2.4833431.0249615 2.3584328-.0325413 2.4807892-.0712662.1667614-.2633991.2847786-.4880543.2847786h-3.1871052c-.2246647 0-.4167881-.1180172-.4880638-.2847786-.0579109-.12323-.0214996-.0027828-.0325394-2.4807892z" fill="#31445b"/><path d="m16.8873386 26.8714428v2.1511326c0 .12187-.0449295.2360191-.1224003.3296566-.0579109-.12323-.0214996-.0027828-.0325394-2.4807892z" fill="#111d33" opacity=".8"/><path d="m16.732399 26.8714428v2.1511326c0 .253994-.2479.4592133-.5546761.4592133-.2908964 0-.5531359-.1943493-.5531359-.4592133v-2.1511326z" fill="#1d2943"/><path d="m20.9607029 26.8714428c-.0110645 2.4833431.0249615 2.3584328-.0325413 2.4807892-.0774689-.0936375-.1223984-.2077866-.1223984-.3296566v-2.1511326z" fill="#111d33" opacity=".8"/><path d="m22.0685139 26.8714428v2.1511326c0 .253994-.2479.4592133-.5546761.4592133-.2908955 0-.5531349-.1943493-.5531349-.4592133v-2.1511326z" fill="#1d2943"/><g fill="#7f8eb2"><path d="m15.625 26.871h1.108v.406h-1.108z" opacity=".3"/><path d="m15.625 27.773h1.108v.388h-1.108z" opacity=".3"/><path d="m15.6245022 28.7371693v.2858295c0 .253273.2479935.4585857.5539093.4585857.3059177 0 .5539112-.2053127.5539112-.4585857v-.2858295z" opacity=".3"/><path d="m20.961 26.871h1.108v.406h-1.108z" opacity=".3"/><path d="m20.961 27.773h1.108v.388h-1.108z" opacity=".3"/><path d="m20.9606171 28.7371693v.2858295c0 .253273.2479935.4585857.5539112.4585857.3059158 0 .5539093-.2053127.5539093-.4585857v-.2858295z" opacity=".3"/></g><path d="m14.875865 24.8623962c-.4771242-.9094391-.8814697-1.5309067-.8281956-2.6231918l.3263798-9.860157c0-2.5724201 9.0532637-2.5724201 9.0532637 0l.5643883 9.2607498c.0574532.6201725-.0646648 1.2427406-.3562069 1.8159924l-.713726 1.4033718c-.0590324.1160736-.1963425.1915531-.3484669.1915531h-7.3506394c-.1505804 0-.2868071-.0739746-.346797-.1883183z" fill="#c9cee2"/><path d="m17.0810127 25.0512352h-1.8577232c-.1518373 0-.2881851-.0743923-.3470631-.1885738-.2204714-.511404-.8933268-1.3169098-.8289223-2.6231842l.3269205-9.8604641c0-1.463604 2.9299002-2.0934305 5.4554224-1.8920326-1.9135094.1526375-3.5961494.782465-3.5961494 1.8920326l-.3269196 9.8604641c-.0641432 1.300972.5931149 2.0788231.8273716 2.6231842.0604287.1141815.1967755.1885738.3470631.1885738z" fill="#e3e7f0"/><path d="m23.6349602 23.4555054-.7127285 1.4033203c-.0588779.1167336-.1967659.1924095-.3486137.1924095h-1.63616c.1518478 0 .2897358-.075676.3486137-.1924095l.7127266-1.4033203c.2928295-.5733776.4136868-1.1955013.3563595-1.8163395l-.563982-9.2601528c0-1.1313801-1.7492638-1.7637587-3.7092514-1.9010201 2.5007248-.1744499 5.3454113.4592285 5.3454113 1.9010201l.563982 9.2601528c.0573273.6208381-.0635299 1.2429619-.3563575 1.8163395z" fill="#b0b8cf"/><path d="m23.0167427 25.0922756s-.0464802.0179596-.0898571.0320683v1.0454311c0 .2886162-.2742462.5233517-.6120129.5233517h-6.8622665c-.3377762 0-.6135635-.2347355-.6135635-.5233517v-1.1262283l-.0588779-.0115547.0743685-.1590576.0216932-.0448933v-.0012836c.0557766-.0936527.1688881-.1565056.2990322-.1552219l7.4185028.0166912c.1224079.0012836.2293072.0564327.286644.1410828h.0015411l.004652.0089874.0201435.0384884z" fill="#1d2943"/><path d="m23.0515404 25.2158718v1.1952744c0 .288868-.2828522.5230408-.6317711.5230408h-7.0722361c-.348918 0-.631772-.2341728-.631772-.5230408v-1.2129517c0-.1583176.1553049-.2865334.3465328-.2860928l7.6446457.0176773c.1904736.0004407.3446007.1283989.3446007.2860928z" fill="#1d2943"/><path d="m15.625 26.871h6.444v.191h-6.444z" fill="#111d33" opacity=".6"/><path d="m23.0515404 25.2158718v1.1952744c0 .288868-.2828522.5230408-.6317711.5230408h-7.0722361c-.348918 0-.631772-.2341728-.631772-.5230408v-1.2129517c0-.1583176.1553049-.2865334.3465328-.2860928l7.6446457.0176773c.1904736.0004407.3446007.1283989.3446007.2860928z" fill="#7f8eb2"/><path d="m15.3475227 26.7546005c-.2287779 0-.4148865-.1540775-.4148865-.343483v-1.2129593c0-.0587502.0577993-.1064777.1288385-.1064777l7.6448412.0177879c.0708122.0001259.1283092.0478516.1283092.1063519v1.1952972c0 .1894054-.1861095.343483-.4148865.343483z" fill="#1d2943"/><path d="m22.8323746 26.4288902c-.0108471.1821537-.1921329.3258038-.4121456.3258038h-7.0729895c-.2277565 0-.4152365-.1539211-.4152365-.3437634v-1.2121773c0-.0590019.058877-.1064777.1301527-.1064777h.0108471v1.0774994c0 .1898422.1859293.3437805.4152365.3437805 7.3678856-.0324936 7.1215534.0760861 7.3441353-.0846653z" fill="#111d33"/><path d="m20.9606152 29.2448254c0 .4245396-.9475212.767374-2.1152954.767374-1.1654778 0-2.112999-.3428345-2.112999-.767374 0-.4230804.9475212-.7673759 2.112999-.7673759 1.1677741-.0000001 2.1152954.3442954 2.1152954.7673759z" fill="#4c5c75"/><path d="m18.8453121 29.8838959c-1.1539516 0-1.9580784-.3368435-1.9580784-.6391125s.8041267-.6391125 1.9580784-.6391125c1.1552372 0 1.9603462.3368435 1.9603462.6391125s-.805109.6391125-1.9603462.6391125z" fill="#1d2943"/><path d="m18.845602 29.7203789c-.8587132 0-1.4571037-.2506618-1.4571037-.4755955s.5983906-.4755955 1.4571037-.4755955c.8596706 0 1.4587936.2506618 1.4587936.4755955s-.5991229.4755955-1.4587936.4755955z" fill="#31445b"/><path d="m18.8458996 29.5525684c-.5557232 0-.9429779-.1622162-.9429779-.307785 0-.1455669.3872547-.307785.9429779-.307785.5563431 0 .9440708.1622181.9440708.307785 0 .1455688-.3877277.307785-.9440708.307785z" fill="#111d33"/><g fill="#fff"><path d="m19.4015579 29.3649731c-.1961365 0-.1964035-.2440624 0-.2440624.1961022-.0000001.1961041.2440624 0 .2440624z"/><path d="m19.6238766 29.1209106c-.0999126 0-.0999126-.1241055 0-.1241055.0997619.0000001.0997619.1241055 0 .1241055z"/></g></g><path d="m20.0798588 10.9075985c2.0062656.6439085 1.4710636 3.3754358 1.4605637 5.0133533-.2945233-1.6597595.3638591-4.1170892-1.4605637-5.0133533z" fill="#fff"/><g><g><path d="m24.6410885 14.0849171-.3410606.2315311.2959671-.2876768c.0361748-.035161.0112743-.1022768-.0342045-.1109934l-.7414036-.1420946.7550468.0112076c.0469208.0006962.0840607-.0603914.0557652-.1021166l-.2312813-.3410416.287117.296093c.0349598.0360527.1020985.0117874.110899-.0341215l.1422577-.7420778-.0114403.7554417c-.0007153.0471048.0603561.08389.1020794.0555992l.3411026-.231287-.2959805.2874069c-.0362167.0351686-.011446.1022425.0340633.1109648l.7415218.1421185-.7550449-.0112085c-.0469227-.0006971-.0840607.0603857-.0557747.1021194l.2313271.3413143-.2871628-.2963581c-.0349445-.0360632-.1020851-.0118036-.1108952.0341005l-.1424904.7423992.0116653-.7557421c.0007288-.0471287-.0603445-.0839062-.1020735-.0555782z" fill="#fff"/></g></g><path d="m27.3977051 24.3334541c-.3290119.2096634-.6919193.4066067-1.0899601.5868988.5384102-.3384876.8586025-.475605 1.0899601-.5868988z" fill="#fff"/><path d="m6.6483712 11.3145342c-.3266945.2132568-.6874208.4141674-1.0834608.5988111.534668-.3443679.8533383-.4849882 1.0834608-.5988111z" fill="#fff"/><path d="m11.9505005 25.063755c-.3617468-.1461067-.7328215-.3271923-1.1107397-.5465508.5882215.2417737.885786.4228269 1.1107397.5465508z" fill="#fff"/></g></svg>