<svg id="Layer_1" data-name="Layer 1" xmlns="http://www.w3.org/2000/svg" viewBox="0 0 963.73 963.73"><defs><style>.cls-1{fill:none;stroke:#231f20;stroke-miterlimit:10;stroke-width:23px;}</style></defs><title>circle_marking</title><path class="cls-1" d="M532.38,51c259.77,0,470.36,210.59,470.36,470.36S792.15,991.71,532.38,991.71,62,781.12,62,521.34" transform="translate(-50.51 -39.48)"/><polyline class="cls-1" points="11.5 443.31 11.5 11.5 379.73 11.5 264.9 109.48 379.73 204.7 17 204.39"/><path class="cls-1" d="M457.54,830.6" transform="translate(-50.51 -39.48)"/><line class="cls-1" x1="633.66" y1="434.27" x2="559.08" y2="573.36"/><line class="cls-1" x1="542.35" y1="602.22" x2="498.81" y2="677.35"/><line class="cls-1" x1="354.11" y1="693.59" x2="270.35" y2="622.36"/><line class="cls-1" x1="247.54" y1="602.6" x2="128.61" y2="499.8"/><line class="cls-1" x1="115.51" y1="486.78" x2="11.5" y2="400.4"/><circle class="cls-1" cx="675.93" cy="352.46" r="90.84"/><circle class="cls-1" cx="429.74" cy="730.63" r="90.84"/></svg>