<svg id="Layer_2" data-name="Layer 2" xmlns="http://www.w3.org/2000/svg" viewBox="0 0 661.07 646.71"><defs><style>.cls-1{fill:none;stroke:#231f20;stroke-miterlimit:10;stroke-width:17px;}</style></defs><title>compass</title><path class="cls-1" d="M396.8,24.07c-177.85,0-322,141-322,314.85S219,653.78,396.8,653.78s322.05-141,322.05-314.86S574.65,24.07,396.8,24.07Zm0,569.69c-144,0-260.65-114.1-260.65-254.84S252.85,84.09,396.8,84.09,657.45,198.17,657.45,338.92,540.76,593.76,396.8,593.76Z" transform="translate(-66.28 -15.57)"/><line class="cls-1" x1="333.72" y1="108.41" x2="333.72" y2="171.11"/><line class="cls-1" x1="108.91" y1="332.46" x2="168.55" y2="332.46"/><line class="cls-1" x1="295.36" y1="293.54" x2="372.94" y2="370.41"/><line class="cls-1" x1="498.12" y1="332.46" x2="560.06" y2="332.46"/><line class="cls-1" x1="333.72" y1="498.39" x2="333.72" y2="559.56"/><path class="cls-1" d="M357.18,304.44,250.27,494.09a2.65,2.65,0,0,0,3.63,3.59L438.23,391.62l103.82-174a2.72,2.72,0,0,0-3.55-3.83Z" transform="translate(-66.28 -15.57)"/></svg>