<svg id="Layer_2" data-name="Layer 2" xmlns="http://www.w3.org/2000/svg" viewBox="0 0 303.11 296.53"><defs><style>.cls-1{fill:none;stroke:#231f20;stroke-miterlimit:10;stroke-width:8px;}</style></defs><title>compass</title><path class="cls-1" d="M191.94,49.56c-81.49,0-147.55,64.59-147.55,144.26s66.06,144.27,147.55,144.27S339.5,273.5,339.5,193.82,273.43,49.56,191.94,49.56Zm0,261c-66,0-119.43-52.28-119.43-116.77S126,77.06,191.94,77.06s119.43,52.27,119.43,116.76S257.9,310.59,191.94,310.59Z" transform="translate(-40.39 -45.56)"/><line class="cls-1" x1="153.01" y1="49.78" x2="153.01" y2="78.51"/><line class="cls-1" x1="50.01" y1="152.44" x2="77.34" y2="152.44"/><line class="cls-1" x1="135.44" y1="134.6" x2="170.99" y2="169.83"/><line class="cls-1" x1="228.34" y1="152.44" x2="256.72" y2="152.44"/><line class="cls-1" x1="153.01" y1="228.47" x2="153.01" y2="256.49"/><path class="cls-1" d="M173.78,178l-49,86.9a1.21,1.21,0,0,0,1.66,1.64L210.92,218l47.57-79.72a1.25,1.25,0,0,0-1.63-1.76Z" transform="translate(-40.39 -45.56)"/></svg>