<svg id="Layer_2" data-name="Layer 2" xmlns="http://www.w3.org/2000/svg" viewBox="0 0 358.42 241.6"><defs><style>.cls-1{fill:none;stroke:#231f20;stroke-miterlimit:10;stroke-width:6px;}</style></defs><title>Drone_connected</title><line class="cls-1" y1="9.02" x2="83.39" y2="9.02"/><line class="cls-1" x1="274.34" y1="9.02" x2="358.42" y2="9.02"/><line class="cls-1" x1="41.69" x2="41.69" y2="29.69"/><line class="cls-1" x1="316.38" y1="0.26" x2="316.38" y2="29.17"/><rect class="cls-1" x="27.85" y="29.69" width="28.91" height="59.91"/><rect class="cls-1" x="301.66" y="29.69" width="30.48" height="59.91"/><path class="cls-1" d="M173.17,145.58h-67V120.87h55v12.71A12,12,0,0,0,173.17,145.58Z" transform="translate(-49.4 -69.11)"/><path class="cls-1" d="M351.07,120.87v24.71H283a12,12,0,0,0,12-12V120.87Z" transform="translate(-49.4 -69.11)"/><path class="cls-1" d="M185.72,163.16c-65.86,36.44-60.29,104-60.29,104H97.27a9,9,0,0,1-9-9h0a10,10,0,0,1,10-10h10.29c.35-66.57,69-101.43,69-101.43L196,184.07h64.64l18.92-37.32s70.42,32.06,69,101.43l12.32-.19a9.6,9.6,0,0,1,9.76,9.6h0a9.6,9.6,0,0,1-9.61,9.6H327.59S343.17,207.14,271,163.7" transform="translate(-49.4 -69.11)"/><rect class="cls-1" x="168.7" y="114.96" width="21.02" height="21.95"/><rect class="cls-1" x="153.46" y="137.96" width="49.14" height="32.06" rx="7.49"/><circle class="cls-1" cx="178.03" cy="153.99" r="8.01"/><circle class="cls-1" cx="178.68" cy="192.98" r="4.6"/><path class="cls-1" d="M199.18,272.44s28.64,28.38,56.5,0" transform="translate(-49.4 -69.11)"/><path class="cls-1" d="M179.47,285.05s42.31,51,97.23,0" transform="translate(-49.4 -69.11)"/><path class="cls-1" d="M295,109.84v23.74a12,12,0,0,1-12,12H173.17a12,12,0,0,1-12-12V112.12a25,25,0,0,1,24.88-24.88h86.36A22.67,22.67,0,0,1,295,109.84Z" transform="translate(-49.4 -69.11)"/></svg>