<svg id="Layer_2" data-name="Layer 2" xmlns="http://www.w3.org/2000/svg" viewBox="0 0 630.36 427.12"><defs><style>.cls-1{fill:none;stroke:#231f20;stroke-miterlimit:10;stroke-width:15px;}</style></defs><title>Drone_connected</title><line class="cls-1" y1="15.87" x2="146.65" y2="15.87"/><line class="cls-1" x1="482.48" y1="15.87" x2="630.36" y2="15.87"/><line class="cls-1" x1="73.33" x2="73.33" y2="52.22"/><line class="cls-1" x1="556.42" y1="0.46" x2="556.42" y2="51.3"/><rect class="cls-1" x="48.99" y="52.22" width="50.84" height="105.37"/><rect class="cls-1" x="530.54" y="52.22" width="53.61" height="105.37"/><path class="cls-1" d="M257.9,185.9H140.07V142.45H236.8V164.8A21.16,21.16,0,0,0,257.9,185.9Z" transform="translate(-40.24 -51.41)"/><path class="cls-1" d="M570.78,142.45V185.9H451.08a21.16,21.16,0,0,0,21.1-21.1V142.45Z" transform="translate(-40.24 -51.41)"/><path class="cls-1" d="M280,216.82c-115.85,64.08-106,183-106,183H124.42A15.79,15.79,0,0,1,108.63,384h0a17.64,17.64,0,0,1,17.64-17.64h18.1C145,249.27,265.76,188,265.76,188l32.35,65.63H411.8L445.07,188s123.86,56.38,121.39,178.39l21.67-.34a16.88,16.88,0,0,1,17.15,16.88h0a16.89,16.89,0,0,1-16.88,16.89H529.49s27.41-105.61-99.53-182" transform="translate(-40.24 -51.41)"/><rect class="cls-1" x="296.7" y="202.17" width="36.97" height="38.6"/><rect class="cls-1" x="269.89" y="242.62" width="86.42" height="56.38" rx="7.49"/><circle class="cls-1" cx="313.1" cy="270.82" r="14.1"/><circle class="cls-1" cx="314.25" cy="339.39" r="8.09"/><path class="cls-1" d="M303.66,409S354,458.92,403,409" transform="translate(-40.24 -51.41)"/><path class="cls-1" d="M269,431.19s74.41,89.66,171,0" transform="translate(-40.24 -51.41)"/><path class="cls-1" d="M472.18,123.05V164.8a21.16,21.16,0,0,1-21.1,21.1H257.9a21.16,21.16,0,0,1-21.1-21.1V127.06A43.88,43.88,0,0,1,280.55,83.3H432.44A39.86,39.86,0,0,1,472.18,123.05Z" transform="translate(-40.24 -51.41)"/></svg>