<svg id="Layer_1" data-name="Layer 1" xmlns="http://www.w3.org/2000/svg" viewBox="0 0 776.58 346.47"><defs><style>.cls-1{fill:#5f308f;}.cls-2{fill:#231f20;}</style></defs><title>DC_logo</title><path class="cls-1" d="M171.27,348.79H406c41.15,0,81.9,9.5,118.22,28.84,36.9,19.64,73.57,51,78.33,99.12,0,0,3.31,137.89,99.28,135.68l152.23,0,88.24,82.7H680.9s-172.09-7.33-175.39-167.67c0,0,3.31-87.14-98.18-92.66l-150-1.1Z" transform="translate(-165.76 -348.7)"/><path class="cls-2" d="M590.45,377.47s40.81,43,46.33,86c0,0,3.52-2.07,9.72-5.1a222.08,222.08,0,0,1,99.25-22.28l109.44.9,87.14-88.25H735S642.29,345.48,590.45,377.47Z" transform="translate(-165.76 -348.7)"/><path class="cls-2" d="M165.76,477.86H271.65V606.92h140.1s49.64,0,68.39-28.68c0,0,12.13,59.56,48.53,79.42,0,0-45.22,36.4-113.61,37.5H165.76Z" transform="translate(-165.76 -348.7)"/></svg>