<svg id="Layer_1" viewBox="0 0 128 128" xmlns="http://www.w3.org/2000/svg" data-name="Layer 1"><path d="m90.02425 55.52809c-11.38375.23842-20.26148 10.23638-19.86639 21.61567.58808 16.94 12.51186 32.23042 17.80648 38.21322a3.328 3.328 0 0 0 4.98986.00208c5.4283-6.13339 17.831-22.05687 17.831-39.51054a20.32515 20.32515 0 0 0 -20.76095-20.32043zm.43592 31.57735a11.25692 11.25692 0 1 1 11.257-11.25692 11.25686 11.25686 0 0 1 -11.257 11.25692z"/><path d="m78.73281 23.56759a12.05113 12.05113 0 0 0 -12.05116-12.05115h-5.3633a12.05115 12.05115 0 0 0 -12.05125 12.05111v.00018a122.31364 122.31364 0 0 1 29.46571-.00014z"/><path d="m45.30089 16.25773h-38.54273a4.64459 4.64459 0 0 0 -4.64453 4.64457h38.54265a4.6446 4.6446 0 0 0 4.64461-4.64457z"/><path d="m79.35929 50.374a27.0605 27.0605 0 0 1 10.50577-2.35106 27.68292 27.68292 0 0 1 3.34523.12092l-4.00344-5.61565h9.028v.26294a6.19653 6.19653 0 0 0 5.65464 6.25268 6.04943 6.04943 0 0 0 6.45654-6.03869v-18.0359h-12.11118v8.57121a117.82182 117.82182 0 0 0 -68.46907 0v-8.57121h-12.11127v17.82763a6.19033 6.19033 0 0 0 5.64906 6.247 6.05514 6.05514 0 0 0 6.46221-6.03878v-.47693h9.028l-7.43827 15.84073a3.55733 3.55733 0 0 0 -.33712 1.49566l-.08113 17.95689a3.55677 3.55677 0 0 0 7.06833.58109l2.42714-15.08444 7.36219-11.80895h29.31408c.73222-.40978 1.48463-.79265 2.25029-1.13514z"/><path d="m87.34363 20.9023h38.54274a4.64454 4.64454 0 0 0 -4.64453-4.64457h-38.54264a4.64451 4.64451 0 0 0 4.64443 4.64457z"/></svg>