<svg id="Layer_2" data-name="Layer 2" xmlns="http://www.w3.org/2000/svg" viewBox="0 0 763.66 682.47"><defs><style>.cls-1{fill:none;stroke:#231f20;stroke-miterlimit:10;stroke-width:16px;}</style></defs><title>ESC</title><path class="cls-1" d="M216.3,120.74A372.68,372.68,0,0,0,72.14,320.87l99.08,29.23a269.17,269.17,0,0,1,99.84-141.55Z" transform="translate(-46.33 -47.8)"/><path class="cls-1" d="M163.58,384.25,63.26,358.18s-22.77,78.14,4.4,156.28l99.78-26.92C150.81,433.87,163.58,384.25,163.58,384.25Z" transform="translate(-46.33 -47.8)"/><path class="cls-1" d="M255.68,96.67v0l47.87,91.56s93.62-58.62,241.27-5.1l49.69-90.7C388.64,7.59,255.68,96.67,255.68,96.67Z" transform="translate(-46.33 -47.8)"/><path class="cls-1" d="M790.9,513.3,691,487.54s61-150-110.08-279l48-87.81S853.76,236.38,790.9,513.3Z" transform="translate(-46.33 -47.8)"/><path class="cls-1" d="M493.85,471.68a47.57,47.57,0,0,1-95.14,0L275.81,312.8,446.28,424.13A47.57,47.57,0,0,1,493.85,471.68Z" transform="translate(-46.33 -47.8)"/><line class="cls-1" x1="224.73" y1="160.75" x2="169.98" y2="72.94"/><rect class="cls-1" x="213.28" y="509.6" width="332.13" height="164.87"/><line class="cls-1" x1="284.63" y1="598.93" x2="284.63" y2="637.3"/><line class="cls-1" x1="345.78" y1="583.94" x2="345.78" y2="637.3"/><line class="cls-1" x1="403.93" y1="568.36" x2="403.93" y2="635.5"/><line class="cls-1" x1="462.68" y1="546.17" x2="462.68" y2="637.3"/></svg>