<svg id="Layer_2" data-name="Layer 2" xmlns="http://www.w3.org/2000/svg" viewBox="0 0 336.71 301.12"><defs><style>.cls-1{fill:none;stroke:#231f20;stroke-miterlimit:10;stroke-width:9px;}</style></defs><title>ESC</title><path class="cls-1" d="M205.1,155.37a163.35,163.35,0,0,0-63.19,87.72l43.43,12.81a118,118,0,0,1,43.76-62Z" transform="translate(-129.6 -122.41)"/><path class="cls-1" d="M182,270.87l-44-11.43S128,293.7,140,328l43.73-11.8C176.39,292.62,182,270.87,182,270.87Z" transform="translate(-129.6 -122.41)"/><path class="cls-1" d="M222.36,144.82h0l21,40.13s41-25.69,105.75-2.23L370.87,143C280.63,105.78,222.36,144.82,222.36,144.82Z" transform="translate(-129.6 -122.41)"/><path class="cls-1" d="M457,327.44l-43.77-11.3s26.73-65.75-48.25-122.28l21-38.49S484.5,206.06,457,327.44Z" transform="translate(-129.6 -122.41)"/><path class="cls-1" d="M326.75,309.19a20.85,20.85,0,0,1-41.7,0l-53.87-69.64,74.72,48.8A20.85,20.85,0,0,1,326.75,309.19Z" transform="translate(-129.6 -122.41)"/><line class="cls-1" x1="99.49" y1="71.45" x2="75.49" y2="32.96"/><rect class="cls-1" x="94.48" y="224.36" width="145.58" height="72.26"/><line class="cls-1" x1="125.75" y1="263.51" x2="125.75" y2="280.33"/><line class="cls-1" x1="152.55" y1="256.94" x2="152.55" y2="280.33"/><line class="cls-1" x1="178.04" y1="250.11" x2="178.04" y2="279.54"/><line class="cls-1" x1="203.79" y1="240.39" x2="203.79" y2="280.33"/></svg>