<svg id="Capa_1" enable-background="new 0 0 509.998 509.998" height="512" viewBox="0 0 509.998 509.998" width="512" xmlns="http://www.w3.org/2000/svg"><g><path d="m457.407 106.691-159.869-73.92c-15.27-7.056-33.393-.174-40.11 15.289-6.53 15.041.601 32.551 15.48 39.431l106.229 49.12c-6.97-3.23-15.17-3.79-22.95-.931-15.54 5.71-23.52 22.96-17.8 38.5l26.25 71.761c4.561 12.459 13.891 22.59 25.93 28.16l119.431 47.34v-141.441z"/><path d="m171.61 175.18c5.72-15.54-2.26-32.79-17.8-38.5-7.78-2.859-15.98-2.3-22.95.931l106.229-49.12c14.88-6.88 22.011-24.39 15.48-39.431-6.706-15.437-24.815-22.357-40.11-15.289l-159.87 73.92-52.589 73.309v141.441l119.431-47.34c12.039-5.57 21.369-15.701 25.93-28.16z"/><path d="m332.028 352.2c-39.082 50.312-114.845 50.482-154.059 0-25.376 12.036-42.971 37.897-42.971 67.8v60h60v-45h30v45h60v-45h30v45h60c0-7.26 0-52.693 0-60 .001-29.903-17.594-55.764-42.97-67.8z"/><circle cx="254.999" cy="292.5" r="67.5"/></g></svg>