<svg enable-background="new 0 0 250 250" height="512" viewBox="0 0 250 250" width="512" xmlns="http://www.w3.org/2000/svg"><g id="Layer_1_36_"><g clip-rule="evenodd" fill-rule="evenodd"><path d="m17.29 202.83v-92.28c0-7.44 6.08-13.52 13.52-13.52h188.37c7.43 0 13.52 6.08 13.52 13.52v92.28c0 7.43-6.08 13.52-13.52 13.52h-188.37c-7.43 0-13.52-6.08-13.52-13.52z" fill="#8accff"/><path d="m17.29 110.56v92.28c0 7.44 6.08 13.52 13.52 13.52h13.52v-119.32h-13.52c-7.43 0-13.52 6.08-13.52 13.52z" fill="#63475a"/><path d="m34.42 161.48c0 1.99-1.61 3.61-3.61 3.61-1.99 0-3.61-1.61-3.61-3.61v-9.56c0-1.99 1.61-3.61 3.61-3.61 1.99 0 3.61 1.61 3.61 3.61z" fill="#38192e"/><path d="m232.71 110.56v92.28c0 7.44-6.08 13.52-13.52 13.52h-13.52v-119.32h13.52c7.43 0 13.52 6.08 13.52 13.52z" fill="#63475a"/><path d="m222.79 170.58c0 1.99-1.61 3.61-3.61 3.61-1.99 0-3.61-1.61-3.61-3.61v-27.78c0-1.99 1.61-3.61 3.61-3.61 1.99 0 3.61 1.61 3.61 3.61z" fill="#38192e"/><path d="m75.92 184.45c-1.22 1.56-3.48 1.84-5.04.62s-1.84-3.48-.62-5.04l18.16-23.2c1.22-1.56 3.48-1.84 5.04-.62s1.84 3.48.62 5.04zm24.65-23.53c-1.38-1.43-1.33-3.71.1-5.08 1.43-1.38 3.71-1.33 5.08.1l23.51 24.42c1.38 1.43 1.33 3.71-.1 5.08-1.43 1.38-3.71 1.33-5.08-.1zm40.59 23.12c-1.14 1.63-3.39 2.02-5.01.87-1.63-1.14-2.02-3.39-.87-5.01l31.99-45.46c1.14-1.63 3.39-2.02 5.01-.87 1.63 1.14 2.02 3.39.87 5.01z" fill="#ffe45c"/><g fill="#7dcd75"><path d="m67.48 198.51c5.01 0 9.1-4.09 9.1-9.1s-4.09-9.1-9.1-9.1-9.1 4.09-9.1 9.1 4.09 9.1 9.1 9.1z"/><path d="m96.85 160.98c5.01 0 9.1-4.09 9.1-9.1s-4.09-9.1-9.1-9.1-9.1 4.09-9.1 9.1 4.09 9.1 9.1 9.1z"/><path d="m132.98 198.51c5.01 0 9.1-4.09 9.1-9.1s-4.09-9.1-9.1-9.1-9.1 4.09-9.1 9.1 4.09 9.1 9.1 9.1z"/><path d="m177.57 138.84c7.04 0 12.79-5.74 12.79-12.79 0-7.04-5.74-12.79-12.79-12.79-7.04 0-12.79 5.74-12.79 12.79.01 7.04 5.75 12.79 12.79 12.79z"/></g><path d="m177.57 33.65c17.58 0 31.83 14.25 31.83 31.83s-14.25 40.04-31.83 60.57c-17.58-20.53-31.83-42.99-31.83-60.57s14.25-31.83 31.83-31.83z" fill="#fe5857"/><path d="m177.57 79.53c7.74 0 14.05-6.31 14.05-14.05s-6.31-14.05-14.05-14.05-14.05 6.31-14.05 14.05c0 7.73 6.31 14.05 14.05 14.05z" fill="#ffe45c"/></g></g></svg>