<svg id="Layer_2" data-name="Layer 2" xmlns="http://www.w3.org/2000/svg" viewBox="0 0 310.96 312.4"><defs><style>.cls-1,.cls-3{fill:none;}.cls-1,.cls-2,.cls-3{stroke:#231f20;stroke-miterlimit:10;}.cls-1{stroke-width:10px;}.cls-2{fill:#231f20;stroke-width:6px;}.cls-3{stroke-width:3px;}</style></defs><title>gyro</title><path class="cls-1" d="M243.09,74.32c-15.47-38.08-34.35-40.44-43.82-41.82a37.41,37.41,0,0,0-22,3.27C145.31,51.62,121.56,111.53,121.56,183c0,78.95,29,143.78,65.93,150.74l.1,0a39.57,39.57,0,0,0,33.57-9c10.4-9.2,20.4-20.35,25.5-50.94" transform="translate(-33.91 -27.08)"/><path class="cls-1" d="M188.51,262.67c83.59,0,151.35-32.47,151.35-72.52s-67.76-72.53-151.35-72.53c-59,0-110.07,16.16-135,39.74a45.88,45.88,0,0,0-8,57.18c7.38,12.17,21.23,25.37,47.17,30.5" transform="translate(-33.91 -27.08)"/><path class="cls-2" d="M228.27,79.56,256,64.19a2.42,2.42,0,0,1,3.58,2.32l-2.15,26.15a2.43,2.43,0,0,1-3.36,2L228.5,83.91A2.42,2.42,0,0,1,228.27,79.56Z" transform="translate(-33.91 -27.08)"/><path class="cls-2" d="M92,226l-9.71,33a2.69,2.69,0,0,0,3.53,3.28l24-9a4.41,4.41,0,0,0,1.93-6.85l-16.46-21.1A1.89,1.89,0,0,0,92,226Z" transform="translate(-33.91 -27.08)"/><line class="cls-3" x1="96.71" y1="136.13" x2="127.08" y2="136.13"/><line class="cls-3" x1="196.63" y1="136.13" x2="227.26" y2="136.13"/><line class="cls-3" x1="111.89" y1="132.85" x2="111.89" y2="143.66"/><line class="cls-3" x1="211.95" y1="132.94" x2="211.95" y2="143.47"/><rect class="cls-3" x="106.85" y="143.66" width="10.53" height="21.82"/><rect class="cls-3" x="206.59" y="143.66" width="11.1" height="21.82"/><path class="cls-3" d="M175.7,187.78H151.29v-9h20v4.63A4.38,4.38,0,0,0,175.7,187.78Z" transform="translate(-33.91 -27.08)"/><path class="cls-3" d="M240.5,178.78v9H215.71a4.39,4.39,0,0,0,4.37-4.37v-4.63Z" transform="translate(-33.91 -27.08)"/><path class="cls-3" d="M180.27,194.18a41.57,41.57,0,0,0-22,37.89H148.05a3.27,3.27,0,0,1-3.27-3.27h0a3.65,3.65,0,0,1,3.66-3.65h3.74c.13-24.25,25.15-37,25.15-37l6.7,13.59h23.54l6.89-13.59s25.65,11.68,25.14,37l4.49-.07a3.49,3.49,0,0,1,3.55,3.49h0a3.49,3.49,0,0,1-3.49,3.5H232s5.67-21.87-20.62-37.69" transform="translate(-33.91 -27.08)"/><rect class="cls-3" x="158.16" y="174.72" width="7.66" height="7.99"/><rect class="cls-3" x="152.6" y="183.1" width="17.9" height="11.68" rx="5.84"/><circle class="cls-3" cx="161.55" cy="188.93" r="2.92"/><path class="cls-3" d="M220.08,174.76v8.65a4.39,4.39,0,0,1-4.37,4.37h-40a4.38,4.38,0,0,1-4.37-4.37v-7.82a9.08,9.08,0,0,1,9.06-9.06h31.45A8.26,8.26,0,0,1,220.08,174.76Z" transform="translate(-33.91 -27.08)"/></svg>