<svg id="Layer_2" data-name="Layer 2" xmlns="http://www.w3.org/2000/svg" viewBox="0 0 1021.47 1026.3"><defs><style>.cls-1{fill:none;}.cls-1,.cls-2{stroke:#231f20;stroke-miterlimit:10;stroke-width:15px;}.cls-2{fill:#231f20;}</style></defs><title>gyro</title><path class="cls-1" d="M780.1,173.36C728.36,46,665.22,38.12,633.55,33.51c-25.11-3.67-51-.39-73.7,10.9-106.77,53-186.17,253.38-186.17,492.44,0,264,96.86,480.83,220.46,504.11l.35.06c40.08,7.55,81.72-3.22,112.26-30.24C741.53,980,775,942.72,792,840.41" transform="translate(-89.76 -24.58)"/><path class="cls-1" d="M597.55,803.24c279.56,0,506.18-108.59,506.18-242.54S877.11,318.15,597.55,318.15c-197.21,0-368.08,54.05-451.63,132.91-52.72,49.77-64.18,129.21-26.6,191.21,24.67,40.7,71,84.84,157.74,102" transform="translate(-89.76 -24.58)"/><path class="cls-2" d="M730.53,190.86l92.86-51.39a8.1,8.1,0,0,1,12,7.75l-7.21,87.45a8.1,8.1,0,0,1-11.21,6.8L731.31,205.4A8.09,8.09,0,0,1,730.53,190.86Z" transform="translate(-89.76 -24.58)"/><path class="cls-2" d="M274.71,680.54,242.24,790.93a9,9,0,0,0,11.8,11l80.25-30A14.78,14.78,0,0,0,340.77,749l-55.06-70.55A6.3,6.3,0,0,0,274.71,680.54Z" transform="translate(-89.76 -24.58)"/><line class="cls-1" x1="314.19" y1="446.04" x2="415.77" y2="446.04"/><line class="cls-1" x1="648.37" y1="446.04" x2="750.79" y2="446.04"/><line class="cls-1" x1="364.98" y1="435.05" x2="364.98" y2="471.22"/><line class="cls-1" x1="699.58" y1="435.37" x2="699.58" y2="470.58"/><rect class="cls-1" x="348.12" y="471.22" width="35.21" height="72.98"/><rect class="cls-1" x="681.65" y="471.22" width="37.13" height="72.98"/><path class="cls-1" d="M554.71,552.77H473.1v-30.1h67v15.49A14.65,14.65,0,0,0,554.71,552.77Z" transform="translate(-89.76 -24.58)"/><path class="cls-1" d="M771.42,522.67v30.1H688.51a14.66,14.66,0,0,0,14.62-14.61V522.67Z" transform="translate(-89.76 -24.58)"/><path class="cls-1" d="M570,574.19c-80.23,44.38-73.44,126.72-73.44,126.72H462.26A10.93,10.93,0,0,1,451.33,690h0a12.22,12.22,0,0,1,12.21-12.22h12.54c.43-81.09,84.08-123.55,84.08-123.55l22.4,45.45h78.75l23-45.45s85.79,39,84.08,123.55l15-.23a11.69,11.69,0,0,1,11.88,11.69h0a11.7,11.7,0,0,1-11.7,11.7h-40.8s19-73.15-68.93-126.07" transform="translate(-89.76 -24.58)"/><rect class="cls-1" x="519.69" y="575.08" width="25.61" height="26.74"/><rect class="cls-1" x="501.12" y="603.09" width="59.86" height="39.05" rx="5.84"/><path class="cls-1" d="M703.13,509.24v28.92a14.66,14.66,0,0,1-14.62,14.61H554.71a14.65,14.65,0,0,1-14.61-14.61V512a30.39,30.39,0,0,1,30.3-30.31H675.6A27.61,27.61,0,0,1,703.13,509.24Z" transform="translate(-89.76 -24.58)"/></svg>