<svg id="Layer_2" data-name="Layer 2" xmlns="http://www.w3.org/2000/svg" viewBox="0 0 1222.39 1136.94"><defs><style>.cls-1{fill:none;stroke:#231f20;stroke-miterlimit:10;stroke-width:17px;}</style></defs><title>level_horizon</title><polyline class="cls-1" points="62.23 423.51 62.23 77.12 336.07 77.12 336.07 1041.69 62.23 1041.69 62.23 489.24"/><path class="cls-1" d="M710.4,864.31v147.93H819.15V864.31h49.2L776.33,739a9.54,9.54,0,0,0-15.58-.22l-96.52,124.8Z" transform="translate(-12.43 -80.31)"/><line class="cls-1" x1="243.28" y1="77.12" x2="336.07" y2="77.12"/><line class="cls-1" x1="243.28" y1="173.79" x2="336.07" y2="173.79"/><line class="cls-1" x1="243.28" y1="267.88" x2="336.07" y2="267.88"/><line class="cls-1" x1="243.28" y1="366.28" x2="336.07" y2="366.28"/><line class="cls-1" x1="243.28" y1="461.22" x2="336.07" y2="461.22"/><line class="cls-1" x1="243.28" y1="554.44" x2="336.07" y2="554.44"/><line class="cls-1" x1="243.28" y1="654.57" x2="336.07" y2="654.57"/><line class="cls-1" x1="243.28" y1="747.79" x2="336.07" y2="747.79"/><line class="cls-1" x1="243.28" y1="847.92" x2="336.07" y2="847.92"/><line class="cls-1" x1="243.28" y1="942.86" x2="336.07" y2="942.86"/><line class="cls-1" x1="371.09" y1="194.91" x2="542.65" y2="194.91"/><line class="cls-1" x1="935.51" y1="194.91" x2="1108.52" y2="194.91"/><line class="cls-1" x1="456.87" y1="176.35" x2="456.87" y2="237.44"/><line class="cls-1" x1="1022.02" y1="176.89" x2="1022.02" y2="236.36"/><rect class="cls-1" x="428.4" y="237.44" width="59.47" height="123.27"/><rect class="cls-1" x="991.74" y="237.44" width="62.71" height="123.27"/><path class="cls-1" d="M638.16,414H500.31V363.16H613.47v26.15A24.76,24.76,0,0,0,638.16,414Z" transform="translate(-12.43 -80.31)"/><path class="cls-1" d="M1004.17,363.16V414h-140a24.76,24.76,0,0,0,24.68-24.69V363.16Z" transform="translate(-12.43 -80.31)"/><path class="cls-1" d="M664,450.17c-135.52,75-124,214-124,214H482a18.47,18.47,0,0,1-18.47-18.47h0a20.64,20.64,0,0,1,20.63-20.64h21.18c.72-137,142-208.68,142-208.68l37.85,76.77h133l38.92-76.77s144.89,65.95,142,208.68l25.34-.4a19.75,19.75,0,0,1,20.07,19.75h0a19.76,19.76,0,0,1-19.75,19.76H955.88s32.06-123.54-116.44-212.93" transform="translate(-12.43 -80.31)"/><rect class="cls-1" x="686.82" y="460.18" width="101.1" height="65.96" rx="6.17"/><circle class="cls-1" cx="737.37" cy="493.16" r="16.49"/><path class="cls-1" d="M888.83,340.47v48.84A24.76,24.76,0,0,1,864.15,414h-226a24.76,24.76,0,0,1-24.69-24.69V345.16A51.33,51.33,0,0,1,664.66,294H842.34A46.63,46.63,0,0,1,888.83,340.47Z" transform="translate(-12.43 -80.31)"/><rect class="cls-1" x="713.42" y="412.86" width="47.91" height="47.32"/><rect class="cls-1" x="8.5" y="8.5" width="1205.39" height="1119.94"/></svg>