<svg id="Layer_2" data-name="Layer 2" xmlns="http://www.w3.org/2000/svg" viewBox="0 0 495.28 460.6"><defs><style>.cls-1,.cls-2{fill:none;stroke:#231f20;stroke-miterlimit:10;}.cls-1{stroke-width:6px;}.cls-2{stroke-width:4px;}</style></defs><title>level_horizon</title><polyline class="cls-1" points="24.81 171.46 24.81 30.85 135.96 30.85 135.96 422.39 24.81 422.39 24.81 198.14"/><path class="cls-2" d="M300.8,403.6v60h44.14v-60h20l-37.35-50.86a3.87,3.87,0,0,0-6.32-.08l-39.18,50.65Z" transform="translate(-17.93 -85.81)"/><line class="cls-1" x1="98.3" y1="30.85" x2="135.96" y2="30.85"/><line class="cls-1" x1="98.3" y1="70.09" x2="135.96" y2="70.09"/><line class="cls-1" x1="98.3" y1="108.28" x2="135.96" y2="108.28"/><line class="cls-1" x1="98.3" y1="148.23" x2="135.96" y2="148.23"/><line class="cls-1" x1="98.3" y1="186.77" x2="135.96" y2="186.77"/><line class="cls-1" x1="98.3" y1="224.61" x2="135.96" y2="224.61"/><line class="cls-1" x1="98.3" y1="265.25" x2="135.96" y2="265.25"/><line class="cls-1" x1="98.3" y1="303.09" x2="135.96" y2="303.09"/><line class="cls-1" x1="98.3" y1="343.73" x2="135.96" y2="343.73"/><line class="cls-1" x1="98.3" y1="382.27" x2="135.96" y2="382.27"/><line class="cls-2" x1="150.18" y1="78.67" x2="219.82" y2="78.67"/><line class="cls-2" x1="379.29" y1="78.67" x2="449.51" y2="78.67"/><line class="cls-2" x1="185" y1="71.13" x2="185" y2="95.93"/><line class="cls-2" x1="414.4" y1="71.35" x2="414.4" y2="95.49"/><rect class="cls-2" x="173.44" y="95.93" width="24.14" height="50.03"/><rect class="cls-2" x="402.11" y="95.93" width="25.46" height="50.03"/><path class="cls-2" d="M271.47,220.81h-56V200.17h45.93v10.62A10.05,10.05,0,0,0,271.47,220.81Z" transform="translate(-17.93 -85.81)"/><path class="cls-2" d="M420,200.17v20.64H363.2a10.05,10.05,0,0,0,10-10V200.17Z" transform="translate(-17.93 -85.81)"/><path class="cls-2" d="M282,235.49c-55,30.43-50.35,86.88-50.35,86.88H208.09a7.5,7.5,0,0,1-7.5-7.5h0A8.38,8.38,0,0,1,209,306.5h8.59c.3-55.6,57.65-84.71,57.65-84.71L290.57,253h54l15.8-31.16S419.17,248.56,418,306.5l10.28-.17a8,8,0,0,1,8.15,8h0a8,8,0,0,1-8,8h-28s13-50.15-47.26-86.43" transform="translate(-17.93 -85.81)"/><rect class="cls-2" x="278.34" y="186.34" width="41.04" height="26.77" rx="6.17"/><circle class="cls-2" cx="298.86" cy="199.73" r="6.69"/><path class="cls-2" d="M373.23,191v19.83a10.05,10.05,0,0,1-10,10H271.47a10.05,10.05,0,0,1-10-10V192.87a20.84,20.84,0,0,1,20.78-20.78h72.12A18.93,18.93,0,0,1,373.23,191Z" transform="translate(-17.93 -85.81)"/><rect class="cls-2" x="289.13" y="167.14" width="19.45" height="19.21"/><rect class="cls-1" x="3" y="3" width="489.28" height="454.6"/></svg>