<svg id="Layer_1" enable-background="new 0 0 64 64" height="64" viewBox="0 0 64 64" width="64" xmlns="http://www.w3.org/2000/svg"><g fill="rgb(0,0,0)"><path d="m40.826 50.065c-4.48 6.492-8.393 11.406-8.434 11.457-.195.248-.494.393-.805.393-.309 0-.609-.145-.805-.393-.041-.051-3.924-4.912-8.383-11.365-10.096 1.291-15.371 4.285-15.371 6.627 0 3.406 10.25 7.215 24.971 7.215 14.711 0 24.971-3.809 24.971-7.215.001-2.373-5.656-5.502-16.144-6.719z"/><path d="m19.271 41.632c1.344 2.168 2.85 4.469 4.471 6.844 3.365 4.883 6.432 8.918 7.846 10.734 1.414-1.826 4.512-5.904 7.887-10.828 1.58-2.301 3.066-4.572 4.428-6.762 3.52-5.688 6.008-10.539 7.402-14.42.877-2.416 1.32-4.49 1.32-6.152 0-11.602-9.434-21.047-21.037-21.047-11.613 0-21.059 9.445-21.059 21.047 0 1.662.443 3.736 1.332 6.143 1.393 3.902 3.881 8.763 7.41 14.441zm-4.242-22.328c0-.578.465-1.033 1.033-1.033h2.445c.33-1.445.908-2.827 1.695-4.087l-1.736-1.724c-.402-.402-.402-1.063 0-1.466l2.818-2.817c.197-.187.455-.301.734-.301.268 0 .535.114.723.301l1.734 1.733c1.258-.784 2.643-1.362 4.076-1.692v-2.447c0-.567.465-1.031 1.033-1.031h3.984c.568 0 1.031.464 1.031 1.031v2.447c1.445.33 2.828.908 4.088 1.692l1.725-1.733c.393-.383 1.072-.383 1.465 0l2.809 2.817c.402.402.402 1.063 0 1.466l-1.725 1.724c.785 1.26 1.363 2.642 1.693 4.087h2.447c.566 0 1.031.455 1.031 1.033v3.975c0 .578-.465 1.031-1.031 1.031h-2.447c-.33 1.445-.908 2.828-1.693 4.088l1.725 1.734c.402.402.402 1.053 0 1.455l-2.809 2.818c-.393.383-1.072.383-1.465 0l-1.725-1.734c-1.26.785-2.643 1.363-4.088 1.693v2.447c0 .566-.463 1.031-1.031 1.031h-3.984c-.568 0-1.033-.465-1.033-1.031v-2.447c-1.434-.33-2.818-.908-4.076-1.693l-1.734 1.734c-.383.383-1.074.383-1.457 0l-2.818-2.818c-.402-.402-.402-1.053 0-1.455l1.736-1.734c-.787-1.26-1.365-2.643-1.695-4.088h-2.445c-.568 0-1.033-.453-1.033-1.031z"/><path d="m20.367 23.122c.279 1.715.971 3.377 2.002 4.801.289.412.248.98-.113 1.332l-1.6 1.6 1.363 1.363 1.59-1.602c.361-.361.928-.402 1.342-.113 1.424 1.033 3.086 1.715 4.799 1.992.506.084.867.518.867 1.023v2.26h1.92v-2.26c0-.506.373-.939.867-1.023 1.725-.277 3.387-.959 4.811-1.992.414-.289.971-.248 1.332.113l1.6 1.602 1.352-1.363-1.6-1.6c-.35-.352-.402-.92-.104-1.332 1.023-1.424 1.715-3.086 1.992-4.801.084-.506.518-.877 1.023-.877h2.26v-1.91h-2.26c-.506 0-.939-.371-1.023-.867-.277-1.723-.969-3.385-1.992-4.809-.299-.414-.246-.971.104-1.332l1.6-1.6-1.352-1.353-1.6 1.6c-.361.351-.93.403-1.332.104-1.424-1.022-3.086-1.714-4.811-1.992-.494-.083-.867-.517-.867-1.022v-2.26h-1.92v2.26c0 .506-.361.939-.867 1.022-1.723.278-3.375.97-4.799 1.992-.414.3-.98.247-1.342-.104l-1.59-1.6-1.363 1.353 1.6 1.6c.361.361.402.918.113 1.332-1.031 1.424-1.723 3.086-2.002 4.809-.072.496-.506.867-1.012.867h-2.262v1.91h2.262c.506 0 .94.371 1.012.877zm11.211-7.504c3.479 0 6.307 2.828 6.307 6.307 0 3.469-2.828 6.297-6.307 6.297-3.469 0-6.297-2.828-6.297-6.297 0-3.479 2.828-6.307 6.297-6.307z"/><path d="m31.578 26.157c2.342 0 4.242-1.898 4.242-4.232 0-2.342-1.9-4.242-4.242-4.242-2.334 0-4.232 1.9-4.232 4.242 0 2.334 1.898 4.232 4.232 4.232z"/></g></svg>