<svg height="512" viewBox="0 0 512 512" width="512" xmlns="http://www.w3.org/2000/svg"><g id="Layer_2" data-name="Layer 2"><g id="switch"><path d="m256 0c-141.38 0-256 114.62-256 256s114.62 256 256 256 256-114.62 256-256-114.62-256-256-256zm-26.16 142.16a26.16 26.16 0 0 1 52.32 0v82.14a26.16 26.16 0 0 1 -52.32 0zm24.56 253.84a128.75 128.75 0 0 1 -82.5-226.24c11.81-10.2 30.18-5.63 36.11 8.8a23.1 23.1 0 0 1 -6.33 26.21 82.85 82.85 0 1 0 108.49-.13 22.93 22.93 0 0 1 -6.17-26.08 23 23 0 0 1 36.25-8.7 128.76 128.76 0 0 1 -85.85 226.14z"/></g></g></svg>