<svg id="Layer_2" data-name="Layer 2" xmlns="http://www.w3.org/2000/svg" viewBox="0 0 515.39 535.97"><defs><style>.cls-1{fill:none;stroke:#0d0d0d;stroke-miterlimit:10;stroke-width:14px;}</style></defs><title>map selection</title><path class="cls-1" d="M311.55,286.52,215.77,453.18,90.1,240.82a160.62,160.62,0,0,1-21.91-98.63C73.13,95.67,99.65,40.7,190.67,18.89a121.68,121.68,0,0,1,52.93-1.05c46,9.49,125.68,45.54,111.18,182" transform="translate(-52.8 -8.42)"/><path class="cls-1" d="M419.3,356.27,317.34,254c-5.95-6-7.16-15.44-2.37-22.39,2.49-3.62,6.63-6.73,13.41-7.88a13.91,13.91,0,0,1,12.13,4l53.88,53.87s-4.49-27.4,24.91-26.4c0,0,4.48-25.71,23.42-20.83,0,0,2.32-18.63,24.33-18.3a21.65,21.65,0,0,1,15.29,6.75l70,73.23s19.93,21.93,0,60.29c0,0-31.89,43.35-42.35,47.33,0,0-11.12,9.31-32,11.84a82.83,82.83,0,0,1-51.61-11.05c-30.83-18-95.28-61.9-49.86-91" transform="translate(-52.8 -8.42)"/><path class="cls-1" d="M135.25,391.66C89.94,405.59,59.8,430.34,59.8,458.55c0,43.55,71.77,78.84,160.3,78.84s160.31-35.29,160.31-78.84c0,0,13.57-55.91-82.84-66.89" transform="translate(-52.8 -8.42)"/><circle class="cls-1" cx="163.77" cy="151.47" r="56.1"/></svg>