<svg id="Capa_1" enable-background="new 0 0 512 512" height="512" viewBox="0 0 512 512" width="512" xmlns="http://www.w3.org/2000/svg"><g><path d="m151 482h210v30h-210z"/><path d="m241 180h30v45h30v-83.789l-45-45-45 45v83.789h30z"/><path d="m242.245 423.896 13.755 31.553 13.755-31.553c14.575-33.457 38.745-57.612 64.321-83.188 42.73-42.715 86.924-86.88 86.924-175.708 0-90.981-74.019-165-165-165s-165 74.019-165 165c0 88.828 44.194 132.993 86.924 175.708 25.576 25.576 49.746 49.731 64.321 83.188zm-86.85-269.501 100.605-100.606 100.605 100.605-21.211 21.211-4.394-4.394v83.789h-150v-83.789l-4.395 4.395z"/></g></svg>