<svg id="Layer_1" enable-background="new 0 0 512 512" viewBox="0 0 512 512" xmlns="http://www.w3.org/2000/svg"><path clip-rule="evenodd" d="m109.11 288.02-22.48 55.62c-3.29 8.25-12.64 12.27-20.89 8.96l-55.64-22.48c-8.25-3.32-12.25-12.67-8.93-20.92 3.29-8.25 12.67-12.25 20.89-8.93l16.16 6.52c-2.55-6.58-4.85-13.29-6.8-20.13-5.92-20.55-9.07-42.24-9.07-64.63s3.15-44.08 9.07-64.6c6.09-21.2 15.17-41.22 26.7-59.58 4.73-7.51 14.66-9.78 22.17-5.05s9.78 14.66 5.05 22.17c-9.89 15.7-17.66 32.94-22.93 51.28-5.07 17.69-7.82 36.4-7.82 55.79s2.75 38.13 7.82 55.81c2.1 7.31 4.62 14.46 7.48 21.4l9.38-23.19c3.32-8.25 12.67-12.25 20.92-8.96 8.24 3.32 12.24 12.67 8.92 20.92zm392.8-174.05-55.64-22.48c-8.25-3.32-17.6.68-20.92 8.93l-22.48 55.64c-3.29 8.22.71 17.6 8.96 20.89 8.25 3.32 17.6-.68 20.92-8.93l9.35-23.22c2.89 6.94 5.39 14.09 7.51 21.43 5.07 17.69 7.8 36.4 7.8 55.79s-2.72 38.13-7.8 55.81c-5.27 18.34-13.07 35.55-22.93 51.25-4.73 7.51-2.47 17.43 5.05 22.17s17.43 2.49 22.17-5.02c11.54-18.37 20.61-38.38 26.7-59.58 5.9-20.55 9.07-42.24 9.07-64.63s-3.17-44.08-9.07-64.6c-1.96-6.86-4.25-13.55-6.8-20.13l16.13 6.52c8.25 3.29 17.63-.71 20.92-8.96 3.3-8.21-.72-17.59-8.94-20.88zm-156.5 13.07c31.89 31.86 40.22 65.99 34.81 100.49-10.44 66.47-78.55 129.91-115.46 189.27-1.93 3.12-5.07 4.88-8.76 4.88s-6.83-1.76-8.76-4.88c-36.9-59.36-105.05-122.8-115.45-189.27-5.41-34.5 2.92-68.63 34.81-100.49 48.92-48.95 129.88-48.95 178.81 0zm-42.15 42.15c-25.99-25.99-68.51-25.99-94.51 0s-25.99 68.51 0 94.51 68.51 25.99 94.51 0 25.99-68.51 0-94.51z" fill-rule="evenodd"/></svg>