<svg id="Layer_1" enable-background="new 0 0 72 72" height="512" viewBox="0 0 72 72" width="512" xmlns="http://www.w3.org/2000/svg"><g id="Layer_2_1_"><g id="Layer_1-2"><path id="eraser" d="m65.5 27.2c0-2.4-.9-4.6-2.6-6.3l-8.8-8.8c-3.5-3.5-9.1-3.5-12.6 0l-28.4 28.4c-3.5 3.5-3.5 9.1 0 12.6l4.5 4.5h-8.6c-1.4 0-2.5 1.1-2.5 2.5s1.1 2.5 2.5 2.5h38.5c1.4 0 2.5-1.1 2.5-2.5s-1.1-2.5-2.5-2.5h-8.7l24.1-24.1c1.7-1.7 2.6-4 2.6-6.3zm-40.8 30.3-8.1-8.1c-1.5-1.5-1.5-4 0-5.5l4.2-4.2 14.3 14.4-3.5 3.5h-6.9z"/></g></g></svg>