<svg id="Layer_2" data-name="Layer 2" xmlns="http://www.w3.org/2000/svg" viewBox="0 0 358.58 373.05"><defs><style>.cls-1{fill:none;stroke:#0d0d0d;stroke-miterlimit:10;stroke-width:6px;}</style></defs><title>map selection</title><path class="cls-1" d="M334,296.73,266.66,413.92,178.4,264.77a113.24,113.24,0,0,1-15.47-69.93c3.58-32.61,22.32-71,86-86.28a85.68,85.68,0,0,1,37.5-.73c32.36,6.73,88.18,32.16,78,127.93" transform="translate(-153.98 -103.1)"/><path class="cls-1" d="M409.79,345.78l-71.7-71.94a12.45,12.45,0,0,1-1.67-15.75c1.75-2.54,4.66-4.72,9.43-5.54a9.77,9.77,0,0,1,8.53,2.79l37.89,37.88s-3.16-19.27,17.52-18.57c0,0,3.15-18.07,16.46-14.64,0,0,1.63-13.11,17.11-12.87a15.24,15.24,0,0,1,10.76,4.75l49.21,51.49s14,15.42,0,42.4c0,0-22.42,30.48-29.78,33.28,0,0-7.82,6.55-22.49,8.32a58.19,58.19,0,0,1-36.29-7.76c-21.68-12.68-67-43.54-35.06-64" transform="translate(-153.98 -103.1)"/><path class="cls-1" d="M210,370.66c-31.86,9.8-53.06,27.2-53.06,47,0,30.61,50.47,55.43,112.73,55.43s112.73-24.82,112.73-55.43c0,0,9.54-39.32-58.26-47" transform="translate(-153.98 -103.1)"/><circle class="cls-1" cx="113.24" cy="104.59" r="39.45"/></svg>