<svg id="Icons" height="512" viewBox="0 0 60 60" width="512" xmlns="http://www.w3.org/2000/svg"><path d="m35 15a1 1 0 0 0 -1-1h-2.05a10.98 10.98 0 0 0 -6.95-9.24v4.24a1 1 0 0 1 -2 0v-7h-4v7a1 1 0 0 1 -2 0v-4.241a10.925 10.925 0 0 0 -6.951 9.241h-2.049a1 1 0 0 0 0 2h5v4a8 8 0 0 0 16 0v-4h5a1 1 0 0 0 1-1z"/><circle cx="52" cy="20" r="1"/><path d="m46 8v16a1 1 0 0 0 1 1h10a1 1 0 0 0 1-1v-16a1 1 0 0 0 -1-1h-10a1 1 0 0 0 -1 1zm6 1a3 3 0 1 1 -3 3 3 3 0 0 1 3-3zm0 8a3 3 0 1 1 -3 3 3 3 0 0 1 3-3z"/><circle cx="52" cy="12" r="1"/><path d="m47.002 29h9.996.002l-.001-2h-9.997z"/><path d="m16.05 35.944c-.018-.017-.033-.037-.05-.054v22.11h10v-22.111a6.982 6.982 0 0 1 -9.95.055z"/><path d="m3 58h5v-25.92a7.006 7.006 0 0 0 -6 6.92v18a1 1 0 0 0 1 1z"/><path d="m26 28.647a9.915 9.915 0 0 1 -10 0v2.353a5.009 5.009 0 0 0 5 5 5.006 5.006 0 0 0 5-5z"/><path d="m10 32h4v26h-4z"/><path d="m40 57v-18a7.006 7.006 0 0 0 -6-6.92v25.92h5a1 1 0 0 0 1-1z"/><path d="m28 32h4v26h-4z"/><path d="m55.113 33 2.894 24.119a1 1 0 0 0 .993.881.977.977 0 0 0 .12-.007 1 1 0 0 0 .874-1.112l-3-25a.989.989 0 0 0 -.994-.865v-.016h-8v.016a.989.989 0 0 0 -.993.865l-3 25a1 1 0 0 0 .874 1.112.977.977 0 0 0 .119.007 1 1 0 0 0 .992-.881l2.895-24.119h2.113v11a1 1 0 0 0 0 2v11a1 1 0 0 0 2 0v-11a1 1 0 0 0 0-2v-11z"/></svg>