<svg id="Layer_2" data-name="Layer 2" xmlns="http://www.w3.org/2000/svg" viewBox="0 0 462.82 418.94"><defs><style>.cls-1{fill:none;stroke:#231f20;stroke-miterlimit:10;stroke-width:6px;}</style></defs><title>mark_with_gps</title><path class="cls-1" d="M253.86,477.08l2.78-19.19c-78.54-25.38-96.13-73.76-96.27-111.7l23-.3c.89,32.31,15.38,72.56,77,87.84l1.44-17,42.42,32.39Z" transform="translate(-45.55 -68.43)"/><path class="cls-1" d="M362.75,483s-81.83-84.29-15.88-113.25a38.9,38.9,0,0,1,32.83.53C401.37,380.93,428.75,409.86,362.75,483Z" transform="translate(-45.55 -68.43)"/><circle class="cls-1" cx="317.72" cy="340.08" r="16.16"/><line class="cls-1" y1="11.65" x2="107.67" y2="11.65"/><line class="cls-1" x1="354.24" y1="11.65" x2="462.82" y2="11.65"/><line class="cls-1" x1="53.84" x2="53.84" y2="38.34"/><line class="cls-1" x1="408.53" y1="0.34" x2="408.53" y2="37.66"/><rect class="cls-1" x="35.97" y="38.34" width="37.32" height="77.36"/><rect class="cls-1" x="389.53" y="38.34" width="39.36" height="77.36"/><path class="cls-1" d="M205.37,167.18H118.85V135.27h71v16.41A15.54,15.54,0,0,0,205.37,167.18Z" transform="translate(-45.55 -68.43)"/><path class="cls-1" d="M435.08,135.27v31.91H347.2a15.54,15.54,0,0,0,15.49-15.5V135.27Z" transform="translate(-45.55 -68.43)"/><path class="cls-1" d="M221.58,189.88c-85.05,47.05-77.85,134.33-77.85,134.33H107.36a11.59,11.59,0,0,1-11.59-11.6h0a13,13,0,0,1,13-12.95H122c.45-86,89.13-131,89.13-131l23.75,48.18h83.47l24.43-48.18s90.93,41.4,89.13,131l15.9-.25a12.4,12.4,0,0,1,12.6,12.4h0a12.4,12.4,0,0,1-12.4,12.4H404.77s20.12-77.54-73.08-133.64" transform="translate(-45.55 -68.43)"/><rect class="cls-1" x="217.84" y="148.44" width="27.14" height="28.34"/><rect class="cls-1" x="198.16" y="178.14" width="63.45" height="41.4" rx="7.49"/><circle class="cls-1" cx="229.88" cy="198.84" r="10.35"/><path class="cls-1" d="M362.69,121v30.65a15.54,15.54,0,0,1-15.49,15.5H205.37a15.54,15.54,0,0,1-15.5-15.5V124A32.22,32.22,0,0,1,222,91.85H333.51A29.26,29.26,0,0,1,362.69,121Z" transform="translate(-45.55 -68.43)"/><line class="cls-1" x1="137.78" y1="277.46" x2="114.82" y2="277.75"/></svg>