<svg id="Layer_2" data-name="Layer 2" xmlns="http://www.w3.org/2000/svg" viewBox="0 0 1010.98 929.95"><defs><style>.cls-1{fill:none;stroke:#231f20;stroke-miterlimit:10;stroke-width:20px;}</style></defs><title>mark_with_drone</title><path class="cls-1" d="M453.19,970,459.34,928C287.7,872.6,249.29,766.92,249,684l50.16-.65c1.93,70.57,33.58,158.48,168.09,191.87L470.39,838l92.67,70.75Z" transform="translate(-56.94 -58.6)"/><line class="cls-1" y1="25.45" x2="235.2" y2="25.45"/><line class="cls-1" x1="773.79" y1="25.45" x2="1010.98" y2="25.45"/><line class="cls-1" x1="117.6" x2="117.6" y2="83.76"/><line class="cls-1" x1="892.39" y1="0.74" x2="892.39" y2="82.27"/><rect class="cls-1" x="78.56" y="83.76" width="81.53" height="168.99"/><rect class="cls-1" x="850.89" y="83.76" width="85.97" height="168.99"/><path class="cls-1" d="M406,274.3H217V204.6H372.18v35.86A34,34,0,0,0,406,274.3Z" transform="translate(-56.94 -58.6)"/><path class="cls-1" d="M907.82,204.6v69.7h-192a34,34,0,0,0,33.86-33.84V204.6Z" transform="translate(-56.94 -58.6)"/><path class="cls-1" d="M441.45,323.87C255.67,426.65,271.38,617.3,271.38,617.3H192A25.31,25.31,0,0,1,166.64,592h0a28.27,28.27,0,0,1,28.27-28.3H224c1-187.77,194.68-286.1,194.68-286.1l51.9,105.25H652.85l53.37-105.25S904.85,368,900.9,563.69l34.75-.55a27.08,27.08,0,0,1,27.51,26.63v.45h0a27.08,27.08,0,0,1-27.08,27.08H841.61S885.56,447.94,682,325.39" transform="translate(-56.94 -58.6)"/><rect class="cls-1" x="475.84" y="324.24" width="59.29" height="61.91"/><rect class="cls-1" x="432.85" y="389.12" width="138.6" height="90.43" rx="9.7"/><circle class="cls-1" cx="502.16" cy="434.34" r="22.61"/><path class="cls-1" d="M749.7,173.48v67a34,34,0,0,1-33.86,33.85H406a34,34,0,0,1-33.84-33.85V179.92a70.39,70.39,0,0,1,70.18-70.18H686A63.94,63.94,0,0,1,749.7,173.48Z" transform="translate(-56.94 -58.6)"/><polyline class="cls-1" points="590.26 929.43 590.26 652.48 754.89 652.48 703.55 715.33 754.89 776.4 592.72 776.2"/></svg>