<svg id="Layer_1" data-name="Layer 1" xmlns="http://www.w3.org/2000/svg" viewBox="0 0 1747.39 1233.63"><defs><style>.cls-1{fill:none;stroke-width:26px;}.cls-1,.cls-2{stroke:#231f20;stroke-miterlimit:10;}.cls-2{fill:#231f20;stroke-width:3px;}</style></defs><title>mark_with_gps</title><path class="cls-1" d="M1220.93,356.37H238.23c-46.62,0-84.47,35-84.47,78.25v847.59c0,43.23,37.85,78.29,84.47,78.29H1790.68c46.62,0,84.47-35.06,84.47-78.29V434.62c0-43.23-37.85-78.25-84.47-78.25m-927.54,533a89,89,0,1,1,24.18-61A88.58,88.58,0,0,1,863.14,889.33ZM1074.59,1217A89,89,0,1,1,1129,1057.59h0A89,89,0,0,1,1074.59,1217Z" transform="translate(-140.76 -139.87)"/><path class="cls-1" d="M383.28,356.37V1360.5h-145c-46.62,0-84.47-35.06-84.47-78.29V434.62c0-43.23,37.85-78.25,84.47-78.25Z" transform="translate(-140.76 -139.87)"/><path class="cls-1" d="M1875.15,434.62v847.59c0,43.23-37.85,78.29-84.47,78.29H1664.76V356.37h125.92C1837.3,356.37,1875.15,391.39,1875.15,434.62Z" transform="translate(-140.76 -139.87)"/><rect class="cls-2" x="1608.37" y="557.86" width="41.64" height="261.25" rx="20.82"/><rect class="cls-2" x="106.94" y="612.86" width="41.64" height="211.42" rx="20.82"/><path class="cls-1" d="M1369.73,714.48" transform="translate(-140.76 -139.87)"/><circle class="cls-1" cx="421.65" cy="988.14" r="89.03"/><path class="cls-1" d="M1483.81,672.15a89,89,0,1,1-138.9-73.72c5.17,6.47,10.11,12.45,14.72,18,1.53,1.86,3.07,3.6,4.52,5.34,1.7,2,3.4,3.92,4.94,5.78.93,1,1.78,2,2.63,3,2.87,3.28,5.5,6.23,7.8,8.86.81.85,1.5,1.62,2.18,2.39,6.84,7.56,10.8,11.64,10.8,11.64q6.91-7.58,13.47-15.08c2.18-2.47,4.32-4.93,6.47-7.44s4.24-4.89,6.34-7.36,4.17-4.81,6.15-7.24,4-4.81,6.07-7.24,3.92-4.77,5.86-7.11c1.5-1.86,3-3.72,4.49-5.58A88.88,88.88,0,0,1,1483.81,672.15Z" transform="translate(-140.76 -139.87)"/><path class="cls-1" d="M1465.25,169.64c-44.16-21.8-95.76-22.12-140.84-2.31-118,51.8-125.8,144.89-94.79,235.79,8.41,24.5,19.61,48.89,32.23,72.26,1.54,2.83,3.07,5.62,4.65,8.41,1,1.74,1.94,3.48,3,5.22.57,1.05,1.21,2.06,1.78,3.11.28.45.57.93.81,1.38,1.41,2.42,2.83,4.81,4.25,7.19,1.65,2.71,3.27,5.42,4.93,8.09,4,6.55,8.17,13,12.33,19.33,1.78,2.79,3.64,5.54,5.5,8.25,1.3,1.9,2.63,3.84,3.88,5.7,1.46,2.14,2.91,4.25,4.37,6.35,4,5.66,7.93,11.16,11.85,16.46,1.78,2.46,3.56,4.85,5.34,7.23,1.29,1.7,2.58,3.4,3.84,5.1,4.65,6.15,9.26,12,13.67,17.59,1,1.25,1.94,2.47,2.91,3.64,5.17,6.47,10.11,12.45,14.72,18,1.53,1.86,3.07,3.6,4.52,5.34,1.7,2,3.4,3.92,4.94,5.78.93,1,1.78,2,2.63,3,2.87,3.28,5.5,6.23,7.8,8.86.81.85,1.5,1.62,2.18,2.39,6.84,7.56,10.8,11.64,10.8,11.64q6.91-7.58,13.47-15.08c2.18-2.47,4.32-4.93,6.47-7.44s4.24-4.89,6.34-7.36,4.17-4.81,6.15-7.24,4-4.81,6.07-7.24,3.92-4.77,5.86-7.11c1.5-1.86,3-3.72,4.49-5.58.4-.49.81-1,1.21-1.5.69-.81,1.34-1.62,2-2.43,1.58-2,3.08-3.88,4.65-5.86s3-3.84,4.49-5.78,3-3.8,4.45-5.7c2.55-3.32,5-6.59,7.44-9.83.69-.85,1.25-1.7,1.9-2.51,1.17-1.57,2.26-3,3.36-4.53.93-1.25,1.78-2.46,2.67-3.68,1.77-2.42,3.55-4.85,5.25-7.27q3.09-4.32,6-8.5c1.53-2.22,3.07-4.4,4.57-6.63.24-.36.48-.73.76-1.09,1.42-2.14,2.84-4.2,4.21-6.31,2.43-3.64,4.81-7.28,7.12-10.88l5.13-8.08c1.5-2.43,3-4.85,4.41-7.2.73-1.21,1.42-2.39,2.14-3.56,1.94-3.35,3.88-6.59,5.79-9.87l5.41-9.7c5.87-10.68,11.08-21,15.69-31q7.47-16.2,13-31.22c1.26-3.4,2.39-6.75,3.52-10.07C1601.76,267,1528,200.49,1465.25,169.64Zm-70.44,233.48a69.35,69.35,0,1,1,69.3-69.35A69.37,69.37,0,0,1,1394.81,403.12Z" transform="translate(-140.76 -139.87)"/><line class="cls-1" x1="873.7" y1="922.49" x2="722.38" y2="749.46"/><line class="cls-1" x1="988.29" y1="917.72" x2="1207.77" y2="604.84"/><polyline class="cls-1" points="475.23 917.03 597.35 754.12 597.43 754.12"/><line class="cls-1" x1="1524" y1="216.51" x2="1429.72" y2="216.51"/></svg>