<svg id="Layer_1" viewBox="0 0 512 512" xmlns="http://www.w3.org/2000/svg" data-name="Layer 1"><path d="m432.76 435.87c-17.16-43.5-70.89-75.6-135.35-77.46a5.83 5.83 0 0 0 .31-1.57v-169.5c45.22 27.14 69.16-34.74 115.67-2.3v-99.26c-47.09-32.79-71 31-117.35 1.31a6.1 6.1 0 0 0 -4.5-2 6.18 6.18 0 0 0 -6.18 6.19v156.48a12.78 12.78 0 0 0 -6.92-2.25h-41.85l-30.92-27.73a13.15 13.15 0 0 0 -8.75-3.35h-55.07a13.12 13.12 0 0 0 -10.3 5l-30.12 38.28a13.35 13.35 0 0 0 -2 3.57l-19.38 52.52a13.1 13.1 0 0 0 7.76 16.83 12.88 12.88 0 0 0 4.54.81 13.1 13.1 0 0 0 12.29-8.56l18.66-50.59 12.7-16.16.86 42.78c0 .24.07.42.07.66a12.76 12.76 0 0 0 -.25 1.26v121.93a13.1 13.1 0 0 0 13.1 13.11c.2 0 .37-.11.57-.11l-.06.11zm-92.89-308.79 10.13-20.31 10 20.37 22.44 3.32-16.29 15.79 3.77 22.36-20-10.61-20.22 10.49 3.91-22.34-16.19-15.88zm-117 141.29a13.12 13.12 0 0 0 8.75 3.34h46.86a12.78 12.78 0 0 0 6.92-2.25v87.38a6.25 6.25 0 0 0 .31 1.57 195.32 195.32 0 0 0 -41.78 5.6l-5.79-55.74a13.11 13.11 0 0 0 -13-11.75h-23.72l-1-48.23zm-59.91 54.35h50.33l5.17 49.83c-23.27 9.79-42.51 24.07-55.5 41.27z"/><path d="m171.31 204.27a25.55 25.55 0 1 0 -25.55-25.55 25.55 25.55 0 0 0 25.55 25.55z"/></svg>