<svg id="Layer_2" data-name="Layer 2" xmlns="http://www.w3.org/2000/svg" viewBox="0 0 450.61 345.32"><defs><style>.cls-1{fill:none;stroke:#231f20;stroke-miterlimit:10;stroke-width:6px;}</style></defs><title>motor</title><line class="cls-1" x1="223.02" y1="271.94" x2="145.42" y2="271.94"/><line class="cls-1" x1="111.79" y1="271.94" x2="85.51" y2="271.94"/><polyline class="cls-1" points="254.74 271.94 280.57 271.94 281.54 271.94"/><path class="cls-1" d="M453.6,382.66" transform="translate(-144.29 -110.72)"/><path class="cls-1" d="M337,130.84" transform="translate(-144.29 -110.72)"/><path class="cls-1" d="M317,131.44" transform="translate(-144.29 -110.72)"/><path class="cls-1" d="M253.45,173" transform="translate(-144.29 -110.72)"/><line class="cls-1" x1="109.16" y1="104.28" x2="147" y2="104.28"/><line class="cls-1" x1="206.91" y1="104.28" x2="256.84" y2="104.28"/><line class="cls-1" x1="109.16" y1="188.37" x2="160.66" y2="188.37"/><line class="cls-1" x1="220.05" y1="188.37" x2="256.84" y2="188.37"/><line class="cls-1" x1="109.16" y1="229.36" x2="256.84" y2="229.36"/><polygon class="cls-1" points="183 91.67 142.79 162.62 183 162.62 184.31 204.14 227.93 132.66 184.31 132.66 183 91.67"/><line class="cls-1" x1="85.51" y1="20.72" x2="172.75" y2="20.72"/><path class="cls-1" d="M202.82,382.83c-.3.87-21.37-.17-21.37-.17-31.53-2.11-34.16-32.06-34.16-32.06V167.18c0-36.26,33.63-35.74,33.63-35.74h20.5" transform="translate(-144.29 -110.72)"/><line class="cls-1" x1="308.34" y1="272.47" x2="308.34" y2="116.9"/><path class="cls-1" d="M452.63,202.39" transform="translate(-144.29 -110.72)"/><path class="cls-1" d="M178.74,423.64H473.22a5.7,5.7,0,0,1,5.69,5.7v16a5.68,5.68,0,0,1-5.65,5.69l-294.48,2a5.71,5.71,0,0,1-5.74-5.7v-18A5.7,5.7,0,0,1,178.74,423.64Z" transform="translate(-144.29 -110.72)"/><line class="cls-1" x1="145.42" y1="271.94" x2="111.79" y2="271.94"/><rect class="cls-1" x="111.79" y="271.94" width="33.63" height="40.99"/><line class="cls-1" x1="254.74" y1="271.94" x2="223.02" y2="271.94"/><rect class="cls-1" x="223.02" y="271.94" width="31.72" height="40.99"/><path class="cls-1" d="M454.87,390.49" transform="translate(-144.29 -110.72)"/><polyline class="cls-1" points="279.96 20.12 279.96 20.12 192.72 20.12"/><path class="cls-1" d="M452.63,202.39l.95-75.15a13.65,13.65,0,0,0-2.3-7.93c-2-2.89-5.65-5.74-12.31-5.56,0,0-14.71-.51-14.71,17.09l.6,251.82s-1,14.18,14.07,13.83c0,0,10.9,2.11,13.7-13.83h14.8s37.23,1,42.49-37.32V299.09h26.8V272.82H591.9V240.23H536.72V215h-26.8V160.77a23.41,23.41,0,0,0-8.23-17.91c-13.57-11.43-27-11.42-27-11.42L453.53,131" transform="translate(-144.29 -110.72)"/><path class="cls-1" d="M229.8,287V131.44s1.76-18.41-15.41-17.7c0,0-12.27-.35-13,17.7l1.1,252.26s.79,14.72,13.12,14.46c0,0,14.16,1,14.16-15V308.9" transform="translate(-144.29 -110.72)"/><line class="cls-1" x1="109.16" y1="62.24" x2="256.84" y2="62.24"/><line class="cls-1" x1="365.63" y1="104.29" x2="365.63" y2="188.37"/></svg>