<svg id="Layer_2" data-name="Layer 2" xmlns="http://www.w3.org/2000/svg" viewBox="0 0 686.38 526.91"><defs><style>.cls-1{fill:none;stroke:#231f20;stroke-miterlimit:10;stroke-width:13px;}</style></defs><title>motor</title><line class="cls-1" x1="339.73" y1="413.82" x2="222.2" y2="413.82"/><line class="cls-1" x1="171.27" y1="413.82" x2="131.47" y2="413.82"/><polyline class="cls-1" points="387.77 413.82 426.89 413.82 428.36 413.82"/><path class="cls-1" d="M501.84,437.56" transform="translate(-31.41 -23.74)"/><path class="cls-1" d="M325.26,56.17" transform="translate(-31.41 -23.74)"/><path class="cls-1" d="M295,57.08" transform="translate(-31.41 -23.74)"/><path class="cls-1" d="M198.7,120" transform="translate(-31.41 -23.74)"/><line class="cls-1" x1="167.28" y1="159.9" x2="224.59" y2="159.9"/><line class="cls-1" x1="315.33" y1="159.9" x2="390.95" y2="159.9"/><line class="cls-1" x1="167.28" y1="287.25" x2="245.29" y2="287.25"/><line class="cls-1" x1="335.23" y1="287.25" x2="390.95" y2="287.25"/><line class="cls-1" x1="167.28" y1="349.34" x2="390.95" y2="349.34"/><polygon class="cls-1" points="279.12 140.79 218.22 248.25 279.12 248.25 281.11 311.13 347.17 202.88 281.11 202.88 279.12 140.79"/><line class="cls-1" x1="131.47" y1="33.33" x2="263.6" y2="33.33"/><path class="cls-1" d="M122,437.83c-.46,1.32-32.37-.27-32.37-.27C41.9,434.37,37.91,389,37.91,389V111.21c0-54.92,50.94-54.13,50.94-54.13H119.9" transform="translate(-31.41 -23.74)"/><line class="cls-1" x1="468.95" y1="414.62" x2="468.95" y2="179"/><path class="cls-1" d="M500.37,164.53" transform="translate(-31.41 -23.74)"/><path class="cls-1" d="M85.54,499.64h446a8.62,8.62,0,0,1,8.62,8.62v24.21a8.62,8.62,0,0,1-8.57,8.62l-446,3.07a8.63,8.63,0,0,1-8.69-8.63V508.26A8.63,8.63,0,0,1,85.54,499.64Z" transform="translate(-31.41 -23.74)"/><line class="cls-1" x1="222.2" y1="413.82" x2="171.27" y2="413.82"/><rect class="cls-1" x="171.27" y="413.82" width="50.93" height="62.08"/><line class="cls-1" x1="387.77" y1="413.82" x2="339.73" y2="413.82"/><rect class="cls-1" x="339.73" y="413.82" width="48.04" height="62.08"/><path class="cls-1" d="M503.75,449.42" transform="translate(-31.41 -23.74)"/><polyline class="cls-1" points="425.97 32.42 425.97 32.42 293.84 32.42"/><path class="cls-1" d="M500.37,164.53,501.8,50.72a20.68,20.68,0,0,0-3.48-12c-3-4.38-8.56-8.69-18.65-8.43,0,0-22.28-.76-22.28,25.89l.92,381.39s-1.58,21.49,21.3,21c0,0,16.51,3.19,20.76-21h22.41s56.39,1.59,64.36-56.52V311h40.59V271.2H711.3V221.84H627.73V183.65H587.14V101.5a35.45,35.45,0,0,0-12.47-27.12c-20.56-17.31-40.87-17.3-40.87-17.3l-32.07-.7" transform="translate(-31.41 -23.74)"/><path class="cls-1" d="M162.88,292.69V57.08s2.65-27.88-23.35-26.81c0,0-18.57-.53-19.63,26.81l1.66,382.07s1.2,22.28,19.87,21.89c0,0,21.45,1.59,21.45-22.69V325.85" transform="translate(-31.41 -23.74)"/><line class="cls-1" x1="167.28" y1="96.22" x2="390.95" y2="96.22"/><line class="cls-1" x1="555.72" y1="159.9" x2="555.72" y2="287.25"/></svg>