<svg id="Layer_2" data-name="Layer 2" xmlns="http://www.w3.org/2000/svg" viewBox="0 0 367.88 348.39"><defs><style>.cls-1{fill:#fff;}.cls-1,.cls-2,.cls-3{stroke:#231f20;stroke-miterlimit:10;}.cls-1,.cls-2{stroke-width:6px;}.cls-2,.cls-3{fill:none;}.cls-3{stroke-width:3px;}</style></defs><title>obstacles</title><line class="cls-1" y1="345.39" x2="367.88" y2="345.39"/><polygon class="cls-2" points="37.64 253.83 91.11 253.83 83.04 345.39 45.72 345.39 37.64 253.83"/><polygon class="cls-2" points="285.37 345.39 321.11 345.39 328.25 252.04 276.28 252.35 285.37 345.39"/><path class="cls-2" d="M137.14,233.34h-41A16.55,16.55,0,0,0,79.59,249.9v74.28a19.41,19.41,0,0,0,19.53,19.41l315.37-1.87a19,19,0,0,0,18.94-19.43L432,250.79a17.79,17.79,0,0,0-17.79-17.45H369.2" transform="translate(-72.76 -89.76)"/><line class="cls-2" x1="6.83" y1="202.45" x2="54.13" y2="253.67"/><line class="cls-2" x1="70.3" y1="191.02" x2="129.28" y2="253.83"/><line class="cls-2" x1="25.75" y1="143.58" x2="45.72" y2="164.85"/><line class="cls-2" x1="197.61" y1="252.82" x2="142.13" y2="191.02"/><line class="cls-2" x1="267.5" y1="252.04" x2="214.59" y2="191.02"/><line class="cls-2" x1="341.73" y1="251.96" x2="287.51" y2="191.02"/><line class="cls-2" x1="360.02" y1="198.71" x2="310.07" y2="143.58"/><path class="cls-2" d="M239.37,97.51l-127.46,170c-4.5,6,1.59,13.26,11.11,13.26H385.16c9.66,0,15.73-7.44,11-13.45l-134.68-170C256.55,91.15,244.06,91.26,239.37,97.51Z" transform="translate(-72.76 -89.76)"/><line class="cls-3" x1="118.24" y1="93.99" x2="147.6" y2="93.99"/><line class="cls-3" x1="214.83" y1="93.99" x2="244.43" y2="93.99"/><line class="cls-3" x1="132.92" y1="90.81" x2="132.92" y2="101.26"/><line class="cls-3" x1="229.63" y1="90.9" x2="229.63" y2="101.08"/><rect class="cls-3" x="128.05" y="101.26" width="10.18" height="21.09"/><rect class="cls-3" x="224.45" y="101.26" width="10.73" height="21.09"/><path class="cls-3" d="M234.57,207.49H211v-8.7h19.37v4.48A4.23,4.23,0,0,0,234.57,207.49Z" transform="translate(-72.76 -89.76)"/><path class="cls-3" d="M297.2,198.79v8.7h-24a4.24,4.24,0,0,0,4.23-4.22v-4.48Z" transform="translate(-72.76 -89.76)"/><path class="cls-3" d="M239,213.68a40.18,40.18,0,0,0-21.22,36.63h-9.92a3.17,3.17,0,0,1-3.16-3.17h0a3.53,3.53,0,0,1,3.53-3.53h3.63c.12-23.43,24.3-35.71,24.3-35.71L242.62,221h22.76L272,207.9s24.79,11.29,24.3,35.71l4.34-.07a3.38,3.38,0,0,1,3.43,3.38h0a3.38,3.38,0,0,1-3.38,3.39H288.94s5.49-21.14-19.92-36.44" transform="translate(-72.76 -89.76)"/><rect class="cls-3" x="177.64" y="131.28" width="7.4" height="7.73"/><rect class="cls-3" x="172.27" y="139.38" width="17.3" height="11.29" rx="5.64"/><circle class="cls-3" cx="180.92" cy="145.02" r="2.82"/><path class="cls-3" d="M277.47,194.91v8.36a4.24,4.24,0,0,1-4.23,4.22H234.57a4.23,4.23,0,0,1-4.22-4.22v-7.56a8.78,8.78,0,0,1,8.76-8.76h30.4A8,8,0,0,1,277.47,194.91Z" transform="translate(-72.76 -89.76)"/></svg>