<svg id="Layer_2" data-name="Layer 2" xmlns="http://www.w3.org/2000/svg" viewBox="0 0 1144.04 1079.78"><defs><style>.cls-1{fill:#fff;}.cls-1,.cls-2{stroke:#231f20;stroke-miterlimit:10;stroke-width:15px;}.cls-2{fill:none;}</style></defs><title>obstacles</title><line class="cls-1" y1="1072.28" x2="1144.04" y2="1072.28"/><polygon class="cls-2" points="117.06 787.54 283.35 787.54 258.23 1072.28 142.19 1072.28 117.06 787.54"/><polygon class="cls-2" points="887.45 1072.28 998.58 1072.28 1020.78 781.97 859.18 782.93 887.45 1072.28"/><path class="cls-2" d="M480.74,590.63H353.26a51.48,51.48,0,0,0-51.49,51.48v231a60.38,60.38,0,0,0,60.74,60.37l980.74-5.82a59.27,59.27,0,0,0,58.91-60.42l-4.32-222.35a55.33,55.33,0,0,0-55.32-54.26h-140.1" transform="translate(-280.53 -145.94)"/><line class="cls-2" x1="21.25" y1="627.73" x2="168.34" y2="787.03"/><line class="cls-2" x1="218.62" y1="592.21" x2="402.05" y2="787.54"/><line class="cls-2" x1="80.08" y1="444.69" x2="142.18" y2="510.81"/><line class="cls-2" x1="614.51" y1="784.38" x2="442.01" y2="592.21"/><line class="cls-2" x1="831.88" y1="781.97" x2="667.33" y2="592.21"/><line class="cls-2" x1="1062.72" y1="781.72" x2="894.11" y2="592.21"/><line class="cls-2" x1="1119.59" y1="616.11" x2="964.26" y2="444.69"/><path class="cls-2" d="M798.66,168.23,402.3,696.91c-14,18.66,4.92,41.24,34.54,41.24h815.21c30,0,48.9-23.14,34.11-41.82L867.31,167.65C852.1,148.45,813.25,148.78,798.66,168.23Z" transform="translate(-280.53 -145.94)"/><line class="cls-2" x1="367.71" y1="290.45" x2="459.01" y2="290.45"/><line class="cls-2" x1="668.07" y1="290.45" x2="760.13" y2="290.45"/><line class="cls-2" x1="413.36" y1="280.57" x2="413.36" y2="313.08"/><line class="cls-2" x1="714.1" y1="280.86" x2="714.1" y2="312.5"/><rect class="cls-2" x="398.21" y="313.08" width="31.65" height="65.59"/><rect class="cls-2" x="697.99" y="313.08" width="33.37" height="65.59"/><path class="cls-2" d="M783.74,510.24H710.39V483.18H770.6V497.1A13.18,13.18,0,0,0,783.74,510.24Z" transform="translate(-280.53 -145.94)"/><path class="cls-2" d="M978.51,483.18v27.06H904a13.17,13.17,0,0,0,13.14-13.14V483.18Z" transform="translate(-280.53 -145.94)"/><path class="cls-2" d="M797.49,529.48c-72.11,39.9-66,113.9-66,113.9H700.65a9.83,9.83,0,0,1-9.83-9.83h0a11,11,0,0,1,11-11h11.27c.38-72.88,75.57-111.05,75.57-111.05l20.13,40.85h70.78l20.71-40.85s77.1,35.1,75.57,111.05l13.49-.21A10.51,10.51,0,0,1,1000,632.87h0a10.52,10.52,0,0,1-10.52,10.51H952.81s17.06-65.74-62-113.31" transform="translate(-280.53 -145.94)"/><rect class="cls-2" x="552.41" y="406.43" width="23.02" height="24.03"/><rect class="cls-2" x="535.73" y="431.61" width="53.8" height="35.1" rx="5.64"/><path class="cls-2" d="M917.14,471.11v26A13.17,13.17,0,0,1,904,510.24H783.74A13.18,13.18,0,0,1,770.6,497.1V473.6a27.32,27.32,0,0,1,27.24-27.23h94.55A24.82,24.82,0,0,1,917.14,471.11Z" transform="translate(-280.53 -145.94)"/></svg>