<svg id="Capa_1" enable-background="new 0 0 512 512" height="512" viewBox="0 0 512 512" width="512" xmlns="http://www.w3.org/2000/svg"><g><g><g><path d="m277.012 251.53c4.92-4.92 5.528-12.583 1.446-18.22l-19.255-26.581c2.387-4.795 4.44-9.752 6.14-14.819l32.41-5.18c6.872-1.099 11.859-6.947 11.859-13.906v-36.036c0-6.959-4.987-12.807-11.859-13.906h-.001l-32.409-5.18c-1.699-5.067-3.753-10.024-6.14-14.819l19.255-26.581c4.083-5.637 3.474-13.299-1.446-18.219l-25.482-25.482c-4.921-4.921-12.583-5.53-18.22-1.447l-26.58 19.255c-4.793-2.386-9.751-4.44-14.819-6.14l-5.18-32.41c-1.099-6.872-6.947-11.859-13.906-11.859h-36.036c-6.959 0-12.808 4.987-13.906 11.86l-5.18 32.409c-5.068 1.7-10.026 3.754-14.819 6.14l-26.582-19.255c-5.635-4.082-13.298-3.473-18.219 1.447l-25.481 25.481c-4.921 4.92-5.53 12.583-1.447 18.22l19.254 26.581c-2.386 4.793-4.439 9.751-6.14 14.819l-32.409 5.18c-6.872 1.098-11.86 6.947-11.86 13.906v36.036c0 6.959 4.988 12.807 11.86 13.906l32.409 5.18c1.7 5.068 3.754 10.026 6.14 14.819l-19.255 26.581c-4.082 5.636-3.474 13.298 1.447 18.219l25.481 25.481c4.92 4.921 12.583 5.53 18.219 1.447l26.581-19.254c4.793 2.386 9.751 4.439 14.819 6.14l5.18 32.41c1.099 6.872 6.947 11.859 13.906 11.859h36.036c6.959 0 12.807-4.987 13.906-11.86l5.18-32.409c5.068-1.7 10.026-3.754 14.819-6.14l26.581 19.255c5.636 4.081 13.298 3.474 18.219-1.447zm-65.244-7.199c-2.352-1.704-5.474-1.896-8.017-.497-6.531 3.595-13.462 6.466-20.6 8.534-2.789.808-4.861 3.153-5.319 6.021l-5.79 36.224h-34.471l-5.79-36.224c-.458-2.867-2.531-5.212-5.32-6.021-7.138-2.067-14.069-4.938-20.6-8.534-2.542-1.399-5.664-1.207-8.017.497l-29.708 21.521-24.375-24.375 21.521-29.709c1.703-2.351 1.896-5.474.497-8.017-3.595-6.531-6.466-13.462-8.534-20.6-.808-2.789-3.153-4.861-6.021-5.319l-36.224-5.79v-34.472l36.224-5.79c2.867-.458 5.212-2.53 6.021-5.319 2.067-7.138 4.938-14.069 8.534-20.6 1.4-2.543 1.207-5.666-.497-8.017l-21.521-29.708 24.375-24.375 29.708 21.521c2.352 1.704 5.474 1.896 8.017.497 6.531-3.595 13.462-6.466 20.6-8.534 2.789-.808 4.861-3.153 5.32-6.021l5.789-36.224h34.472l5.79 36.224c.458 2.867 2.53 5.212 5.319 6.021 7.138 2.067 14.069 4.938 20.6 8.534 2.542 1.399 5.665 1.207 8.017-.497l29.709-21.521 24.375 24.375-21.521 29.709c-1.703 2.351-1.896 5.474-.497 8.017 3.596 6.533 6.467 13.464 8.533 20.6.808 2.789 3.153 4.862 6.021 5.32l36.225 5.79v34.471l-36.225 5.79c-2.868.458-5.213 2.531-6.021 5.32-2.066 7.136-4.937 14.066-8.533 20.6-1.4 2.543-1.207 5.666.497 8.017l21.521 29.709-24.375 24.375z"/><path d="m231.754 147.306h-15.472c-.898-7.316-3.094-14.464-6.488-21-1.91-3.675-6.436-5.108-10.113-3.2-3.676 1.909-5.108 6.437-3.2 10.113 3.493 6.725 5.263 13.988 5.263 21.586 0 25.882-21.057 46.939-46.939 46.939s-46.939-21.057-46.939-46.939 21.057-46.939 46.939-46.939c6.937 0 13.626 1.486 19.882 4.417 3.751 1.757 8.216.141 9.974-3.609 1.757-3.75.142-8.216-3.609-9.974-8.263-3.872-17.093-5.834-26.246-5.834-31.613 0-57.753 23.812-61.469 54.439h-15.478c-4.142 0-7.5 3.358-7.5 7.5s3.358 7.5 7.5 7.5h15.479c3.716 30.627 29.856 54.439 61.469 54.439s57.753-23.812 61.469-54.439h15.479c4.142 0 7.5-3.358 7.5-7.5s-3.359-7.499-7.501-7.499z"/><path d="m192.956 425.816c-2.335-3.42-7.003-4.301-10.423-1.963-3.42 2.336-4.299 7.002-1.963 10.423l6.052 8.862c1.955 2.862 2.061 6.522.275 9.552-.619 1.05-1.596 2.048-2.827 2.889l-44.688 30.518c-1.009.689-2.024.629-2.54.532-.515-.097-1.483-.411-2.172-1.42l-6.142-8.993c-.689-1.009-.629-2.024-.532-2.54.097-.515.411-1.482 1.42-2.172l10.799-7.375c2.509-1.713 3.736-4.771 3.108-7.744-.628-2.972-2.987-5.272-5.974-5.825-56.57-10.459-97.628-59.832-97.628-117.396v-5.445c0-1.869 1.521-3.39 3.39-3.39h10.89c1.869 0 3.39 1.521 3.39 3.39v5.445c0 24.394 8.801 48 24.781 66.472 15.812 18.277 37.582 30.367 61.3 34.043 2.956.458 5.898-.882 7.493-3.411s1.536-5.762-.15-8.23l-9.467-13.864c-.689-1.009-.629-2.024-.532-2.54.097-.515.411-1.482 1.419-2.172l8.994-6.142c1.008-.689 2.023-.63 2.539-.532.516.097 1.483.411 2.172 1.419l4.913 7.194c2.335 3.419 7.002 4.3 10.423 1.963 3.421-2.336 4.3-7.002 1.964-10.423l-4.913-7.193c-2.771-4.056-6.955-6.791-11.781-7.701-4.829-.909-9.72.115-13.776 2.886l-8.993 6.141c-4.057 2.77-6.791 6.955-7.701 11.782-.709 3.766-.242 7.571 1.312 10.988-32.355-12.863-54.996-44.788-54.996-80.682v-5.445c0-10.14-8.25-18.39-18.39-18.39h-10.89c-10.14 0-18.39 8.25-18.39 18.39v5.445c0 59.141 38.505 110.6 93.646 128.085-2.632 2.602-4.412 5.935-5.112 9.649-.909 4.827.115 9.72 2.886 13.777l6.142 8.993c2.77 4.057 6.955 6.792 11.782 7.701 1.148.216 2.3.323 3.443.323 3.664 0 7.241-1.098 10.333-3.209l44.688-30.518c3.083-2.104 5.536-4.682 7.291-7.66 4.697-7.971 4.378-18.03-.812-25.628z"/><path d="m313.996 78.326v-.001l-.001-.001z"/><path d="m344.676 123.25c2.77 4.057 6.954 6.792 11.781 7.701 4.823.908 9.72-.115 13.776-2.886l8.993-6.141c4.057-2.77 6.792-6.955 7.701-11.782.71-3.766.242-7.571-1.312-10.987 32.355 12.862 54.996 44.788 54.996 80.681v5.445c0 10.14 8.25 18.39 18.39 18.39h10.891c10.141 0 18.391-8.25 18.391-18.39v-5.445c0-59.141-38.506-110.6-93.646-128.085 2.631-2.602 4.411-5.935 5.111-9.649.91-4.828-.115-9.721-2.886-13.776l-6.142-8.993c-2.77-4.057-6.954-6.792-11.781-7.701-4.828-.911-9.72.116-13.776 2.886l-44.688 30.518c-3.083 2.104-5.536 4.682-7.291 7.66-4.698 7.97-4.379 18.03.812 25.629zm-18.569-62.938c.618-1.05 1.596-2.048 2.826-2.889l44.688-30.518c1.01-.689 2.027-.63 2.54-.532.516.097 1.482.411 2.172 1.419l6.142 8.994c.689 1.008.629 2.023.532 2.539-.098.516-.411 1.483-1.42 2.172l-10.8 7.375c-2.509 1.713-3.736 4.771-3.108 7.744.628 2.972 2.987 5.272 5.975 5.825 56.57 10.459 97.629 59.832 97.629 117.396v5.445c0 1.869-1.521 3.39-3.391 3.39h-10.891c-1.869 0-3.39-1.521-3.39-3.39v-5.445c0-24.394-8.801-48-24.781-66.472-15.812-18.277-37.582-30.367-61.301-34.043-.385-.06-.769-.088-1.15-.088-2.547 0-4.955 1.3-6.342 3.499-1.595 2.528-1.535 5.762.15 8.231l9.468 13.864c.689 1.008.629 2.023.532 2.539-.098.516-.411 1.483-1.42 2.172l-8.993 6.142c-1.01.688-2.025.629-2.54.532-.516-.097-1.482-.411-2.172-1.419l-30.681-44.926s0-.001-.001-.001c-1.954-2.865-2.059-6.525-.273-9.555z"/><path d="m507.366 407.918-18.026-17.823c1.248-6.751 1.88-13.655 1.88-20.577 0-6.917-.632-13.819-1.88-20.576l18.031-17.822c5.04-4.993 6.085-12.768 2.54-18.906l-16.09-27.863c-3.545-6.152-10.799-9.139-17.65-7.262l-24.471 6.702c-10.502-8.964-22.681-16.006-35.619-20.595l-6.417-24.511c-1.809-6.859-8.021-11.65-15.107-11.65h-32.178c-7.098 0-13.308 4.797-15.103 11.661l-6.42 24.5c-12.933 4.588-25.111 11.63-35.619 20.595l-24.468-6.703c-6.838-1.87-14.096 1.112-17.652 7.259l-16.077 27.853c-3.566 6.146-2.521 13.93 2.537 18.925l18.021 17.818c-1.251 6.784-1.883 13.686-1.883 20.574 0 6.894.633 13.797 1.882 20.576l-18.008 17.813c-5.066 4.988-6.116 12.772-2.557 18.921l16.092 27.882c3.555 6.129 10.808 9.108 17.647 7.236l24.464-6.702c10.499 8.963 22.676 16.003 35.619 20.594l6.416 24.501c1.798 6.865 8.01 11.66 15.106 11.66h32.179c7.088 0 13.301-4.788 15.111-11.655l6.413-24.506c12.949-4.591 25.128-11.632 35.621-20.594l24.469 6.701c6.838 1.875 14.099-1.105 17.647-7.249l16.097-27.875c3.543-6.147 2.495-13.922-2.547-18.902zm-10.446 11.41-16.092 27.867c-.138.237-.431.357-.695.284l-28.387-7.774c-2.495-.683-5.164-.034-7.064 1.719-10.586 9.756-23.401 17.166-37.062 21.427-2.469.77-4.367 2.758-5.022 5.261l-7.438 28.423c-.074.279-.316.466-.604.466h-32.179c-.279 0-.524-.189-.596-.459l-7.445-28.431c-.654-2.501-2.552-4.489-5.021-5.26-13.653-4.26-26.47-11.67-37.064-21.429-1.402-1.292-3.223-1.983-5.082-1.983-.66 0-1.327.087-1.98.267l-28.376 7.773c-.273.077-.568-.046-.704-.28l-16.09-27.876c-.138-.238-.1-.536.105-.738l20.905-20.678c1.835-1.815 2.607-4.446 2.046-6.965-1.566-7.018-2.36-14.225-2.36-21.422 0-7.19.794-14.398 2.36-21.424.562-2.519-.212-5.15-2.047-6.965l-20.908-20.673c-.197-.195-.241-.494-.097-.742l16.081-27.862c.144-.249.437-.367.704-.295l28.38 7.774c2.493.682 5.159.034 7.061-1.715 10.608-9.764 23.426-17.174 37.066-21.431 2.468-.771 4.365-2.757 5.021-5.259l7.45-28.432c.071-.27.314-.459.592-.459h32.178c.281 0 .529.195.6.461l7.442 28.428c.655 2.502 2.554 4.49 5.022 5.26 13.647 4.257 26.464 11.667 37.063 21.429 1.901 1.751 4.57 2.4 7.062 1.716l28.388-7.774c.26-.073.554.048.693.291l16.093 27.868c.137.237.092.552-.101.743l-20.913 20.669c-1.838 1.817-2.611 4.453-2.046 6.975 1.564 6.983 2.358 14.188 2.358 21.416 0 7.234-.793 14.439-2.358 21.414-.565 2.522.207 5.158 2.045 6.975l20.916 20.681c.196.19.236.504.1.739z"/><path d="m430.897 369.519c0-28.908-23.519-52.427-52.427-52.427-28.911 0-52.433 23.519-52.433 52.427 0 28.912 23.521 52.433 52.433 52.433 28.908-.001 52.427-23.522 52.427-52.433zm-52.427 37.432c-20.641 0-37.433-16.792-37.433-37.433 0-20.637 16.792-37.427 37.433-37.427 20.637 0 37.427 16.79 37.427 37.427 0 20.641-16.79 37.433-37.427 37.433z"/><path d="m378.468 289.846c-43.931 0-79.671 35.74-79.671 79.671 0 35.786 24.09 67.379 58.583 76.828 3.999 1.096 8.121-1.257 9.215-5.252 1.095-3.995-1.257-8.121-5.252-9.215-27.994-7.669-47.546-33.313-47.546-62.361 0-35.66 29.012-64.671 64.671-64.671s64.671 29.011 64.671 64.671c0 29.967-21.194 56.491-50.396 63.07-4.041.91-6.578 4.924-5.668 8.965.785 3.486 3.88 5.853 7.31 5.853.546 0 1.101-.06 1.655-.185 17.36-3.911 33.12-13.718 44.376-27.614 11.43-14.11 17.724-31.898 17.724-50.089-.001-43.931-35.741-79.671-79.672-79.671z"/></g></g></g></svg>