<svg height="480pt" viewBox="0 0 480 480" width="480pt" xmlns="http://www.w3.org/2000/svg"><path d="m128 64c0 35.347656-28.652344 64-64 64s-64-28.652344-64-64 28.652344-64 64-64 64 28.652344 64 64zm0 0" fill="#398ecc"/><path d="m472.230469 407.832031c0 35.347657-28.652344 64-64 64-35.34375 0-64-28.652343-64-64 0-35.347656 28.65625-64 64-64 35.347656 0 64 28.652344 64 64zm0 0" fill="#7fbbe6"/><path d="m80.433594 78.527344c4.878906-5.421875 7.4375-12.917969 5.679687-21.054688-2-9.328125-9.761719-16.832031-19.203125-18.425781-15.117187-2.632813-28.238281 8.9375-28.238281 23.527344 0 6.144531 2.398437 11.722656 6.238281 15.953125-7.839844 0-14.238281 6.375-14.238281 14.191406v25.839844c9.71875 5.953125 21.105469 9.441406 33.328125 9.441406 11.113281 0 21.566406-2.839844 30.671875-7.824219v-27.457031c0-7.816406-6.398437-14.191406-14.238281-14.191406zm0 0" fill="#ff6b6b"/><path d="m480 64c0 35.347656-28.652344 64-64 64s-64-28.652344-64-64 28.652344-64 64-64 64 28.652344 64 64zm0 0" fill="#ffe35b"/><path d="m128 416c0 35.347656-28.652344 64-64 64s-64-28.652344-64-64 28.652344-64 64-64 64 28.652344 64 64zm0 0" fill="#ffe35b"/><path d="m360 260.046875v-40.085937l-26.105469-8.640626c-1.847656-6.0625-4.277343-11.871093-7.214843-17.375l11.089843-23.34375c-7.800781-10.96875-17.394531-20.554687-28.363281-28.363281l-23.34375 11.089844c-5.503906-2.929687-11.308594-5.359375-17.375-7.214844l-8.640625-26.113281h-40.085937l-8.640626 26.105469-17.375 7.214843-23.34375-11.089843c-10.96875 7.800781-20.5625 17.394531-28.363281 28.363281l11.089844 23.34375-7.214844 17.375-26.113281 8.640625v40.085937l26.105469 8.640626 7.214843 17.375-11.089843 23.34375c7.800781 10.96875 17.394531 20.5625 28.363281 28.363281l23.34375-11.089844 17.375 7.214844 8.640625 26.113281h40.085937l8.640626-26.105469c6.0625-1.847656 11.871093-4.277343 17.375-7.214843l23.34375 11.089843c10.96875-7.800781 20.554687-17.394531 28.363281-28.363281l-11.089844-23.34375c2.929687-5.503906 5.359375-11.308594 7.214844-17.375zm0 0" fill="#ff6b6b"/><path d="m304 240c0 35.347656-28.652344 64-64 64s-64-28.652344-64-64 28.652344-64 64-64 64 28.652344 64 64zm0 0" fill="#ffe35b"/><g fill="#636363"><path d="m232 200h16v48h-16zm0 0"/><path d="m232 264h16v16h-16zm0 0"/><path d="m416 56c-4.414062 0-8-3.585938-8-8s3.585938-8 8-8h16v-16h-16c-13.230469 0-24 10.769531-24 24s10.769531 24 24 24c4.414062 0 8 3.585938 8 8s-3.585938 8-8 8h-16v16h16c13.230469 0 24-10.769531 24-24s-10.769531-24-24-24zm0 0"/><path d="m32 424h16v24h-16zm0 0"/><path d="m56 400h16v48h-16zm0 0"/><path d="m80 384h16v64h-16zm0 0"/></g><path d="m408 336c-39.703125 0-72 32.296875-72 72s32.296875 72 72 72 72-32.296875 72-72-32.296875-72-72-72zm55.359375 80c-3.527344 24.472656-22.886719 43.832031-47.359375 47.359375v-15.359375h-16v15.359375c-24.472656-3.527344-43.832031-22.886719-47.359375-47.359375h15.359375v-16h-15.359375c3.527344-24.472656 22.886719-43.832031 47.359375-47.359375v15.359375h16v-15.359375c24.472656 3.527344 43.832031 22.886719 47.359375 47.359375h-15.359375v16zm0 0" fill="#398ecc"/><path d="m434.34375 370.34375-22.253906 22.257812c-1.3125-.355468-2.664063-.601562-4.089844-.601562s-2.777344.246094-4.089844.601562l-14.253906-14.257812-11.3125 11.3125 14.257812 14.253906c-.355468 1.3125-.601562 2.664063-.601562 4.089844 0 8.824219 7.175781 16 16 16s16-7.175781 16-16c0-1.425781-.246094-2.777344-.601562-4.089844l22.257812-22.253906zm0 0" fill="#398ecc"/><path d="m390.257812 232h-6.257812v16h6.257812c27.429688 0 49.742188 22.3125 49.742188 49.742188v2.945312l-10.34375-10.34375-11.3125 11.3125 24 24c1.558594 1.558594 3.609375 2.34375 5.65625 2.34375s4.097656-.785156 5.65625-2.34375l24-24-11.3125-11.3125-10.34375 10.34375v-2.945312c0-36.246094-29.496094-65.742188-65.742188-65.742188zm0 0" fill="#636363"/><path d="m248 390.257812v-6.257812h-16v6.257812c0 27.429688-22.3125 49.742188-49.742188 49.742188h-2.945312l10.34375-10.34375-11.3125-11.3125-24 24c-3.128906 3.128906-3.128906 8.183594 0 11.3125l24 24 11.3125-11.3125-10.34375-10.34375h2.945312c36.246094 0 65.742188-29.496094 65.742188-65.742188zm0 0" fill="#636363"/><path d="m89.742188 248h6.257812v-16h-6.257812c-27.429688 0-49.742188-22.3125-49.742188-49.742188v-2.945312l10.34375 10.34375 11.3125-11.3125-24-24c-3.128906-3.128906-8.183594-3.128906-11.3125 0l-24 24 11.3125 11.3125 10.34375-10.34375v2.945312c0 36.246094 29.496094 65.742188 65.742188 65.742188zm0 0" fill="#636363"/><path d="m232 96h16v-6.257812c0-27.429688 22.3125-49.742188 49.742188-49.742188h2.945312l-10.34375 10.34375 11.3125 11.3125 24-24c3.128906-3.128906 3.128906-8.183594 0-11.3125l-24-24-11.3125 11.3125 10.34375 10.34375h-2.945312c-36.246094 0-65.742188 29.496094-65.742188 65.742188zm0 0" fill="#636363"/></svg>