<svg id="Layer_1" enable-background="new 0 0 1024 1024" viewBox="0 0 1024 1024" xmlns="http://www.w3.org/2000/svg"><g id="lock"><g id="XMLID_28_"><path id="XMLID_37_" d="m852.5 809.3c0 7-.5 13.9-1.4 20.8.6-4.4 1.2-8.9 1.8-13.3-1.9 13.9-5.6 27.3-11 40.2 1.7-4 3.4-8 5-11.9-5.4 12.6-12.3 24.3-20.6 35.2 2.6-3.4 5.2-6.7 7.8-10.1-8.1 10.3-17.4 19.6-27.7 27.7 3.4-2.6 6.7-5.2 10.1-7.8-10.8 8.3-22.6 15.3-35.2 20.6 4-1.7 8-3.4 11.9-5-12.9 5.4-26.4 9.1-40.2 11 4.4-.6 8.9-1.2 13.3-1.8-20.3 2.6-41.4 1.4-61.9 1.4-38 0-76 0-114 0-46.8 0-93.6 0-140.4 0-40 0-80 0-120.1 0-17.2 0-34.5.1-51.7 0-7 0-13.9-.5-20.9-1.4 4.4.6 8.9 1.2 13.3 1.8-13.9-1.9-27.3-5.6-40.2-11 4 1.7 8 3.4 11.9 5-12.6-5.4-24.3-12.3-35.2-20.6 3.4 2.6 6.7 5.2 10.1 7.8-10.3-8.1-19.6-17.4-27.7-27.7 2.6 3.4 5.2 6.7 7.8 10.1-8.3-10.8-15.3-22.6-20.6-35.2 1.7 4 3.4 8 5 11.9-5.4-12.9-9.1-26.4-11-40.2.6 4.4 1.2 8.9 1.8 13.3-1.8-14.4-1.4-28.9-1.4-43.3 0-22.9 0-45.7 0-68.6 0-52.9 0-105.7 0-158.6 0-16.4-.7-33.1 1.4-49.4-.6 4.4-1.2 8.9-1.8 13.3 1.9-13.9 5.6-27.3 11-40.2-1.7 4-3.4 8-5 11.9 5.4-12.6 12.3-24.3 20.6-35.2-2.6 3.4-5.2 6.7-7.8 10.1 8.1-10.3 17.4-19.6 27.7-27.7-3.4 2.6-6.7 5.2-10.1 7.8 10.8-8.3 22.6-15.3 35.2-20.6-4 1.7-8 3.4-11.9 5 12.9-5.4 26.4-9.1 40.2-11-4.4.6-8.9 1.2-13.3 1.8 20.3-2.6 41.4-1.4 61.9-1.4h114 140.4 120.1c17.2 0 34.5-.1 51.7 0 7 0 13.9.5 20.9 1.4-4.4-.6-8.9-1.2-13.3-1.8 13.9 1.9 27.3 5.6 40.2 11-4-1.7-8-3.4-11.9-5 12.6 5.4 24.3 12.3 35.2 20.6-3.4-2.6-6.7-5.2-10.1-7.8 10.3 8.1 19.6 17.4 27.7 27.7-2.6-3.4-5.2-6.7-7.8-10.1 8.3 10.8 15.3 22.6 20.6 35.2-1.7-4-3.4-8-5-11.9 5.4 12.9 9.1 26.4 11 40.2-.6-4.4-1.2-8.9-1.8-13.3 1.8 13.8 1.4 27.7 1.4 41.6v64.7 156.2 36.6c0 12.8 5.6 26.3 14.6 35.4 8.7 8.7 22.9 15.2 35.4 14.6 12.9-.6 26.3-4.8 35.4-14.6 9-9.8 14.6-21.8 14.6-35.4 0-26.2 0-52.4 0-78.6 0-46.6 0-93.3 0-139.9 0-33.6 1.7-67.4-4.2-100.7-3.5-20-11.2-39.5-20.6-57.4-9.2-17.4-21.5-33.7-35.3-47.6-27.9-28.1-65.5-49.3-104.5-56.6-27.1-5.1-53.6-4.5-80.9-4.5-38.6 0-77.2 0-115.8 0-48.2 0-96.5 0-144.7 0-40.2 0-80.5 0-120.7 0-19.6 0-39.5-1-59.1.4-20.4 1.5-41 5-60 12.7-11 4.4-21.9 9-32.1 14.9-10.3 6-19.8 13.3-29.1 20.8-31.1 24.9-53.5 60.9-65.2 98.8-10.7 34.9-8.6 71.7-8.6 107.8v138.2 90.6c.1 75 41.8 147.8 108.6 183 30.6 16.1 64.3 24.8 98.9 24.8h19.8 101.8 141.7 131.5 69.7c25.4 0 51.6-4 75.2-13.6 11.2-4.6 22.3-9.2 32.6-15.4 10.2-6.1 19.7-13.5 28.9-21 15.1-12.4 27.7-27.8 38.6-43.9 22.2-32.8 33.5-73.5 33.6-113 .1-12.8-5.6-26.3-14.6-35.4-8.7-8.7-22.9-15.2-35.4-14.6-27.3 1.4-50 22.1-50.1 50.2z"/><path id="XMLID_36_" d="m756.6 374.1c0-39.2 0-78.4 0-117.7 0-15.2-1.5-30-3.8-45.1-3.3-22.1-10.6-42.6-19.7-63-17.7-39.9-48.1-72.8-83.3-97.9-36.1-25.7-79.9-39-123.8-42.2-44.8-3.2-90.4 7.9-129.9 28.7-38.2 20.1-70.7 51.8-93.2 88.5-23.2 37.8-35.3 82.6-35.4 126.8-.1 39.2 0 78.5 0 117.7v4c0 12.8 5.6 26.3 14.6 35.4 8.7 8.7 22.9 15.2 35.4 14.6 12.9-.6 26.3-4.8 35.4-14.6 9-9.8 14.6-21.8 14.6-35.4 0-38.4 0-76.9 0-115.3 0-11 .3-21.9 1.8-32.8-.6 4.4-1.2 8.9-1.8 13.3 2.4-17 6.9-33.5 13.5-49.3-1.7 4-3.4 8-5 11.9 6.6-15.4 15-29.9 25.2-43.2-2.6 3.4-5.2 6.7-7.8 10.1 10.2-13.1 22-24.9 35.1-35.1-3.4 2.6-6.7 5.2-10.1 7.8 13.3-10.2 27.8-18.7 43.2-25.2-4 1.7-8 3.4-11.9 5 15.8-6.6 32.4-11.1 49.3-13.5-4.4.6-8.9 1.2-13.3 1.8 17.5-2.3 35.3-2.3 52.8 0-4.4-.6-8.9-1.2-13.3-1.8 17 2.4 33.5 6.9 49.3 13.5-4-1.7-8-3.4-11.9-5 15.4 6.6 29.9 15 43.2 25.2-3.4-2.6-6.7-5.2-10.1-7.8 13.1 10.2 24.9 22 35.1 35.1-2.6-3.4-5.2-6.7-7.8-10.1 10.2 13.3 18.7 27.8 25.2 43.2-1.7-4-3.4-8-5-11.9 6.6 15.8 11.1 32.4 13.5 49.3-.6-4.4-1.2-8.9-1.8-13.3 2.5 18.9 1.8 38.1 1.8 57.1v73 18.1c0 12.8 5.6 26.3 14.6 35.4 8.7 8.7 22.9 15.2 35.4 14.6 12.9-.6 26.3-4.8 35.4-14.6 8.8-9.8 14.5-21.8 14.5-35.3z"/><path id="XMLID_35_" d="m512 518.6c-29.4.2-60.5 8.6-84.5 25.9-7.3 5.3-14.7 10.8-21.2 17.1-6.9 6.6-12.6 14.3-18.3 21.9-8.7 11.6-14.6 24.9-19.6 38.5-5.1 13.9-7.2 29.3-7.8 43.9-.6 15.3 1.5 31.3 5.8 46 7.9 27.1 23.8 53.9 45.8 71.9 6.9 5.7 14.2 11.5 21.9 16.2 8.2 5 17.2 8.6 26.1 12.2 13.9 5.6 28.6 7.8 43.5 9 29.4 2.4 61.2-5.9 86.4-21.2 24.5-14.9 46.2-37.4 58.1-63.7 3.6-7.9 7.2-16.1 9.6-24.5 2.8-9.5 3.9-19.5 5.1-29.3 1.7-15.1 0-30.3-2.9-45.1-3-15.8-9.6-31.7-18-45.4-8-13.2-18.1-25.9-30.1-35.8-7.6-6.3-15.6-12.6-24.2-17.5-8.3-4.8-17.4-8.4-26.3-11.8-15.5-5.8-32.9-8.2-49.4-8.3-12.8-.1-26.3 5.6-35.4 14.6-8.7 8.7-15.2 22.9-14.6 35.4 1.2 27.2 22 49.8 50 50 4.7 0 9.3.3 13.9.9-4.4-.6-8.9-1.2-13.3-1.8 8.9 1.3 17.6 3.7 25.9 7.2-4-1.7-8-3.4-11.9-5 8.1 3.5 15.7 8 22.6 13.4-3.4-2.6-6.7-5.2-10.1-7.8 6.5 5.2 12.4 11 17.6 17.6-2.6-3.4-5.2-6.7-7.8-10.1 5.4 7 9.9 14.5 13.4 22.6-1.7-4-3.4-8-5-11.9 3.5 8.3 5.9 17 7.2 25.9-.6-4.4-1.2-8.9-1.8-13.3 1.2 9.3 1.2 18.5 0 27.8.6-4.4 1.2-8.9 1.8-13.3-1.3 8.9-3.7 17.6-7.2 25.9 1.7-4 3.4-8 5-11.9-3.5 8.1-8 15.7-13.4 22.6 2.6-3.4 5.2-6.7 7.8-10.1-5.2 6.5-11 12.4-17.6 17.6 3.4-2.6 6.7-5.2 10.1-7.8-7 5.4-14.5 9.9-22.6 13.4 4-1.7 8-3.4 11.9-5-8.3 3.5-17 5.9-25.9 7.2 4.4-.6 8.9-1.2 13.3-1.8-9.3 1.2-18.5 1.2-27.8 0 4.4.6 8.9 1.2 13.3 1.8-8.9-1.3-17.6-3.7-25.9-7.2 4 1.7 8 3.4 11.9 5-8.1-3.5-15.7-8-22.6-13.4 3.4 2.6 6.7 5.2 10.1 7.8-6.5-5.2-12.4-11-17.6-17.6 2.6 3.4 5.2 6.7 7.8 10.1-5.4-7-9.9-14.5-13.4-22.6 1.7 4 3.4 8 5 11.9-3.5-8.3-5.9-17-7.2-25.9.6 4.4 1.2 8.9 1.8 13.3-1.2-9.3-1.2-18.5 0-27.8-.6 4.4-1.2 8.9-1.8 13.3 1.3-8.9 3.7-17.6 7.2-25.9-1.7 4-3.4 8-5 11.9 3.5-8.1 8-15.7 13.4-22.6-2.6 3.4-5.2 6.7-7.8 10.1 5.2-6.5 11-12.4 17.6-17.6-3.4 2.6-6.7 5.2-10.1 7.8 7-5.4 14.5-9.9 22.6-13.4-4 1.7-8 3.4-11.9 5 8.3-3.5 17-5.9 25.9-7.2-4.4.6-8.9 1.2-13.3 1.8 4.6-.6 9.2-.9 13.9-.9 12.9-.1 26.2-5.5 35.4-14.6 8.7-8.7 15.2-22.9 14.6-35.4-.6-12.9-4.8-26.3-14.6-35.4-9.8-8.9-21.9-14.7-35.4-14.6z"/></g></g></svg>