<svg clip-rule="evenodd" fill-rule="evenodd" height="512" image-rendering="optimizeQuality" shape-rendering="geometricPrecision" text-rendering="geometricPrecision" viewBox="0 0 1.70666 1.70666" width="512" xmlns="http://www.w3.org/2000/svg"><g id="Layer_x0020_1"><path d="m.850394 1.70767c-.191587 0-.341669-.0879252-.341669-.200177 0-.0910906.0946732-.166335.241217-.19172.0217362-.00369291.180484-.00354724.202295.00022835.145677.0256339.239823.100799.239823.191488 0 .112252-.150083.200181-.341665.200181z" fill="#87c5fe"/><g fill="#000002"><path d="m.808906.747835c-.0992638 0-.180024-.080752-.180024-.180016v-.140024c0-.0220984.0179016-.04.04-.04h.280051c.0220984 0 .04.0179016.04.04v.140024c-.00001181.0992638-.0807598.180016-.180028.180016z"/><path d="m1.00445.646012h-.0608622c-.0123858 0-.0240669-.00573622-.0316535-.0155433-.00756693-.00980315-.0101654-.0225669-.00705118-.0345551.00238583-.00911024.00359449-.0185669.00359449-.0280827v-.106319c0-.0220984.0178976-.04.04-.04l.0559724.00000394c.0585984 0 .10626.0503622.10626.112264 0 .0618976-.0476693.112232-.10626.112232zm-.0159724-.0799961h.0159724c.0142362 0 .0262756-.0147795.0262756-.0322638s-.0120236-.0322598-.0262756-.0322598h-.0159724z"/><path d="m1.02529.747835h-.389354c-.0220984 0-.04-.0179016-.04-.04s.0179016-.04.04-.04h.38937c.0221024 0 .04.0179016.04.04s-.0179213.04-.0400157.04z"/></g><g id="_346418584"><path id="_346417696" d="m.853323.935354c-.202559 0-.367366-.164807-.367366-.367362 0-.202563.164807-.367366.367366-.367366.202555 0 .367362.164803.367362.367366.00000394.202571-.164799.367362-.367362.367362z" fill="#fbfbfb"/><g><path id="_346418416" d="m.850398 1.54403c-.00004331 0-.00008661 0-.0001378 0-.0137677-.00003937-.0265315-.00717323-.0338031-.0188583l-.321937-.517768c-.132606-.108346-.208492-.268083-.208492-.439394 0-.312819.254492-.567315.567311-.567315.312799 0 .567295.254496.567295.567315 0 .172331-.076622.332685-.210476.441035l-.325945.516354c-.00734252.0115984-.0200906.0186299-.033815.0186299z" fill="#df5a49"/><path id="_346418488" d="m.853323.893917c-.179713 0-.325929-.146217-.325929-.325925 0-.179713.146217-.325925.325929-.325925.179709 0 .325925.146213.325925.325925.00000394.17972-.146209.325925-.325925.325925z" fill="#fbfbfb"/><path id="_346418296" d="m.853323.242067c.179709 0 .325925.146213.325925.325925.00000394.179724-.146209.325925-.325925.325925-.179713 0-.325929-.146217-.325929-.325925 0-.179713.146217-.325925.325929-.325925zm-.367366.325925c0 .202555.164807.367362.367366.367362.202563 0 .367366-.164791.367362-.367362 0-.202563-.164807-.367366-.367362-.367366-.202559 0-.367366.164803-.367366.367366z" fill="#c95142"/></g></g></g></svg>