<svg id="Layer_2" data-name="Layer 2" xmlns="http://www.w3.org/2000/svg" viewBox="0 0 346.98 346.98"><defs><style>.cls-1{fill:none;stroke:#231f20;stroke-miterlimit:10;stroke-width:8px;}</style></defs><title>pressure</title><circle class="cls-1" cx="173.49" cy="173.49" r="169.49"/><line class="cls-1" x1="80.55" y1="170.6" x2="45.12" y2="170.25"/><path class="cls-1" d="M342.31,240.18h32.41a126.14,126.14,0,1,0-252.27,0" transform="translate(-73.26 -69.58)"/><line class="cls-1" x1="255.74" y1="125.75" x2="282.89" y2="109.64"/><line class="cls-1" x1="220.53" y1="90.36" x2="238.04" y2="63.21"/><line class="cls-1" x1="175.33" y1="78.63" x2="175.33" y2="46.22"/><line class="cls-1" x1="129.26" y1="90.36" x2="112.09" y2="62.42"/><line class="cls-1" x1="94.04" y1="125.05" x2="67.77" y2="109.99"/><circle class="cls-1" cx="175.33" cy="224.47" r="26.01"/><path class="cls-1" d="M233.44,272.9l13.76-49.78a1.4,1.4,0,0,1,2.7,0l12.87,49.09" transform="translate(-73.26 -69.58)"/><line class="cls-1" x1="108.58" y1="276.58" x2="239.97" y2="276.58"/><line class="cls-1" x1="145.72" y1="307.07" x2="201.34" y2="307.07"/></svg>