<svg id="Layer_2" data-name="Layer 2" xmlns="http://www.w3.org/2000/svg" viewBox="0 0 552.22 552.22"><defs><style>.cls-1{fill:none;stroke:#231f20;stroke-miterlimit:10;stroke-width:16px;}</style></defs><title>pressure</title><circle class="cls-1" cx="276.11" cy="276.11" r="268.11"/><line class="cls-1" x1="129.1" y1="271.54" x2="73.05" y2="270.99"/><path class="cls-1" d="M577.13,331.86H628.4c0-110.2-89.33-199.53-199.52-199.53S229.36,221.66,229.36,331.86" transform="translate(-149.86 -60.32)"/><line class="cls-1" x1="406.21" y1="200.59" x2="449.17" y2="175.1"/><line class="cls-1" x1="350.51" y1="144.62" x2="378.22" y2="101.66"/><line class="cls-1" x1="279.02" y1="126.05" x2="279.02" y2="74.78"/><line class="cls-1" x1="206.14" y1="144.62" x2="178.98" y2="100.42"/><line class="cls-1" x1="150.44" y1="199.49" x2="108.87" y2="175.65"/><circle class="cls-1" cx="279.02" cy="356.75" r="41.15"/><path class="cls-1" d="M404.92,383.62l21.77-78.75a2.21,2.21,0,0,1,4.27,0l20.36,77.67" transform="translate(-149.86 -60.32)"/><line class="cls-1" x1="173.44" y1="439.19" x2="381.27" y2="439.19"/><line class="cls-1" x1="232.19" y1="487.41" x2="320.17" y2="487.41"/></svg>