<svg id="Layer_2" data-name="Layer 2" xmlns="http://www.w3.org/2000/svg" viewBox="0 0 1113.52 1182.77"><defs><style>.cls-1{fill:none;stroke:#231f20;stroke-miterlimit:10;stroke-width:18px;}</style></defs><title>RC caliberation</title><path class="cls-1" d="M1157.05,1310.19l-158.47-82.52H335.07l-133,82.52c-38.81,0-70.28-32.49-70.28-72.56V708.36c0-40.07,31.47-72.56,70.28-72.56h955c38.82,0,70.28,32.49,70.28,72.56v529.27C1227.33,1277.7,1195.87,1310.19,1157.05,1310.19Z" transform="translate(-122.81 -136.42)"/><path class="cls-1" d="M283.33,635.8V287.94s46.95-64,91.77,0V635.8" transform="translate(-122.81 -136.42)"/><path class="cls-1" d="M985.46,635.8V296.48s49.09-74.7,93.91,0V635.8" transform="translate(-122.81 -136.42)"/><circle class="cls-1" cx="172.26" cy="814.17" r="65.09"/><circle class="cls-1" cx="944.82" cy="814.17" r="65.09"/><line class="cls-1" x1="172.26" y1="814.17" x2="172.26" y2="706.4"/><line class="cls-1" x1="944.82" y1="814.17" x2="944.82" y2="706.4"/><rect class="cls-1" x="297.11" y="604.8" width="525" height="381.17" rx="12"/><line class="cls-1" x1="297.11" y1="879.26" x2="574.55" y2="604.8"/><line class="cls-1" x1="344.06" y1="985.97" x2="736.74" y2="604.8"/><line class="cls-1" x1="525.46" y1="985.97" x2="822.11" y2="689.33"/><line class="cls-1" x1="206.41" y1="123.07" x2="206.41"/><line class="cls-1" x1="909.6" y1="126.98" x2="909.6"/><polygon class="cls-1" points="49.55 576.22 1065.4 576.22 1065.4 836.58 1024.85 909.14 1026.98 1024.38 130.65 1024.38 117.84 928.35 49.55 849.39 49.55 576.22"/></svg>