<svg id="Layer_2" data-name="Layer 2" xmlns="http://www.w3.org/2000/svg" viewBox="0 0 412.67 437.58"><defs><style>.cls-1{fill:none;stroke:#231f20;stroke-miterlimit:10;stroke-width:8px;}</style></defs><title>RC caliberation</title><path class="cls-1" d="M467.53,508.73,409,478.25H163.9l-49.12,30.48c-14.34,0-26-12-26-26.8V286.42c0-14.8,11.62-26.8,26-26.8H467.53c14.34,0,26,12,26,26.8V481.93C493.49,496.73,481.87,508.73,467.53,508.73Z" transform="translate(-84.82 -75.15)"/><path class="cls-1" d="M144.79,259.62V131.12s17.34-23.65,33.9,0v128.5" transform="translate(-84.82 -75.15)"/><path class="cls-1" d="M404.15,259.62V134.28s18.13-27.59,34.68,0V259.62" transform="translate(-84.82 -75.15)"/><circle class="cls-1" cx="64.31" cy="300.74" r="24.04"/><circle class="cls-1" cx="349.68" cy="300.74" r="24.04"/><line class="cls-1" x1="64.31" y1="300.74" x2="64.31" y2="260.93"/><line class="cls-1" x1="349.68" y1="300.74" x2="349.68" y2="260.93"/><rect class="cls-1" x="110.42" y="223.41" width="193.93" height="140.8" rx="12"/><line class="cls-1" x1="110.42" y1="324.79" x2="212.91" y2="223.41"/><line class="cls-1" x1="127.77" y1="364.2" x2="272.82" y2="223.41"/><line class="cls-1" x1="194.77" y1="364.2" x2="304.35" y2="254.63"/><line class="cls-1" x1="76.92" y1="45.46" x2="76.92"/><line class="cls-1" x1="336.67" y1="46.9" x2="336.67"/><polygon class="cls-1" points="18.98 212.85 394.22 212.85 394.22 309.02 379.24 335.82 380.03 378.39 48.93 378.39 44.2 342.92 18.98 313.75 18.98 212.85"/></svg>