<svg id="Layer_1" enable-background="new 0 0 512 512" height="512" viewBox="0 0 512 512" width="512" xmlns="http://www.w3.org/2000/svg"><g clip-rule="evenodd" fill-rule="evenodd"><g><g><path d="m427.239 20.28h-260.903c-2.344 0-4.361.836-6.018 2.493l-47.786 47.786c-1.657 1.657-2.493 3.674-2.493 6.018v357.342c0 4.687 3.823 8.511 8.511 8.511h308.688c4.688 0 8.511-3.823 8.511-8.511v-405.128c.001-4.688-3.822-8.511-8.51-8.511z" fill="#eceff1"/><path d="m427.239 20.28h-15.57v422.149h15.57c4.688 0 8.511-3.823 8.511-8.511v-405.127c0-4.688-3.823-8.511-8.511-8.511z" fill="#d1d1d6"/><path d="m162.811 21.018c-.904.413-1.736.998-2.493 1.755l-47.786 47.786c-.757.757-1.342 1.589-1.755 2.493h47.778c2.344 0 4.255-1.912 4.255-4.255v-47.779z" fill="#a79ba7"/></g><g><path d="m149.258 308.582h26.279c3.689 0 6.697 3.008 6.697 6.697v64.115c0 3.689-3.008 6.697-6.697 6.697h-26.279c-3.689 0-6.697-3.008-6.697-6.697v-64.115c0-3.688 3.008-6.697 6.697-6.697z" fill="#fe646f"/><path d="m165.55 308.582h9.986c3.689 0 6.697 3.008 6.697 6.697v64.115c0 3.688-3.008 6.697-6.697 6.697h-9.986c3.689 0 6.697-3.009 6.697-6.697v-64.115c0-3.688-3.008-6.697-6.697-6.697z" fill="#fd4755"/><path d="m222.924 259.463h26.279c3.689 0 6.697 3.008 6.697 6.697v113.234c0 3.689-3.008 6.697-6.697 6.697h-26.279c-3.689 0-6.697-3.008-6.697-6.697v-113.234c0-3.688 3.008-6.697 6.697-6.697z" fill="#ffe177"/><path d="m239.217 259.464h9.986c3.689 0 6.697 3.008 6.697 6.697v113.235c0 3.688-3.008 6.697-6.697 6.697h-9.986c3.689 0 6.697-3.009 6.697-6.697v-113.236c-.001-3.688-3.009-6.696-6.697-6.696z" fill="#ffd064"/><path d="m296.59 275.999h26.279c3.689 0 6.697 3.009 6.697 6.698v96.698c.001 3.689-3.008 6.698-6.697 6.698-8.76 0-17.519 0-26.279 0-3.689 0-6.698-3.009-6.697-6.698 0-38.992 0-57.705 0-96.698 0-3.689 3.008-6.698 6.697-6.698z" fill="#6cf5c2"/><path d="m312.883 275.999h9.986c3.689 0 6.698 3.009 6.697 6.698v96.698c.001 3.689-3.008 6.698-6.697 6.698h-9.986c3.689 0 6.698-3.009 6.697-6.698 0-38.992 0-57.705 0-96.698.001-3.689-3.008-6.698-6.697-6.698z" fill="#00e499"/><path d="m370.255 207.422h26.279c3.689 0 6.697 3.008 6.697 6.697v165.275c0 3.689-3.008 6.697-6.697 6.697h-26.279c-3.689 0-6.697-3.008-6.697-6.697v-165.275c0-3.688 3.009-6.697 6.697-6.697z" fill="#8ac9fe"/><path d="m386.548 207.422h9.986c3.689 0 6.697 3.008 6.697 6.697v165.275c0 3.688-3.008 6.697-6.697 6.697h-9.986c3.689 0 6.697-3.009 6.697-6.697v-165.275c0-3.688-3.008-6.697-6.697-6.697z" fill="#60b7ff"/></g><g><path d="m96.774 383.102 74.929-43.411c14.062-8.147 28.361-13.924 43.818-8.91 17.233 5.588 45.373 17.589 74.071 22.764 10.652 3.453 17.293 14.12 14.395 24.935-2.898 10.817-12.038 16.394-24.934 14.399l10.032 1.606c11.496 1.839 22.053.265 32.115-5.594l72.04-41.96c55.999-32.614 64.224 17.561 45.605 29.024l-130.735 80.501c-12.024 7.402-25.181 9.13-38.821 5.474l-94.826-25.409-35.118 20.275c-6.752 3.898-15.439 1.571-19.337-5.181l-28.398-49.187c-3.894-6.746-1.576-15.422 5.164-19.326z" fill="#f6dccd"/><path d="m302.278 382.967c-4.004 7.825-12.255 11.609-23.225 9.912-15.533-4.107-31.048-8.319-46.568-12.477-4.157-1.114-6.624-5.387-5.51-9.544s5.387-6.624 9.544-5.51z" fill="#f1cbbc"/><path d="m96.774 383.102 74.929-43.411c14.062-8.147 28.361-13.924 43.818-8.91 9.22 2.99 21.562 7.815 35.441 12.448l-145.148 83.801-14.204-24.601c-3.894-6.746-1.576-15.422 5.164-19.327z" fill="#f1cbbc"/><path d="m104.245 359.458 59.425 104.999c2.873 5.077 1.07 11.582-4.007 14.455l-20.213 11.44c-5.077 2.874-11.582 1.071-14.455-4.007l-59.425-104.999c-2.873-5.077-1.07-11.582 4.007-14.455l20.213-11.439c5.077-2.873 11.582-1.071 14.455 4.006z" fill="#d1d1d6"/><path d="m135.499 431.599 10.518 18.584 10.401 18.378c2.868 5.067 1.078 11.555-3.976 14.437l7.22-4.086c5.077-2.873 6.88-9.378 4.007-14.455l-10.436-18.44-20.955-37.026-20.978-37.067-7.055-12.466c-2.489-4.398-7.703-6.338-12.354-4.911l12.215 21.582 20.955 37.026 10.436 18.44z" fill="#b1b1b5"/></g></g><path d="m90.601 375.163c-3.951.569-6.679 4.238-6.115 8.179.564 3.951 4.28 6.679 8.184 6.101 3.951-.569 6.679-4.238 6.114-8.179-.563-3.952-4.232-6.685-8.183-6.101zm337.146 58.746v-41.668l-68.53 42.181h68.012c.235 0 .518-.24.518-.513zm6.961-64.757-130.804 80.533c-9.971 6.138-20.93 7.676-32.548 4.558l-94.869-25.422c-2.023-.546-4.233-.259-6.068.804l-12.982 7.516-34.1-60.219 52.35-30.309c11.665-6.773 24.317-12.45 37.346-8.231 4.374 1.421 9.407 3.241 15.239 5.338 16.744 6.072 37.628 13.612 59.311 17.591 6.632 2.389 10.395 8.8 8.701 15.112-1.834 6.707-6.82 9.628-14.91 8.711-10.489-2.173-20.554-5.033-31.137-8.062-5.08-1.439-10.301-2.94-15.71-4.393-4.233-1.138-8.654 1.392-9.783 5.663s1.411 8.659 5.644 9.802c5.268 1.406 10.442 2.888 15.474 4.318 11.006 3.151 21.448 6.119 32.689 8.419.047.009.235.052.329.061l8.936 1.458c13.781 2.201 26.01.052 37.44-6.58l72.057-41.979c19.566-11.411 35.088-12.878 40.497-3.848 3.671 6.121 2.071 15.97-3.102 19.159zm-277.976 99.229c.658 1.242.235 2.869-.988 3.561l-20.225 11.448c-.8.451-1.599.343-1.975.235-.423-.113-1.129-.414-1.599-1.223l-59.452-105.029c-.659-1.232-.235-2.864.988-3.561l20.225-11.439c.47-.264.894-.334 1.27-.334.282 0 .517.052.706.104.423.108 1.129.409 1.599 1.209zm-27.374-403.328h25.446v-25.46zm44.824 251.528h-23.659v26.099l17.121-9.92c2.117-1.218 4.327-2.427 6.538-3.589zm73.704-49.119h-23.659v57.82c2.963 1.049 6.162 2.201 9.454 3.4 4.468 1.609 9.219 3.33 14.204 5.052v-66.272zm63.826 113.1c-.423 1.66-.988 3.231-1.646 4.708 2.399-.828 4.798-1.919 7.102-3.279l4.374-2.53v-95.457h-23.659v64.508c11.242 6.458 17.215 19.492 13.829 32.05zm83.487-165.139h-23.659v134.919l17.732-10.32c2.022-1.19 3.998-2.281 5.926-3.273v-121.326zm32.03-187.142h-256.434v40.511c0 6.759-5.503 12.257-12.276 12.257h-40.497v280.464l16.509-9.572v-43.361c0-4.421 3.574-7.996 7.996-7.996h39.697c4.421 0 7.996 3.574 7.996 7.996v14.2c5.691-1.538 11.712-2.267 17.967-1.646v-61.672c0-4.421 3.575-8.001 7.996-8.001h39.698c4.421 0 7.996 3.579 7.996 8.001v79.498c5.879 1.783 11.9 3.434 17.967 4.831v-67.791c0-4.417 3.622-7.996 7.996-7.996h39.698c4.421 0 7.996 3.579 7.996 7.996v94.145l18.014-10.484v-152.238c0-4.421 3.574-8.001 7.996-8.001h39.65c4.421 0 7.996 3.579 7.996 8.001v122.817c6.397-1.839 11.853-2.408 16.556-2.14v-299.311c.001-.277-.282-.508-.517-.508zm16.51 354.083v51.546c0 9.101-7.432 16.514-16.509 16.514h-93.976l-20.93 12.878c-9.172 5.639-19.19 8.49-29.538 8.49-5.127 0-10.348-.691-15.568-2.098l-71.916-19.27h-28.879l-1.129.64 5.362 9.44c5.033 8.941 1.881 20.31-7.055 25.371l-20.225 11.439c-2.822 1.599-5.926 2.408-9.078 2.408-1.693 0-3.387-.216-5.033-.677-4.798-1.331-8.796-4.44-11.241-8.763l-59.453-105.031c-5.033-8.927-1.882-20.31 7.055-25.361l20.225-11.448c4.28-2.441 9.313-3.053 14.11-1.721.705.193 1.411.442 2.07.71v-270.859c0-4.468 1.646-8.509 4.845-11.669l47.74-47.792c3.198-3.161 7.243-4.83 11.712-4.83h260.902c9.078 0 16.509 7.403 16.509 16.509v304.62c4.092 2.893 6.585 6.284 7.808 8.363 8.089 13.447 4.279 32.557-7.808 40.591zm-204.555-305.491c-4.421 0-7.996-3.593-7.996-8.001 0-4.421 3.575-8 7.996-8h107.804c4.421 0 7.996 3.579 7.996 8 0 4.407-3.575 8.001-7.996 8.001zm-42.661 0c-4.421 0-7.996-3.593-7.996-8.001 0-4.421 3.575-8 7.996-8h11.524c4.421 0 7.996 3.579 7.996 8 0 4.407-3.575 8.001-7.996 8.001zm42.661 36.057c-4.421 0-7.996-3.589-7.996-7.996 0-4.422 3.575-8.001 7.996-8.001h107.804c4.421 0 7.996 3.579 7.996 8.001 0 4.407-3.575 7.996-7.996 7.996zm-42.661 0c-4.421 0-7.996-3.589-7.996-7.996 0-4.422 3.575-8.001 7.996-8.001h11.524c4.421 0 7.996 3.579 7.996 8.001 0 4.407-3.575 7.996-7.996 7.996zm42.661 36.061c-4.421 0-7.996-3.58-7.996-8.001 0-4.416 3.575-8.001 7.996-8.001h107.804c4.421 0 7.996 3.584 7.996 8.001 0 4.421-3.575 8.001-7.996 8.001zm-31.137 0h-11.524c-4.421 0-7.996-3.58-7.996-8.001 0-4.416 3.575-8.001 7.996-8.001h11.524c4.421 0 7.996 3.584 7.996 8.001 0 4.422-3.575 8.001-7.996 8.001zm-50.609 112.168 73.704-57.359c2.069-1.632 4.844-2.107 7.384-1.289l68.953 22.351 54.843-55.28-2.258.188c-4.374.381-8.278-2.869-8.654-7.272-.376-4.398 2.869-8.278 7.29-8.668l23.941-2.098c2.446-.211 4.797.658 6.444 2.38 1.693 1.721 2.493 4.087 2.21 6.477l-2.634 23.922c-.47 4.092-3.951 7.112-7.949 7.112-.329 0-.611-.009-.894-.052-4.421-.489-7.572-4.449-7.055-8.838l.094-1.082-57.477 57.97c-2.117 2.15-5.268 2.911-8.137 1.98l-69.659-22.572-70.317 54.763c-1.458 1.138-3.151 1.689-4.892 1.689-2.399 0-4.75-1.063-6.302-3.09-2.727-3.48-2.116-8.508 1.365-11.232z"/></g></svg>