<svg viewBox="0 0 64 64" xmlns="http://www.w3.org/2000/svg"><g id="Solid"><path d="m18.307 26.307 8-8-.293-.293a5.657 5.657 0 0 0 -8 8z"/><path d="m52.174 47.279-1.821-.828a7.854 7.854 0 0 1 -3.9 3.9l.828 1.821a9.854 9.854 0 0 0 4.893-4.893z"/><path d="m57.145 48.037-1.906-.6a12 12 0 0 1 -7.806 7.806l.6 1.906a14 14 0 0 0 9.112-9.112z"/><path d="m60.043 48.345a15.9 15.9 0 0 1 -11.7 11.7l.476 1.943a17.892 17.892 0 0 0 13.167-13.167z"/><path d="m48.014 44.014a4 4 0 0 0 -4-4 3.96 3.96 0 0 0 -2.014.567l-2.274-2.274 3.293-3.293-7.5-7.5 2.5-2.5 4 4 16-16-11-11-16 16 4 4-2.5 2.5-4.793-4.793-8 8 4.793 4.793-2.5 2.5-4-4-16 16 11 11 16-16-4-4 2.5-2.5 7.5 7.5 3.293-3.293 2.269 2.279a3.96 3.96 0 0 0 -.567 2.019 4 4 0 0 0 8 0zm-30-10.171 3.379 3.379-3.379 3.378-3.378-3.378zm-4.792 4.793 3.378 3.378-3.586 3.586-3.378-3.378zm-8.379 8.378 3.379-3.378 3.378 3.378-3.378 3.379zm8.171 8.172-3.378-3.379 3.378-3.379 3.379 3.379zm4.793-4.793-3.379-3.379 3.586-3.586 3.379 3.379zm8.379-8.379-3.379 3.379-3.379-3.379 3.379-3.378zm15.828-15.828-3.378-3.379 3.378-3.379 3.379 3.379zm4.793-4.793-3.379-3.379 3.586-3.586 3.379 3.379zm8.379-8.379-3.379 3.379-3.379-3.379 3.379-3.378zm-8.172-8.171 3.379 3.379-3.379 3.378-3.378-3.378zm-4.792 4.793 3.378 3.378-3.586 3.586-3.378-3.378zm-8.379 8.378 3.379-3.378 3.378 3.378-3.378 3.379z"/></g></svg>