<svg id="Layer_2" data-name="Layer 2" xmlns="http://www.w3.org/2000/svg" viewBox="0 0 450.35 501.49"><defs><style>.cls-1{fill:none;stroke:#231f20;stroke-miterlimit:10;stroke-width:8px;}</style></defs><title>save_file</title><path class="cls-1" d="M440.47,104.46a8.94,8.94,0,0,1,6.58,2.89h0L521.24,188a19.47,19.47,0,0,1,5.14,13.17V540.4s.58,36.1-31.28,51.76A58.69,58.69,0,0,1,469.19,598H139c-19.7,0-38.12-10.52-47.46-27.87-.29-.54-.58-1.09-.86-1.65A63.52,63.52,0,0,1,84.13,540V169.89s-4.73-55.18,50.45-65.43Z" transform="translate(-80.03 -100.46)"/><path class="cls-1" d="M106.58,4H336.77a0,0,0,0,1,0,0V146.29A43.75,43.75,0,0,1,293,190H141.27a34.69,34.69,0,0,1-34.69-34.69V4A0,0,0,0,1,106.58,4Z"/><line class="cls-1" x1="257.94" y1="4" x2="257.94" y2="73.37"/><path class="cls-1" d="M136.54,250.74H310.76a44.93,44.93,0,0,1,44.93,44.93V497.49a0,0,0,0,1,0,0H94a0,0,0,0,1,0,0V293.31A42.57,42.57,0,0,1,136.54,250.74Z"/></svg>