<svg id="Layer_2" data-name="Layer 2" xmlns="http://www.w3.org/2000/svg" viewBox="0 0 566.09 629.45"><defs><style>.cls-1{fill:none;stroke:#231f20;stroke-miterlimit:10;stroke-width:18px;}</style></defs><title>save_file</title><path class="cls-1" d="M472.7,45.36a11.12,11.12,0,0,1,8.15,3.57h0l91.93,99.89a24.1,24.1,0,0,1,6.36,16.31V585.51s.72,44.72-38.75,64.12a72.71,72.71,0,0,1-32.11,7.18H99.1c-24.41,0-47.23-13-58.8-34.53-.36-.67-.72-1.35-1.07-2A78.75,78.75,0,0,1,31.17,585V126.43S25.31,58.06,93.69,45.36Z" transform="translate(-22.05 -36.36)"/><path class="cls-1" d="M136.1,9H421.32a0,0,0,0,1,0,0V195.76a43.75,43.75,0,0,1-43.75,43.75H170.79a34.69,34.69,0,0,1-34.69-34.69V9A0,0,0,0,1,136.1,9Z"/><line class="cls-1" x1="323.64" y1="9" x2="323.64" y2="94.96"/><path class="cls-1" d="M163,314.73H399.83a44.93,44.93,0,0,1,44.93,44.93V620.45a0,0,0,0,1,0,0H120.48a0,0,0,0,1,0,0V357.3A42.57,42.57,0,0,1,163,314.73Z"/></svg>