<svg id="Capa_1" enable-background="new 0 0 511.994 511.994" height="512" viewBox="0 0 511.994 511.994" width="512" xmlns="http://www.w3.org/2000/svg"><g><path d="m211.052 0h-164c-8.284 0-15 6.716-15 15v164c0 8.284 6.716 15 15 15h164c8.284 0 15-6.716 15-15v-164c0-8.284-6.716-15-15-15z"/><path d="m211.052 236h-164c-8.284 0-15 6.716-15 15v164c0 8.284 6.716 15 15 15h164c8.284 0 15-6.716 15-15v-164c0-8.284-6.716-15-15-15z"/><path d="m442.622 375.24-51.62-11.42-1-.15v-107.93c-.001-17.523-14.21-31.742-31.74-31.74-17.53 0-31.75 14.21-31.75 31.74l-.2 165.62c0 8.29-6.71 15-15 15-8.28 0-15-6.71-15-15v-58.47c-22.1 13.01-35.15 39.11-29.59 66.35 2.63 20.11 16.7 55.94 23.98 73.45 2.32 5.59 7.78 9.23 13.84 9.23l134.498.074c6.124.003 11.633-3.714 13.922-9.395 5.825-14.454 17.03-42.896 24.6-66.09 8.75-26.749-7.46-55.199-34.94-61.269z"/><path d="m283.052 194h164c8.28 0 15-6.72 15-15v-164c0-8.28-6.72-15-15-15h-164c-8.28 0-15 6.72-15 15v164c0 8.28 6.72 15 15 15zm46.14-114.86c5.86-5.85 15.36-5.85 21.22 0l8.39 8.4 20.89-20.9c5.86-5.85 15.36-5.85 21.22 0 5.85 5.86 5.85 15.36 0 21.22l-31.5 31.5c-2.827 2.837-6.681 4.396-10.61 4.39-3.84 0-7.68-1.46-10.61-4.39l-19-19c-5.85-5.86-5.85-15.36 0-21.22z"/></g></svg>