<svg id="Capa_1" enable-background="new 0 0 511.994 511.994" height="512" viewBox="0 0 511.994 511.994" width="512" xmlns="http://www.w3.org/2000/svg"><g><path d="m365.052 15 26.193 73.28-26.193 90.72h-82v-164z" fill="#e6e9f2"/><path d="m365.052 15h82v164h-82z" fill="#cfd7e6"/><g><path d="m365.052 30 16.824-13.28-16.824-16.72h-82c-8.28 0-15 6.72-15 15v164c0 8.28 6.72 15 15 15h82l16.824-13.527-16.824-16.473h-67v-134z" fill="#4d578c"/></g><g><path d="m365.052 81.29 13.063 11.031-13.063 30.069c-1.98.91-4.12 1.36-6.25 1.36-3.84 0-7.68-1.46-10.61-4.39l-19-19c-5.85-5.86-5.85-15.36 0-21.22 5.86-5.85 15.36-5.85 21.22 0l8.39 8.4z" fill="#24b282"/></g><path d="m358.262 224 29.277 215.231-29.277 72.719-53.721-.025c-6.059-.003-11.517-3.644-13.843-9.239-7.277-17.502-21.345-53.338-23.976-73.446-5.56-27.24 7.49-53.34 29.59-66.35 5.643-3.32 16.277 13.48 16.277 13.48s9.789-21.936 13.723-22.04l.2.03v-98.62c0-17.53 14.22-31.74 31.75-31.74z" fill="#ffccbd"/><path d="m326.312 354.33v67.03c0 8.29-6.71 15-15 15-8.28 0-15-6.71-15-15v-58.47c8.77-5.16 18.97-8.27 30-8.56z" fill="#ffa68c"/><path d="m477.562 436.51c-7.57 23.194-18.776 51.636-24.6 66.09-2.289 5.68-7.797 9.398-13.922 9.395l-80.778-.044v-287.951c8.77 0 16.7 3.55 22.44 9.3 5.75 5.74 9.3 13.68 9.3 22.44v107.93l1 .15 51.62 11.42c27.48 6.07 43.69 34.52 34.94 61.27z" fill="#ffbda9"/><path d="m400.912 87.86-31.5 31.5c-1.3 1.3-2.78 2.31-4.36 3.03v-41.1l14.64-14.65c5.86-5.85 15.36-5.85 21.22 0 5.85 5.86 5.85 15.36 0 21.22z" fill="#19805d"/><path d="m462.052 15v164c0 8.28-6.72 15-15 15h-82v-30h67v-134h-67v-30h82c8.28 0 15 6.72 15 15z" fill="#283366"/><g><path d="m129.052 15 26.193 73.28-26.193 90.72h-82v-164z" fill="#e6e9f2"/><path d="m129.052 15h82v164h-82z" fill="#cfd7e6"/><g><path d="m129.052 30 16.824-13.28-16.824-16.72h-82c-8.28 0-15 6.72-15 15v164c0 8.28 6.72 15 15 15h82l16.824-13.527-16.824-16.473h-67v-134z" fill="#4d578c"/></g><path d="m226.052 15v164c0 8.28-6.72 15-15 15h-82v-30h67v-134h-67v-30h82c8.28 0 15 6.72 15 15z" fill="#283366"/></g><g><path d="m129.052 251 26.193 73.28-26.193 90.72h-82v-164z" fill="#e6e9f2"/><path d="m129.052 251h82v164h-82z" fill="#cfd7e6"/><g><path d="m129.052 266 16.824-13.28-16.824-16.72h-82c-8.28 0-15 6.72-15 15v164c0 8.28 6.72 15 15 15h82l16.824-13.526-16.824-16.474h-67v-134z" fill="#4d578c"/></g><path d="m226.052 251v164c0 8.28-6.72 15-15 15h-82v-30h67v-134h-67v-30h82c8.28 0 15 6.72 15 15z" fill="#283366"/></g></g></svg>