<svg id="Capa_1" enable-background="new 0 0 512 512" height="512" viewBox="0 0 512 512" width="512" xmlns="http://www.w3.org/2000/svg"><g><path d="m278.513 194h164c8.284 0 15-6.716 15-15v-164c0-8.284-6.716-15-15-15h-164c-8.284 0-15 6.716-15 15v164c0 8.284 6.716 15 15 15zm15-164h134v134h-134z"/><path d="m206.513 0h-164c-8.284 0-15 6.716-15 15v164c0 8.284 6.716 15 15 15h164c8.284 0 15-6.716 15-15v-164c0-8.284-6.716-15-15-15zm-15 164h-134v-134h134z"/><path d="m206.513 236h-164c-8.284 0-15 6.716-15 15v164c0 8.284 6.716 15 15 15h164c8.284 0 15-6.716 15-15v-164c0-8.284-6.716-15-15-15zm-15 164h-134v-134h134z"/><path d="m476.612 381.926c-8.371-14.671-22.634-25.176-39.129-28.822l-37.97-8.396v-75.708c0-24.813-20.187-45-45-45s-45 20.187-45 45v65.798c-16.323 3.689-31.02 12.827-41.632 26.186-13.529 17.029-18.866 38.971-14.68 60.279 3.905 28.296 27.23 81.196 27.466 81.73 2.402 5.425 7.775 8.924 13.708 8.927l146.01.08h.008c6.064 0 11.532-3.652 13.855-9.254.696-1.678 17.157-41.445 27.271-72.422 5.26-16.075 3.471-33.716-4.907-48.398zm-23.606 39.07c-.001.003-.001.006-.002.009-6.898 21.128-17.205 47.332-22.699 60.989l-126.017-.068c-7.301-17.565-19.272-48.727-21.412-65.081-.046-.353-.104-.703-.176-1.051-2.602-12.764.559-25.939 8.67-36.148 4.839-6.091 11.109-10.696 18.143-13.511v40.865c0 8.284 6.716 15 15 15s15-6.716 15-15v-58.979-.021-79c0-8.271 6.729-15 15-15s15 6.729 15 15v87.82c0 7.434 5.444 13.745 12.797 14.837l.419.062 48.277 10.677c8.363 1.849 15.306 6.962 19.549 14.398 4.25 7.448 5.121 16.043 2.451 24.202z"/><path d="m375.157 66.644-20.894 20.894-8.394-8.394c-5.857-5.857-15.355-5.857-21.213 0s-5.858 15.355 0 21.213l19 19c2.929 2.929 6.768 4.394 10.606 4.394s7.678-1.465 10.606-4.394l31.5-31.5c5.858-5.857 5.858-15.355 0-21.213-5.856-5.858-15.354-5.858-21.211 0z"/></g></svg>