<svg id="Layer_2" data-name="Layer 2" xmlns="http://www.w3.org/2000/svg" viewBox="0 0 754.25 505.17"><defs><style>.cls-1{fill:#fff;}.cls-1,.cls-2{stroke:#231f20;stroke-miterlimit:10;stroke-width:16px;}.cls-2{fill:none;}.cls-3{fill:#231f20;}</style></defs><title>spray</title><line class="cls-1" y1="21.3" x2="230.44" y2="21.3"/><line class="cls-1" x1="523.81" y1="21.3" x2="754.25" y2="21.3"/><line class="cls-1" x1="115.22" x2="115.22" y2="47.44"/><line class="cls-1" x1="639.03" x2="639.03" y2="47.44"/><rect class="cls-2" x="611.27" y="47.44" width="55.19" height="62.61"/><rect class="cls-2" x="84.24" y="47.44" width="62.29" height="63.9"/><path class="cls-2" d="M353,227.58H547s-8.39-90.37-50-90.69H391.73S355.9,126.24,353,227.58Z" transform="translate(-70.28 -100.1)"/><line class="cls-2" x1="181.06" y1="271.43" x2="231.73" y2="271.43"/><path class="cls-2" d="M353,210.8s-51.32,11-73.91,160.72" transform="translate(-70.28 -100.1)"/><path class="cls-2" d="M544.54,210.8s53.42.64,70.2,160.72" transform="translate(-70.28 -100.1)"/><line class="cls-2" x1="522.12" y1="271.43" x2="569.32" y2="271.43"/><path class="cls-2" d="M364.38,349.9H529.22V325.45a40.67,40.67,0,0,0-40.67-40.67H404a39.57,39.57,0,0,0-39.57,39.58Z" transform="translate(-70.28 -100.1)"/><line class="cls-2" x1="376.52" y1="127.48" x2="376.52" y2="184.69"/><path class="cls-3" d="M390,372.62l-10,17.81-1.41,2.51c-1.93,3.42-.93,8.35,2.69,10.26a7.62,7.62,0,0,0,10.26-2.69l10-17.8,1.42-2.51c1.92-3.42.93-8.35-2.69-10.27A7.64,7.64,0,0,0,390,372.62Z" transform="translate(-70.28 -100.1)"/><path class="cls-3" d="M367.45,410.48l-9.72,15.38L356.37,428a7.56,7.56,0,0,0,2.69,10.26,7.65,7.65,0,0,0,10.26-2.69L379,420.21l1.37-2.16a7.57,7.57,0,0,0-2.69-10.26,7.68,7.68,0,0,0-10.27,2.69Z" transform="translate(-70.28 -100.1)"/><path class="cls-3" d="M345.28,445.56l-9.72,15.38-1.36,2.16a7.56,7.56,0,0,0,2.69,10.26,7.65,7.65,0,0,0,10.26-2.69l9.72-15.38,1.37-2.16a7.57,7.57,0,0,0-2.7-10.26,7.67,7.67,0,0,0-10.26,2.69Z" transform="translate(-70.28 -100.1)"/><path class="cls-3" d="M323.11,480.64,313.39,496,312,498.18a7.56,7.56,0,0,0,2.69,10.26A7.66,7.66,0,0,0,325,505.75l9.72-15.38,1.36-2.16A7.56,7.56,0,0,0,333.37,478a7.65,7.65,0,0,0-10.26,2.69Z" transform="translate(-70.28 -100.1)"/><path class="cls-3" d="M300.94,515.72l-9.72,15.38-1.37,2.16a7.57,7.57,0,0,0,2.7,10.26,7.67,7.67,0,0,0,10.26-2.69l9.72-15.38,1.36-2.16A7.56,7.56,0,0,0,311.2,513a7.65,7.65,0,0,0-10.26,2.69Z" transform="translate(-70.28 -100.1)"/><path class="cls-3" d="M278.77,550.8l-9.72,15.38-1.37,2.16a7.57,7.57,0,0,0,2.69,10.26,7.68,7.68,0,0,0,10.27-2.69l9.72-15.38,1.36-2.16A7.56,7.56,0,0,0,289,548.11a7.65,7.65,0,0,0-10.26,2.69Z" transform="translate(-70.28 -100.1)"/><path class="cls-3" d="M424,369.06l-2.89,20.22-.41,2.87a8.23,8.23,0,0,0,.75,5.78,7.51,7.51,0,0,0,10.26,2.69c1.52-1,3.18-2.61,3.45-4.48L438,375.92l.41-2.87a8.24,8.24,0,0,0-.76-5.78,7.51,7.51,0,0,0-10.26-2.69c-1.52,1-3.18,2.6-3.44,4.48Z" transform="translate(-70.28 -100.1)"/><path class="cls-3" d="M416.7,412.51l-3.47,17.8-.5,2.57a8.07,8.07,0,0,0,.75,5.78,7.53,7.53,0,0,0,10.27,2.69,7.4,7.4,0,0,0,3.44-4.48l3.47-17.8.51-2.57a8,8,0,0,0-.76-5.78A7.49,7.49,0,0,0,420.15,408a7.41,7.41,0,0,0-3.45,4.48Z" transform="translate(-70.28 -100.1)"/><path class="cls-3" d="M408.75,453.24,405.28,471l-.5,2.57a8,8,0,0,0,.76,5.78,7.51,7.51,0,0,0,10.26,2.69,7.45,7.45,0,0,0,3.45-4.48l3.47-17.8.5-2.57a8,8,0,0,0-.76-5.78,7.49,7.49,0,0,0-10.26-2.69,7.45,7.45,0,0,0-3.45,4.48Z" transform="translate(-70.28 -100.1)"/><path class="cls-3" d="M400.81,494l-3.47,17.8-.51,2.57a8,8,0,0,0,.76,5.78,7.51,7.51,0,0,0,10.26,2.69,7.41,7.41,0,0,0,3.45-4.48l3.47-17.8.5-2.57a8.07,8.07,0,0,0-.75-5.78,7.53,7.53,0,0,0-10.27-2.69,7.4,7.4,0,0,0-3.44,4.48Z" transform="translate(-70.28 -100.1)"/><path class="cls-3" d="M392.86,534.7l-3.47,17.8-.5,2.57a8.07,8.07,0,0,0,.75,5.78,7.64,7.64,0,0,0,4.49,3.44,7.55,7.55,0,0,0,5.77-.75,7.38,7.38,0,0,0,3.45-4.48l3.47-17.8.5-2.57a8,8,0,0,0-.75-5.78,7.51,7.51,0,0,0-10.26-2.69,7.41,7.41,0,0,0-3.45,4.48Z" transform="translate(-70.28 -100.1)"/><path class="cls-3" d="M384.91,575.43l-3.47,17.8-.5,2.57a8,8,0,0,0,.76,5.78A7.51,7.51,0,0,0,392,604.27a7.4,7.4,0,0,0,3.44-4.48l3.48-17.8.5-2.57a8,8,0,0,0-.76-5.78A7.51,7.51,0,0,0,388.36,571a7.41,7.41,0,0,0-3.45,4.48Z" transform="translate(-70.28 -100.1)"/><path class="cls-3" d="M458,373.45,463,393.26l.71,2.78a7.5,7.5,0,1,0,14.46-4l-5.07-19.8-.72-2.78a7.5,7.5,0,0,0-14.46,4Z" transform="translate(-70.28 -100.1)"/><path class="cls-3" d="M467.87,416.38l3.61,17.79.52,2.54a7.5,7.5,0,1,0,14.46-4l-3.61-17.8-.52-2.53a7.59,7.59,0,0,0-3.44-4.48,7.5,7.5,0,0,0-11,8.47Z" transform="translate(-70.28 -100.1)"/><path class="cls-3" d="M476.13,457l3.61,17.8.51,2.54a7.59,7.59,0,0,0,3.45,4.48,7.5,7.5,0,0,0,11-8.47l-3.62-17.8-.51-2.53a7.5,7.5,0,1,0-14.46,4Z" transform="translate(-70.28 -100.1)"/><path class="cls-3" d="M484.38,497.71l3.62,17.8.51,2.54a7.59,7.59,0,0,0,3.45,4.48,7.5,7.5,0,0,0,11-8.47l-3.62-17.8-.51-2.53a7.5,7.5,0,0,0-9.23-5.24,7.69,7.69,0,0,0-5.24,9.22Z" transform="translate(-70.28 -100.1)"/><path class="cls-3" d="M492.64,538.38l3.61,17.8.52,2.54A7.5,7.5,0,0,0,506,564a7.68,7.68,0,0,0,5.24-9.22l-3.61-17.8-.52-2.54a7.54,7.54,0,0,0-3.44-4.48,7.51,7.51,0,0,0-11,8.47Z" transform="translate(-70.28 -100.1)"/><path class="cls-3" d="M500.9,579.05l3.61,17.8.52,2.53a7.48,7.48,0,0,0,9.22,5.24,7.68,7.68,0,0,0,5.24-9.22l-3.61-17.8-.52-2.54a7.5,7.5,0,1,0-14.46,4Z" transform="translate(-70.28 -100.1)"/><path class="cls-3" d="M500.48,373.89l11.76,16.7,1.67,2.36a8.07,8.07,0,0,0,4.48,3.45,7.67,7.67,0,0,0,5.78-.76,7.59,7.59,0,0,0,3.45-4.48,7.44,7.44,0,0,0-.76-5.78l-11.76-16.7-1.67-2.36a8,8,0,0,0-4.48-3.45,7.68,7.68,0,0,0-5.78.76,7.54,7.54,0,0,0-3.44,4.48,7.39,7.39,0,0,0,.75,5.78Z" transform="translate(-70.28 -100.1)"/><path class="cls-3" d="M525,410.5l9.72,15.39,1.36,2.16a7.83,7.83,0,0,0,4.48,3.44,7.49,7.49,0,0,0,8.47-11l-9.71-15.39-1.36-2.16a7.87,7.87,0,0,0-4.49-3.45,7.65,7.65,0,0,0-5.77.76,7.52,7.52,0,0,0-3.45,4.48,7.67,7.67,0,0,0,.75,5.78Z" transform="translate(-70.28 -100.1)"/><path class="cls-3" d="M547.13,445.59,556.84,461l1.37,2.16a7.85,7.85,0,0,0,4.48,3.45,7.68,7.68,0,0,0,5.78-.76,7.54,7.54,0,0,0,3.44-4.48,7.67,7.67,0,0,0-.75-5.78l-9.71-15.39L560.08,438a7.8,7.8,0,0,0-4.48-3.44,7.68,7.68,0,0,0-5.78.75,7.56,7.56,0,0,0-3.44,4.49,7.64,7.64,0,0,0,.75,5.77Z" transform="translate(-70.28 -100.1)"/><path class="cls-3" d="M569.28,480.69,579,496.08l1.36,2.16a7.93,7.93,0,0,0,4.49,3.44,7.68,7.68,0,0,0,5.78-.75,7.56,7.56,0,0,0,3.44-4.49,7.67,7.67,0,0,0-.75-5.78l-9.72-15.38-1.36-2.16a7.89,7.89,0,0,0-4.48-3.45,7.67,7.67,0,0,0-5.78.76,7.49,7.49,0,0,0-2.69,10.26Z" transform="translate(-70.28 -100.1)"/><path class="cls-3" d="M591.43,515.78l9.71,15.39,1.36,2.16a7.89,7.89,0,0,0,4.48,3.45,7.67,7.67,0,0,0,5.78-.76,7.49,7.49,0,0,0,2.69-10.26l-9.71-15.39-1.36-2.16a7.89,7.89,0,0,0-4.48-3.45,7.67,7.67,0,0,0-5.78.76,7.49,7.49,0,0,0-2.69,10.26Z" transform="translate(-70.28 -100.1)"/><path class="cls-3" d="M613.58,550.88l9.71,15.38,1.36,2.16a7.89,7.89,0,0,0,4.48,3.45,7.67,7.67,0,0,0,5.78-.76,7.49,7.49,0,0,0,2.69-10.26l-9.71-15.39-1.36-2.16a7.91,7.91,0,0,0-4.48-3.44,7.5,7.5,0,0,0-8.47,11Z" transform="translate(-70.28 -100.1)"/><circle class="cls-2" cx="324.19" cy="91.5" r="12.1"/><circle class="cls-2" cx="431.29" cy="91.5" r="12.1"/><path class="cls-2" d="M401.89,136.89s12.11,36.79,19.37,38.73c5.64,1.5,33.86,1.3,46,.86,4.3-.16,7.93-3,10.42-6.48,3.83-5.4,9.19-15.48,13.79-33.43" transform="translate(-70.28 -100.1)"/><line class="cls-2" x1="146.52" y1="81.98" x2="287.28" y2="81.98"/><line class="cls-2" x1="466.33" y1="79.39" x2="611.27" y2="79.39"/><line class="cls-2" x1="115.22" y1="111.35" x2="115.38" y2="133.62"/><line class="cls-2" x1="639.03" y1="110.7" x2="639.03" y2="132.65"/></svg>