<svg id="Layer_2" data-name="Layer 2" xmlns="http://www.w3.org/2000/svg" viewBox="0 0 409.4 272.62"><defs><style>.cls-1{fill:#fff;}.cls-1,.cls-2{stroke:#231f20;stroke-miterlimit:10;stroke-width:4px;}.cls-2{fill:none;}.cls-3{fill:#231f20;}</style></defs><title>spray</title><line class="cls-1" y1="11.56" x2="125.08" y2="11.56"/><line class="cls-1" x1="284.32" y1="11.56" x2="409.4" y2="11.56"/><line class="cls-1" x1="62.54" x2="62.54" y2="25.75"/><line class="cls-1" x1="346.86" x2="346.86" y2="25.75"/><rect class="cls-2" x="331.8" y="25.75" width="29.96" height="33.99"/><rect class="cls-2" x="45.72" y="25.75" width="33.81" height="34.69"/><path class="cls-2" d="M195.5,125.17H300.79s-4.56-49-27.15-49.23H216.53S197.08,70.16,195.5,125.17Z" transform="translate(-42.04 -55.97)"/><line class="cls-2" x1="98.28" y1="147.33" x2="125.78" y2="147.33"/><path class="cls-2" d="M195.5,116.06s-27.85,6-40.11,87.24" transform="translate(-42.04 -55.97)"/><path class="cls-2" d="M299.47,116.06s29,.35,38.11,87.24" transform="translate(-42.04 -55.97)"/><line class="cls-2" x1="283.4" y1="147.33" x2="309.02" y2="147.33"/><path class="cls-2" d="M201.68,191.56h89.47V178.29a22.07,22.07,0,0,0-22.07-22.07H223.16a21.48,21.48,0,0,0-21.48,21.48Z" transform="translate(-42.04 -55.97)"/><line class="cls-2" x1="204.37" y1="69.2" x2="204.37" y2="100.25"/><path class="cls-3" d="M216.94,204.69l-5.45,9.67-.77,1.36a2.5,2.5,0,1,0,4.32,2.52l5.45-9.66.76-1.37a2.5,2.5,0,1,0-4.31-2.52Z" transform="translate(-42.04 -55.97)"/><path class="cls-3" d="M204.71,225.24l-5.28,8.35-.74,1.17a2.52,2.52,0,0,0,.9,3.42,2.55,2.55,0,0,0,3.42-.9l5.27-8.35.74-1.17a2.53,2.53,0,0,0-.89-3.42,2.55,2.55,0,0,0-3.42.9Z" transform="translate(-42.04 -55.97)"/><path class="cls-3" d="M192.67,244.28l-5.28,8.35-.74,1.17a2.5,2.5,0,1,0,4.32,2.52l5.28-8.35.74-1.17a2.52,2.52,0,0,0-.9-3.42,2.56,2.56,0,0,0-3.42.9Z" transform="translate(-42.04 -55.97)"/><path class="cls-3" d="M180.64,263.32l-5.28,8.35-.74,1.17a2.52,2.52,0,0,0,.9,3.42,2.55,2.55,0,0,0,3.42-.9l5.27-8.34.74-1.18a2.53,2.53,0,0,0-.89-3.42,2.55,2.55,0,0,0-3.42.9Z" transform="translate(-42.04 -55.97)"/><path class="cls-3" d="M168.6,282.36l-5.27,8.35-.74,1.17a2.52,2.52,0,0,0,.89,3.42,2.55,2.55,0,0,0,3.42-.89l5.28-8.35.74-1.17a2.53,2.53,0,0,0-.9-3.43,2.56,2.56,0,0,0-3.42.9Z" transform="translate(-42.04 -55.97)"/><path class="cls-3" d="M156.57,301.4l-5.28,8.35-.74,1.17a2.52,2.52,0,0,0,.9,3.42,2.56,2.56,0,0,0,3.42-.89l5.28-8.35.74-1.17a2.5,2.5,0,0,0-4.32-2.53Z" transform="translate(-42.04 -55.97)"/><path class="cls-3" d="M235.54,202.38l-1.56,11-.23,1.55a2.8,2.8,0,0,0,.25,1.93,2.58,2.58,0,0,0,1.5,1.15c1.18.27,2.88-.36,3.07-1.75l1.57-11,.23-1.56a2.73,2.73,0,0,0-.26-1.92,2.49,2.49,0,0,0-1.49-1.15c-1.18-.27-2.88.36-3.08,1.74Z" transform="translate(-42.04 -55.97)"/><path class="cls-3" d="M231.6,226l-1.89,9.66-.27,1.39a2.5,2.5,0,1,0,4.82,1.33l1.89-9.66.27-1.39a2.56,2.56,0,0,0-1.75-3.08A2.52,2.52,0,0,0,231.6,226Z" transform="translate(-42.04 -55.97)"/><path class="cls-3" d="M227.28,248.08l-1.88,9.65-.27,1.4a2.5,2.5,0,0,0,4.82,1.33l1.88-9.66.27-1.4a2.5,2.5,0,1,0-4.82-1.32Z" transform="translate(-42.04 -55.97)"/><path class="cls-3" d="M223,270.18l-1.89,9.66-.27,1.4a2.5,2.5,0,0,0,4.82,1.33l1.89-9.66.27-1.4a2.5,2.5,0,0,0-4.82-1.33Z" transform="translate(-42.04 -55.97)"/><path class="cls-3" d="M218.65,292.29,216.77,302l-.27,1.4a2.5,2.5,0,1,0,4.82,1.32L223.2,295l.28-1.4a2.5,2.5,0,0,0-4.83-1.33Z" transform="translate(-42.04 -55.97)"/><path class="cls-3" d="M214.34,314.4l-1.88,9.66-.28,1.39a2.57,2.57,0,0,0,1.75,3.08,2.54,2.54,0,0,0,3.08-1.75l1.88-9.66.27-1.39a2.5,2.5,0,1,0-4.82-1.33Z" transform="translate(-42.04 -55.97)"/><path class="cls-3" d="M254,203.93l2.76,10.75.39,1.51a2.52,2.52,0,0,0,3.07,1.75,2.56,2.56,0,0,0,1.75-3.08l-2.76-10.75-.38-1.51a2.52,2.52,0,0,0-3.08-1.74,2.55,2.55,0,0,0-1.75,3.07Z" transform="translate(-42.04 -55.97)"/><path class="cls-3" d="M259.37,227.23l2,9.66.28,1.38a2.51,2.51,0,0,0,3.08,1.74,2.56,2.56,0,0,0,1.74-3.07l-2-9.66-.28-1.38a2.53,2.53,0,0,0-3.08-1.75,2.56,2.56,0,0,0-1.74,3.08Z" transform="translate(-42.04 -55.97)"/><path class="cls-3" d="M263.85,249.3l2,9.66.28,1.38a2.53,2.53,0,0,0,3.08,1.75,2.56,2.56,0,0,0,1.74-3.08l-2-9.66-.28-1.38a2.51,2.51,0,0,0-3.07-1.74,2.56,2.56,0,0,0-1.75,3.07Z" transform="translate(-42.04 -55.97)"/><path class="cls-3" d="M268.33,271.38l2,9.66.28,1.38a2.52,2.52,0,0,0,3.08,1.74,2.57,2.57,0,0,0,1.75-3.07l-2-9.66-.28-1.38a2.51,2.51,0,0,0-3.07-1.75,2.57,2.57,0,0,0-1.75,3.08Z" transform="translate(-42.04 -55.97)"/><path class="cls-3" d="M272.81,293.45l2,9.66.28,1.38a2.52,2.52,0,0,0,3.07,1.75,2.57,2.57,0,0,0,1.75-3.08l-2-9.66-.28-1.38a2.52,2.52,0,0,0-3.08-1.74,2.57,2.57,0,0,0-1.75,3.07Z" transform="translate(-42.04 -55.97)"/><path class="cls-3" d="M277.3,315.53l2,9.66.28,1.37a2.51,2.51,0,0,0,3.07,1.75,2.56,2.56,0,0,0,1.75-3.07l-2-9.67-.28-1.37a2.52,2.52,0,0,0-3.08-1.75,2.56,2.56,0,0,0-1.74,3.08Z" transform="translate(-42.04 -55.97)"/><path class="cls-3" d="M276.91,203.79l6.39,9.07.9,1.28a2.5,2.5,0,1,0,4.32-2.52l-6.39-9.07-.9-1.28a2.5,2.5,0,0,0-4.32,2.52Z" transform="translate(-42.04 -55.97)"/><path class="cls-3" d="M290.21,223.66l5.27,8.36.74,1.17a2.5,2.5,0,1,0,4.32-2.53l-5.27-8.35-.74-1.17a2.5,2.5,0,0,0-4.32,2.52Z" transform="translate(-42.04 -55.97)"/><path class="cls-3" d="M302.23,242.71l5.28,8.36.74,1.17a2.5,2.5,0,0,0,4.31-2.53l-5.27-8.35-.74-1.17a2.5,2.5,0,1,0-4.32,2.52Z" transform="translate(-42.04 -55.97)"/><path class="cls-3" d="M314.26,261.76l5.27,8.35.74,1.18a2.5,2.5,0,0,0,4.31-2.53l-5.27-8.35-.74-1.17a2.5,2.5,0,1,0-4.31,2.52Z" transform="translate(-42.04 -55.97)"/><path class="cls-3" d="M326.28,280.81l5.27,8.35.74,1.17a2.5,2.5,0,1,0,4.32-2.52l-5.28-8.35-.73-1.17a2.5,2.5,0,1,0-4.32,2.52Z" transform="translate(-42.04 -55.97)"/><path class="cls-3" d="M338.3,299.86l5.27,8.35.74,1.17a2.5,2.5,0,0,0,4.32-2.52l-5.27-8.35-.74-1.17a2.5,2.5,0,1,0-4.32,2.52Z" transform="translate(-42.04 -55.97)"/><circle class="cls-2" cx="175.97" cy="49.66" r="6.57"/><circle class="cls-2" cx="234.1" cy="49.66" r="6.57"/><path class="cls-2" d="M222,75.94s6.57,20,10.51,21c3.07.82,18.38.71,25,.47a7.56,7.56,0,0,0,5.65-3.51c2.08-2.94,5-8.41,7.49-18.15" transform="translate(-42.04 -55.97)"/><line class="cls-2" x1="79.53" y1="44.5" x2="155.93" y2="44.5"/><line class="cls-2" x1="253.12" y1="43.09" x2="331.8" y2="43.09"/><line class="cls-2" x1="62.54" y1="60.44" x2="62.63" y2="72.53"/><line class="cls-2" x1="346.86" y1="60.09" x2="346.86" y2="72"/></svg>