<svg id="Layer_1" viewBox="0 0 64 64" xmlns="http://www.w3.org/2000/svg" data-name="Layer 1"><g fill="#333"><path d="m26.38 44.04 5.06-6.5c.28-.37.84-.37 1.12 0l5.06 6.5c.36.47.03 1.15-.56 1.15h-2.06l.7 8.87c.03.41-.29.77-.71.77h-5.99c-.41 0-.74-.35-.71-.77l.7-8.87h-2.06c-.59 0-.92-.68-.56-1.15z"/><path d="m63 12.88c0-.77-3.23-1.43-7.67-1.64-.33-.02-.63-.21-.77-.51-.43-.93-1.37-1.57-2.45-1.57s-2.01.63-2.45 1.57c-.14.3-.44.49-.77.51-4.44.22-7.67.87-7.67 1.64 0 .82 3.6 1.5 8.42 1.68l.35 4.51s.01.05.02.08c-2.12.51-4.23.87-6.35 1.15-.25-.71-.92-1.23-1.71-1.23h-2.23c-1.71-2.39-4.5-4-7.75-4s-6.04 1.61-7.75 4h-2.23c-.79 0-1.46.51-1.71 1.22-2.12-.29-4.24-.68-6.34-1.17 0-.02 0-.04.01-.05l.35-4.51c4.82-.18 8.42-.86 8.42-1.68 0-.77-3.23-1.43-7.67-1.64-.33-.02-.63-.21-.77-.51-.43-.93-1.37-1.57-2.45-1.57s-2.01.63-2.45 1.57c-.14.3-.44.49-.77.51-4.44.22-7.67.87-7.67 1.64 0 .82 3.6 1.5 8.42 1.68l.34 4.35c-2.11.82-3.61 3.18-2.87 5.57.68 2.46 3.23 3.9 5.69 3.21 2.56-.65 5.15-1.14 7.74-1.5.25.71.92 1.22 1.71 1.22h.84l.03.14c.06.25.14.48.23.71 0 0-6.68 4.76-6.7 4.78-.34.35-.55.83-.55 1.36v8.05c.07 2.59 3.86 2.58 3.92 0v-7.17l6.65-4.06c.41.11.84.19 1.28.19h8.53c.44 0 .87-.08 1.28-.19l6.65 4.06v7.17c0 1.08.88 1.96 1.96 1.96s1.96-.88 1.96-1.96v-8.05c0-.51-.21-1.04-.61-1.42l-6.64-4.72c.09-.23.17-.46.23-.71l.03-.14h.84c.8 0 1.47-.52 1.71-1.23 2.59.33 5.19.79 7.78 1.51.78.21 1.64.23 2.48 0 4.81-1.52 4.04-7.54.3-8.82l.34-4.32c4.82-.18 8.42-.86 8.42-1.68z"/></g></svg>