<svg height="512" viewBox="0 0 24 24" width="512" xmlns="http://www.w3.org/2000/svg"><g id="Layer_2" data-name="Layer 2"><path d="m17 1.25h-14a1.7584 1.7584 0 0 0 -1.75 1.75v18a1.7584 1.7584 0 0 0 1.75 1.75h15c.10986 0 .22 0 .33008-.01a.1714.1714 0 0 1 .04-.03 6.53252 6.53252 0 0 0 .35992-1.55 2.97852 2.97852 0 0 1 -.73.09 3.25 3.25 0 0 1 0-6.5 3.081 3.081 0 0 1 .75.09v-11.84a1.7584 1.7584 0 0 0 -1.75-1.75zm-11.5 4h9a.75.75 0 0 1 0 1.5h-9a.75.75 0 0 1 0-1.5zm0 4h9a.75.75 0 0 1 0 1.5h-9a.75.75 0 0 1 0-1.5zm5.5 9.5h-5.5a.75.75 0 0 1 0-1.5h5.5a.75.75 0 0 1 0 1.5zm1-4h-6.5a.75.75 0 0 1 0-1.5h6.5a.75.75 0 0 1 0 1.5z"/><path d="m18.75 13.31a4.75076 4.75076 0 1 0 -1.37988 9.4 4.445 4.445 0 0 0 .62988.04c.10986 0 .22 0 .33008-.01a4.75059 4.75059 0 0 0 .41992-9.43zm-.02 7.85a2.97852 2.97852 0 0 1 -.73.09 3.25 3.25 0 0 1 0-6.5 3.081 3.081 0 0 1 .75.09 3.24414 3.24414 0 0 1 -.02 6.32z"/><path d="m17.5 19.75a.74754.74754 0 0 1 -.53027-.21973l-1-1a.74992.74992 0 1 1 1.06054-1.06054l.46973.46972 1.46973-1.46972a.74992.74992 0 0 1 1.06054 1.06054l-2 2a.74754.74754 0 0 1 -.53027.21973z"/></g></svg>