<svg id="Layer_1" height="512" viewBox="0 0 512 512" width="512" xmlns="http://www.w3.org/2000/svg" data-name="Layer 1"><path d="m256 0c141.385 0 256 114.615 256 256s-114.615 256-256 256-256-114.615-256-256 114.615-256 256-256zm10.156 174.5a10.156 10.156 0 0 0 -20.312 0v77.673l-39.37 44.73a10.157 10.157 0 0 0 15.252 13.419l41.895-47.605a10.157 10.157 0 0 0 2.535-6.717zm80.507 157.813-5.923-5.923a10.154 10.154 0 1 0 -14.362 14.358l5.923 5.923a10.154 10.154 0 1 0 14.362-14.358zm-161.045-161.056-5.918-5.927a10.158 10.158 0 0 0 -14.367 14.363l5.923 5.932a10.159 10.159 0 1 0 14.367-14.368zm-29.148 84.743a10.158 10.158 0 0 0 -10.158-10.154h-8.381a10.157 10.157 0 0 0 0 20.313h8.381a10.162 10.162 0 0 0 10.158-10.159zm199.059 0a10.16 10.16 0 0 0 10.159 10.159h8.376a10.157 10.157 0 1 0 0-20.313h-8.376a10.156 10.156 0 0 0 -10.159 10.154zm-169.911 70.375a10.167 10.167 0 0 0 -14.367.01l-5.923 5.923a10.156 10.156 0 0 0 14.372 14.358l5.923-5.923a10.168 10.168 0 0 0 0-14.368zm161.045-161.045a10.168 10.168 0 0 0 -14.362 0l-5.923 5.927a10.158 10.158 0 0 0 14.362 14.368l5.923-5.932a10.153 10.153 0 0 0 0-14.363zm-80.507-27.4a10.156 10.156 0 0 0 -20.312 0v8.381a10.156 10.156 0 0 0 20.312 0zm0 227.756a10.156 10.156 0 1 0 -20.312 0v8.377a10.156 10.156 0 1 0 20.312 0v-8.373zm-10.156 32.503c78.4 0 142.188-63.791 142.188-142.189s-63.788-142.189-142.188-142.189-142.186 63.789-142.186 142.189 63.786 142.189 142.186 142.189zm0-304.689c-89.6 0-162.5 72.9-162.5 162.5s72.9 162.5 162.5 162.5 162.5-72.9 162.5-162.5-72.9-162.5-162.5-162.5z" fill-rule="evenodd"/></svg>